<?xml version="1.0" encoding="utf-8"?>
<!-- Generator: Adobe Illustrator 16.0.0, SVG Export Plug-In . SVG Version: 6.00 Build 0)  -->
<!DOCTYPE svg PUBLIC "-//W3C//DTD SVG 1.1//EN" "http://www.w3.org/Graphics/SVG/1.1/DTD/svg11.dtd">
<svg version="1.1" id="Layer_1" xmlns="http://www.w3.org/2000/svg" xmlns:xlink="http://www.w3.org/1999/xlink" x="0px" y="0px"
	 width="136px" height="136px" viewBox="0 0 136 136" enable-background="new 0 0 136 136" xml:space="preserve">
<title>Group 14</title>
<desc>Created with Sketch.</desc>
<g id="Page-1_1_">
	<g id="About_overview" transform="translate(-819.000000, -1415.000000)">
		<rect display="none" fill="#FFFFFF" width="1440" height="2942"/>
		<g id="Group-14" transform="translate(819.000000, 1415.000000)">
			<g id="Page-1">
				<path id="Fill-17" fill="#1F3D7C" d="M67.74,133.35c-36.18,0-65.61-29.43-65.61-65.609c0-36.18,29.43-65.62,65.61-65.62
					c36.18,0,65.619,29.44,65.619,65.62C133.359,103.92,103.92,133.35,67.74,133.35 M67.74,0C30.39,0,0,30.39,0,67.74
					c0,37.35,30.39,67.74,67.74,67.74c37.359,0,67.74-30.391,67.74-67.74C135.48,30.39,105.1,0,67.74,0"/>
			</g>
			<g id="Group" transform="translate(32.000000, 33.000000)">
				<path id="Fill-1" fill="#1F3D7C" d="M34.51,50c0.661,0,1.24-0.223,1.744-0.67C36.747,48.886,37,48.279,37,47.495
					c0-0.69-0.253-1.286-0.746-1.763C35.771,45.244,35.171,45,34.479,45c-0.693,0-1.282,0.244-1.765,0.732
					C32.242,46.209,32,46.805,32,47.495c0,0.796,0.253,1.411,0.746,1.847C33.25,49.788,33.838,50,34.51,50"/>
				<path id="Fill-3" fill="#1F3D7C" d="M34.615,22c-0.788,0-1.418,0.305-1.901,0.903C32.24,23.489,32,24.318,32,25.393
					c0,0.781,0.042,2.062,0.146,3.855l0.527,9.213c0.104,1.184,0.262,2.074,0.504,2.662c0.23,0.586,0.64,0.877,1.239,0.877
					c0.578,0,0.999-0.305,1.25-0.903c0.264-0.61,0.421-1.476,0.506-2.599l0.702-9.48C36.959,28.151,37,27.296,37,26.443
					c0-1.43-0.168-2.526-0.483-3.296C36.192,22.39,35.561,22,34.615,22"/>
				<g id="Group-7">
					<g id="Clip-6">
					</g>
					<defs>
						<filter id="Adobe_OpacityMaskFilter" filterUnits="userSpaceOnUse" x="0" y="0.254" width="70.293" height="57.746">
							<feColorMatrix  type="matrix" values="1 0 0 0 0  0 1 0 0 0  0 0 1 0 0  0 0 0 1 0"/>
						</filter>
					</defs>
					<mask maskUnits="userSpaceOnUse" x="0" y="0.254" width="70.293" height="57.746" id="mask-2">
						<g filter="url(#Adobe_OpacityMaskFilter)">
							<polygon id="path-1" fill="#FFFFFF" points="0,0.254 70.294,0.254 70.294,58 0,58 							"/>
						</g>
					</mask>
					<path id="Fill-5" mask="url(#mask-2)" fill="#51B8E6" d="M35.152,7.629L63.178,52.92H7.114L35.152,7.629z M2.553,58h65.199
						c0.924,0,1.773-0.502,2.217-1.303c0.453-0.813,0.43-1.795-0.051-2.582L37.307,1.448c-0.455-0.741-1.281-1.194-2.154-1.194
						c-0.886,0-1.7,0.454-2.167,1.194l-32.6,52.667c-0.49,0.787-0.516,1.77-0.06,2.582C0.78,57.498,1.629,58,2.553,58z"/>
				</g>
			</g>
		</g>
	</g>
</g>
</svg>
