<?xml version="1.0" encoding="utf-8"?>
<!-- Generator: Adobe Illustrator 16.0.0, SVG Export Plug-In . SVG Version: 6.00 Build 0)  -->
<!DOCTYPE svg PUBLIC "-//W3C//DTD SVG 1.1//EN" "http://www.w3.org/Graphics/SVG/1.1/DTD/svg11.dtd">
<svg version="1.1" id="Layer_1" xmlns="http://www.w3.org/2000/svg" xmlns:xlink="http://www.w3.org/1999/xlink" x="0px" y="0px"
	 width="136px" height="136px" viewBox="0 0 136 136" enable-background="new 0 0 136 136" xml:space="preserve">
<title>Page 1</title>
<desc>Created with Sketch.</desc>
<g id="Page-1_1_">
	<g id="About_overview" transform="translate(-1165.000000, -1415.000000)">
		<rect display="none" fill="#FFFFFF" width="1440" height="2942"/>
		<g id="Page-1" transform="translate(1165.000000, 1415.000000)">
			<path id="Fill-1" fill="#1F3D7C" d="M67.74,133.35c-36.18,0-65.61-29.43-65.61-65.609c0-36.18,29.43-65.62,65.61-65.62
				c36.18,0,65.619,29.44,65.619,65.62C133.359,103.92,103.92,133.35,67.74,133.35 M67.74,0C30.39,0,0,30.38,0,67.74
				c0,37.35,30.39,67.74,67.74,67.74c37.359,0,67.74-30.391,67.74-67.74C135.48,30.38,105.1,0,67.74,0"/>
			<path id="Fill-3" fill="#1F3D7C" d="M83.094,44.145h-18.9c-0.666,0-1.21,0.544-1.21,1.21c0,0.206,0.048,0.399,0.145,0.569
				c0.278,0.181,0.545,0.387,0.811,0.605h0.012c0.073,0.012,0.157,0.024,0.242,0.024h18.9c0.666,0,1.21-0.532,1.21-1.198
				S83.76,44.145,83.094,44.145"/>
			<path id="Fill-5" fill="#1F3D7C" d="M83.094,53.522H69.385c0.34,0.774,0.629,1.573,0.859,2.408h12.85
				c0.666,0,1.21-0.532,1.21-1.198S83.76,53.522,83.094,53.522"/>
			<path id="Fill-7" fill="#1F3D7C" d="M83.094,62.9H70.837c-0.085,0.811-0.229,1.621-0.437,2.408h12.693
				c0.666,0,1.21-0.532,1.21-1.198S83.76,62.9,83.094,62.9"/>
			<path id="Fill-9" fill="#1F3D7C" d="M81.594,85.479l-13.782-14.35c-0.012,0.023-0.036,0.047-0.049,0.072
				c-0.641,0.932-1.355,1.803-2.153,2.59c-0.799,0.821-1.682,1.56-2.638,2.213l13.673,14.229c0.678,0.702,1.573,1.054,2.481,1.054
				c0.846,0,1.705-0.315,2.37-0.957C82.863,89.023,82.9,86.846,81.594,85.479"/>
			<path id="Fill-11" fill="#1F3D7C" d="M52.614,70.934c-2.226,0-4.319-0.737-6.002-2.008c-1.028-0.774-1.911-1.743-2.577-2.855
				c-0.605-0.992-1.028-2.106-1.258-3.303c-0.46-2.445-0.013-4.913,1.258-7.031c0.097-0.169,0.193-0.326,0.303-0.484
				c0.629-0.931,1.403-1.73,2.274-2.371c1.21-0.92,2.626-1.549,4.151-1.839c0.629-0.121,1.258-0.182,1.888-0.182
				c4.803,0,8.954,3.437,9.849,8.168c0.302,1.585,0.206,3.146-0.206,4.61c-1.004,3.533-3.933,6.389-7.792,7.127
				C53.885,70.875,53.243,70.934,52.614,70.934 M65.21,70.027c1.041-1.416,1.827-3.013,2.336-4.719
				c0.23-0.775,0.399-1.586,0.508-2.408c0.206-1.585,0.169-3.243-0.145-4.901c-0.133-0.714-0.315-1.403-0.545-2.069
				c-0.072-0.206-0.146-0.411-0.218-0.617c-0.169-0.424-0.351-0.847-0.544-1.246c-0.097-0.182-0.182-0.363-0.279-0.545
				c-0.012-0.024-0.024-0.036-0.036-0.06c-0.218-0.388-0.447-0.775-0.69-1.15c-0.254-0.375-0.508-0.726-0.786-1.077
				c-0.411-0.52-0.859-1.016-1.331-1.476c-0.242-0.242-0.497-0.472-0.751-0.69c-1.584-1.343-3.436-2.371-5.432-3
				c-0.424-0.133-0.859-0.255-1.295-0.351c-1.089-0.242-2.202-0.363-3.351-0.363c-0.461,0-0.92,0.024-1.38,0.06
				c-0.508,0.036-1.016,0.109-1.537,0.206c-1.089,0.206-2.141,0.532-3.122,0.944c-0.907,0.375-1.779,0.835-2.577,1.379
				c-0.931,0.617-1.79,1.331-2.565,2.13c-3.388,3.509-5.082,8.554-4.102,13.721c0.266,1.392,0.702,2.711,1.307,3.933
				c0.194,0.411,0.411,0.81,0.641,1.185c0.182,0.304,0.375,0.605,0.581,0.896c0.109,0.158,0.218,0.303,0.339,0.447
				c0.194,0.279,0.411,0.545,0.641,0.812c0.012,0,0.012,0.012,0.012,0.012c0.146,0.158,0.291,0.327,0.448,0.484
				c0.048,0.049,0.084,0.097,0.133,0.133v0.013c0.097,0.108,0.206,0.217,0.327,0.314c0.459,0.472,0.956,0.896,1.488,1.295
				c0.17,0.133,0.351,0.254,0.545,0.387c0.06,0.049,0.133,0.098,0.205,0.133c0.811,0.545,1.67,1.004,2.577,1.393
				c0.448,0.181,0.896,0.351,1.356,0.496c0.218,0.072,0.435,0.133,0.665,0.193c0.278,0.072,0.569,0.145,0.847,0.193
				c1.016,0.218,2.069,0.327,3.134,0.327c0.46,0,0.92-0.024,1.38-0.062c0.508-0.035,1.016-0.108,1.536-0.205
				c2.372-0.447,4.514-1.416,6.329-2.758C63.153,72.459,64.279,71.321,65.21,70.027"/>
			<path id="Fill-13" fill="#35ABE1" d="M44.035,77.057c-0.581-0.314-1.15-0.666-1.706-1.041c-0.29-0.205-0.581-0.41-0.859-0.629
				v26.803c0,1.996,1.633,3.629,3.63,3.629h47.795c1.996,0,3.63-1.633,3.63-3.629V33.291c0-1.996-1.634-3.63-3.63-3.63H45.101
				c-1.997,0-3.63,1.634-3.63,3.63v13.105c0.81-0.63,1.669-1.186,2.565-1.67c0.823-0.436,1.682-0.799,2.577-1.113v-8.809h44.771
				v65.872H46.612V78.182C45.729,77.868,44.871,77.493,44.035,77.057"/>
		</g>
	</g>
</g>
</svg>
