<?xml version="1.0" encoding="utf-8"?>
<!-- Generator: Adobe Illustrator 16.0.0, SVG Export Plug-In . SVG Version: 6.00 Build 0)  -->
<!DOCTYPE svg PUBLIC "-//W3C//DTD SVG 1.1//EN" "http://www.w3.org/Graphics/SVG/1.1/DTD/svg11.dtd">
<svg version="1.1" id="Layer_1" xmlns="http://www.w3.org/2000/svg" xmlns:xlink="http://www.w3.org/1999/xlink" x="0px" y="0px"
	 width="20px" height="13px" viewBox="0 0 20 13" enable-background="new 0 0 20 13" xml:space="preserve">
<title>noun_711845</title>
<desc>Created with Sketch.</desc>
<g id="Page-1">
	<g id="Mobile" transform="translate(-143.000000, -1313.000000)">
		<g id="Group-6" transform="translate(0.000000, 957.000000)">
			<g id="Group-3" transform="translate(0.000000, 277.000000)">
				<g id="noun_711845" transform="translate(143.000000, 79.000000)">
					<path id="Shape" fill="#FFFFFF" d="M0.083,6.762l5.34,6.149c0.129,0.146,0.351,0.147,0.475,0.017
						c0.126-0.132,0.136-0.375,0.016-0.514l-4.808-5.54h18.584c0.185,0,0.334-0.162,0.334-0.362s-0.149-0.362-0.334-0.362H1.105
						l4.808-5.54c0.12-0.139,0.112-0.384-0.016-0.514C5.77-0.033,5.563-0.036,5.423,0.114l-5.34,6.15
						C-0.044,6.434-0.011,6.641,0.083,6.762z"/>
				</g>
			</g>
		</g>
	</g>
</g>
</svg>
