<?xml version="1.0" encoding="utf-8"?>
<!-- Generator: Adobe Illustrator 16.0.0, SVG Export Plug-In . SVG Version: 6.00 Build 0)  -->
<!DOCTYPE svg PUBLIC "-//W3C//DTD SVG 1.1//EN" "http://www.w3.org/Graphics/SVG/1.1/DTD/svg11.dtd">
<svg version="1.1" id="Layer_1" xmlns="http://www.w3.org/2000/svg" xmlns:xlink="http://www.w3.org/1999/xlink" x="0px" y="0px"
	 width="20px" height="13px" viewBox="0 0 20 13" enable-background="new 0 0 20 13" xml:space="preserve">
<title>noun_711845</title>
<desc>Created with Sketch.</desc>
<g id="Page-1">
	<g id="Mobile" transform="translate(-143.000000, -1313.000000)">
		<g id="Group-6" transform="translate(0.000000, 957.000000)">
			<g id="Group-3" transform="translate(0.000000, 277.000000)">
				<g id="noun_711845" transform="translate(143.000000, 79.000000)">
					<path id="Shape" fill="#FFFFFF" d="M19.94,6.261l-5.34-6.149c-0.129-0.146-0.351-0.147-0.476-0.017
						C14,0.228,13.989,0.471,14.109,0.609l4.809,5.54H0.334C0.148,6.149,0,6.312,0,6.511c0,0.2,0.148,0.362,0.334,0.362h18.584
						l-4.808,5.541c-0.12,0.139-0.112,0.383,0.017,0.514c0.127,0.129,0.334,0.132,0.474-0.019l5.34-6.15
						C20.067,6.589,20.034,6.382,19.94,6.261z"/>
				</g>
			</g>
		</g>
	</g>
</g>
</svg>
