<?xml version="1.0" encoding="utf-8"?>
<!-- Generator: Adobe Illustrator 16.0.0, SVG Export Plug-In . SVG Version: 6.00 Build 0)  -->
<!DOCTYPE svg PUBLIC "-//W3C//DTD SVG 1.1//EN" "http://www.w3.org/Graphics/SVG/1.1/DTD/svg11.dtd">
<svg version="1.1" id="Layer_1" xmlns="http://www.w3.org/2000/svg" xmlns:xlink="http://www.w3.org/1999/xlink" x="0px" y="0px"
	 width="56px" height="60px" viewBox="0 0 56 60" enable-background="new 0 0 56 60" xml:space="preserve">
<title>Biogas</title>
<desc>Created with Sketch.</desc>
<g id="Page-1">
	<g id="Support-" transform="translate(-768.000000, -2488.000000)">
		<rect display="none" fill="#FFFFFF" width="1440" height="3047"/>
		<g id="Group-18" transform="translate(739.000000, 2474.000000)">
			<g id="Biogas" transform="translate(29.000000, 14.000000)">
				<path id="Fill-2" fill="#35ABE1" d="M29.437,51.598c-0.602-0.201-1.198-0.469-1.831-0.752c-0.308-0.139-0.619-0.277-0.936-0.414
					c-0.343-0.146-0.738-0.074-1.005,0.184c-2.16,2.06-3.579,4.68-4.894,7.274c-0.882-0.376-1.476-0.88-1.869-1.571h0.001
					c3.242-5.381,7.545-9.58,12.79-12.477c1.211-0.668,2.458-1.33,3.664-1.971c1.203-0.639,2.447-1.298,3.662-1.969
					c3.512-1.938,5.996-3.991,7.816-6.461c0.693-0.941,1.283-1.951,1.852-2.93c0.239-0.407,0.484-0.829,0.73-1.235
					c0.164-0.269,0.242-0.588,0.226-0.927c-0.021-0.388-0.277-0.718-0.644-0.84c-0.365-0.122-0.77-0.001-1.016,0.295l-0.021,0.021
					c-0.042,0.051-0.119,0.137-0.187,0.255c-1.823,3.12-4.555,5.55-8.118,7.225c-1.728,0.81-3.522,1.571-5.257,2.307
					c-0.531,0.226-1.063,0.45-1.595,0.68c-0.262,0.112-0.522,0.224-0.784,0.337c-1.752,0.76-3.359,1.575-4.826,2.454
					c-1.774,1.06-3.348,2.212-4.747,3.473c-0.208-0.555-0.367-1.103-0.479-1.646c-0.196-0.924-0.256-1.834-0.181-2.747
					c0.006-0.096,0.015-0.193,0.026-0.29c0.325-2.944,1.319-5.37,3.017-7.313c0.502-0.577,1.067-1.111,1.696-1.6
					c0.971-0.768,2.091-1.431,3.363-1.999c0.9-0.402,1.817-0.749,2.772-1.06c0.585-0.192,1.183-0.368,1.799-0.536
					c1.093-0.3,2.243-0.575,3.479-0.85c0.334-0.074,0.668-0.147,1.001-0.221c1.375-0.301,2.797-0.612,4.187-0.992
					c3.828-1.045,5.747-2.102,8.336-4.771c1.729,3.624,2.625,7.235,2.666,10.755c0.048,3.938-0.973,7.879-3.037,11.712
					c-2.633,4.896-6.96,7.934-12.859,9.027C34.981,52.632,32.104,52.491,29.437,51.598 M52.631,18.664
					c-0.084-0.164-0.189-0.271-0.248-0.331l-0.009-0.007c-0.173-0.204-0.427-0.323-0.692-0.326h-0.014
					c-0.262,0-0.511,0.11-0.687,0.304c-2.854,3.138-4.411,4.104-8.339,5.177c-1.344,0.368-2.741,0.675-4.095,0.97
					c-0.335,0.073-0.671,0.147-1.005,0.223c-1.252,0.278-2.418,0.556-3.529,0.86c-0.615,0.167-1.213,0.341-1.794,0.531
					c-1.06,0.338-2.077,0.722-3.083,1.169c-1.114,0.498-2.131,1.071-3.048,1.712c-0.572,0.403-1.108,0.834-1.603,1.292
					c-2.584,2.392-4.101,5.544-4.53,9.426c-0.118,1.073-0.078,2.161,0.118,3.257c0.083,0.474,0.194,0.949,0.337,1.427
					c0.217,0.73,0.503,1.462,0.857,2.195c0.121,0.251,0.347,0.436,0.618,0.503c0.268,0.065,0.554,0.01,0.778-0.158
					c0.017-0.013,0.032-0.023,0.047-0.034c0.063-0.044,0.147-0.104,0.236-0.19c1.506-1.474,3.202-2.772,5.182-3.956
					c1.392-0.833,2.925-1.608,4.632-2.347c0.787-0.34,1.576-0.675,2.367-1.01c1.423-0.604,2.89-1.225,4.332-1.882
					c-0.426,0.261-0.873,0.519-1.34,0.778c-1.2,0.663-2.438,1.32-3.635,1.955c-1.212,0.643-2.466,1.308-3.69,1.984
					c-5.535,3.059-10.074,7.482-13.489,13.152c-0.369,0.609-0.404,1.205-0.11,1.766c0.96,1.816,2.605,2.498,3.763,2.854
					c0.09,0.028,0.181,0.04,0.272,0.04c0.345,0,0.671-0.193,0.834-0.515c1.316-2.616,2.565-5.098,4.449-7.065
					c0.111,0.049,0.22,0.099,0.331,0.148c0.645,0.289,1.313,0.59,2.004,0.82c2.971,0.994,6.151,1.155,9.725,0.491
					c6.482-1.204,11.248-4.562,14.166-9.982C57.123,35.75,57.086,27.259,52.631,18.664"/>
				<path id="Fill-3" fill="#1F3D7C" d="M17.628,29.377c0.655-1.798,1.204-3.403,1.676-4.904c0.292-0.925,0.508-1.852,0.724-2.822
					c1.483,2.072,2.683,4.047,3.502,6.124c0.488-0.402,1.004-0.783,1.545-1.14c-1.245-2.97-3.068-5.516-4.769-7.757
					c-0.178-0.233-0.45-0.366-0.734-0.366c-0.065,0-0.129,0.008-0.194,0.022c-0.348,0.076-0.623,0.349-0.707,0.702
					c-0.129,0.54-0.247,1.066-0.359,1.576c-0.24,1.082-0.467,2.103-0.772,3.081c-0.467,1.474-1.006,3.051-1.652,4.822l-0.083,0.236
					c-0.152,0.424-0.324,0.902-0.54,1.287c-0.263-0.692-0.634-1.312-0.947-1.79c-0.19-0.292-0.403-0.577-0.609-0.855
					c-0.35-0.471-0.711-0.957-0.91-1.411c-0.17-0.392-0.579-0.617-0.993-0.55c-0.415,0.068-0.732,0.41-0.778,0.837
					c-0.108,1.059-0.717,2.037-1.363,3.07c-0.211,0.338-0.428,0.688-0.627,1.042c-0.786,1.393-1.647,3.037-1.941,4.907
					c-0.319,2.046,0.071,4.007,1.104,5.526c0.09,0.135,0.357,0.453,1.293,1.564c0.061,0.07,0.123,0.148,0.19,0.226
					c-0.724-0.278-1.561-0.731-2.385-1.315c-1.555-1.104-2.873-2.504-3.81-4.048c-2.049-3.374-1.796-7.203-1.227-9.82
					c0.684-3.134,2.027-6.014,4.108-8.802c1.639-2.195,3.029-4.437,4.134-6.66c0.981-1.978,1.679-3.964,2.135-6.071
					c0.086-0.407,0.153-0.844,0.217-1.267c0.131-0.871,0.264-1.762,0.583-2.45c1.604,1.556,5.312,5.194,6.233,6.185
					c2.135,2.294,4.643,5.022,7.061,7.857c1.936,2.272,3.433,4.746,4.477,7.389c0.584-0.192,1.18-0.371,1.789-0.541
					c-1.123-2.901-2.75-5.608-4.866-8.094c-2.441-2.861-4.965-5.607-7.114-7.919c-0.701-0.752-2.804-2.827-3.994-3.996
					c-0.806-0.793-1.572-1.543-2.14-2.093c-0.284-0.278-0.52-0.503-0.684-0.661c-0.083-0.081-0.149-0.145-0.194-0.188
					c-0.69-0.65-1.304-0.082-1.332-0.054c-1.178,1.128-1.432,2.799-1.655,4.274c-0.061,0.413-0.12,0.801-0.195,1.15
					c-0.419,1.947-1.067,3.787-1.979,5.62c-1.053,2.122-2.383,4.265-3.955,6.368C2.646,20.679,1.195,23.8,0.45,27.207
					c-0.646,2.962-0.918,7.314,1.46,11.231c1.07,1.765,2.567,3.356,4.33,4.606c1.127,0.801,3.963,2.572,5.914,1.736
					c0.275-0.116,0.477-0.359,0.545-0.656c0.119-0.508,0.119-0.508-1.801-2.783c-0.486-0.578-1.091-1.295-1.175-1.41
					c-0.755-1.113-1.038-2.586-0.795-4.145c0.243-1.555,1.014-3.014,1.716-4.262c0.179-0.316,0.375-0.633,0.585-0.969
					c0.348-0.557,0.719-1.151,1.021-1.792c0.19,0.258,0.369,0.5,0.521,0.733c0.238,0.365,0.962,1.478,0.977,2.405
					c0.006,0.281,0.134,0.547,0.348,0.725c0.216,0.178,0.496,0.246,0.768,0.188c1.655-0.346,2.273-2.071,2.682-3.215L17.628,29.377z
					"/>
			</g>
		</g>
	</g>
</g>
</svg>
