<?xml version="1.0" encoding="utf-8"?>
<!-- Generator: Adobe Illustrator 16.0.0, SVG Export Plug-In . SVG Version: 6.00 Build 0)  -->
<!DOCTYPE svg PUBLIC "-//W3C//DTD SVG 1.1//EN" "http://www.w3.org/Graphics/SVG/1.1/DTD/svg11.dtd">
<svg version="1.1" id="Layer_1" xmlns="http://www.w3.org/2000/svg" xmlns:xlink="http://www.w3.org/1999/xlink" x="0px" y="0px"
	 width="52px" height="55px" viewBox="0 0 52 55" enable-background="new 0 0 52 55" xml:space="preserve">
<title>Page 1</title>
<desc>Created with Sketch.</desc>
<g id="Page-1_1_">
	<g id="Support-" transform="translate(-438.000000, -2490.000000)">
		<rect display="none" fill="#FFFFFF" width="1440" height="3047"/>
		<g id="Group-17" transform="translate(412.000000, 2474.000000)">
			<g id="Page-1" transform="translate(26.000000, 16.000000)">
				<path id="Fill-1" fill="#1F3D7C" d="M51.641,3.122c-0.365-0.226-0.857-0.128-1.094,0.217l-2.419,3.506
					c-0.237,0.346-0.136,0.808,0.231,1.033C48.494,7.959,48.643,8,48.791,8c0.257,0,0.511-0.12,0.663-0.339l2.419-3.508
					C52.109,3.809,52.006,3.345,51.641,3.122"/>
				<path id="Fill-3" fill="#35ABE1" d="M49.211,21.994c-0.818,4.992-3.66,10.397-4.455,11.841h-2.234l2.471-11.561
					c0.074-0.343-0.1-0.693-0.416-0.84c-0.316-0.149-0.693-0.055-0.906,0.224c-0.012,0.017-1.264,1.614-3.787,1.614
					c-0.019,0-0.036,0-0.053,0.001c-0.018-0.001-0.035-0.001-0.053-0.001c-2.49,0-3.74-1.553-3.789-1.614
					c-0.213-0.278-0.59-0.373-0.906-0.224c-0.316,0.147-0.488,0.498-0.416,0.84l2.473,11.561h-2.237
					c-0.795-1.442-3.635-6.844-4.452-11.841c-0.475-2.902-0.291-4.854-0.055-5.98c0.126-0.603,0.281-1.038,0.404-1.323
					c0.124-0.285,0.215-0.418,0.215-0.418c0.028-0.039,0.055-0.083,0.076-0.126c0.102-0.217,2.604-5.342,8.74-5.342
					c6.136,0,8.637,5.125,8.74,5.341c0.021,0.045,0.04,0.079,0.068,0.119c0.006,0.005,0.371,0.544,0.627,1.75
					C49.502,17.14,49.684,19.092,49.211,21.994z M44.445,44.935l-2.957,2.558h-1.605c-0.019,0-0.036,0-0.053,0.002
					c-0.018-0.002-0.035-0.002-0.053-0.002H38.17l-2.956-2.558v-2.562h9.231V44.935z M35.214,40.867h9.231v-1.604h-9.231V40.867z
					 M38.064,35.339h1.713c0.018,0,0.035,0,0.053-0.001c0.017,0.001,0.034,0.001,0.053,0.001h1.713h2.85v2.421h-9.231v-2.421H38.064
					z M39.777,24.775c0.018,0,0.035,0,0.053-0.001c0.017,0.001,0.034,0.001,0.053,0.001c1.345,0,2.418-0.36,3.216-0.792
					l-2.106,9.852h-1.109c-0.019,0-0.036,0-0.053,0.001c-0.018-0.001-0.035-0.001-0.053-0.001h-1.109l-2.106-9.852
					C37.359,24.416,38.432,24.775,39.777,24.775z M10.172,46.797c1.622-1.34,2.811-3.138,3.391-5.146
					c0.728-2.521,0.604-5.656-0.308-7.806c-0.398-0.938-0.92-1.792-1.377-2.501c-0.02-0.031-0.037-0.06-0.056-0.088
					c2.359-3.579,4.598-6.42,6.567-8.642c2.045-2.305,3.801-3.94,5.101-5.036c-1.857,4.35-2.446,8.535-2.481,10.413
					c-0.022,1.304-0.006,2.628,0.014,3.866c0.01,0.58,0.029,1.164,0.048,1.73c0.04,1.22,0.082,2.48,0.029,3.709
					c-0.043,1.002-0.143,1.87-0.302,2.656c-0.567,2.771-2.396,6.172-4.794,7.309c-0.905,0.431-1.923,0.584-2.8,0.677h-0.001
					c-0.09,0.011-0.178,0.015-0.267,0.015C11.869,47.953,10.821,47.301,10.172,46.797z M5.612,34.526
					c-0.022-0.595-0.026-0.887-0.027-1.043c-0.003-0.224-0.006-0.278-0.046-0.468c-0.038-0.184-0.159-0.744-0.495-3.211
					c-0.312-2.293-1.022-4.409-1.737-6.084c0.578,0.534,1.182,1.103,1.768,1.667c0.019,0.019,0.039,0.037,0.057,0.057
					c0.755,0.731,1.47,1.453,2.034,2.078c0.835,0.928,1.654,1.977,2.524,3.237c0.01,0.017,0.021,0.03,0.033,0.045
					c0.188,0.273,0.377,0.558,0.572,0.854c0.009,0.012,0.019,0.025,0.027,0.041c0.099,0.15,0.2,0.305,0.302,0.462
					c0.422,0.659,0.901,1.442,1.256,2.278c0.774,1.821,0.875,4.615,0.247,6.793c-0.51,1.771-1.578,3.352-3.036,4.512
					c-0.562-0.673-1.551-1.958-2.243-3.41C5.815,40.16,5.698,36.904,5.612,34.526z M5.895,24.089v-1.857h3.678v1.911H5.948H5.946
					L5.895,24.089z M9.648,4.733c0.572-0.609,1.187-0.988,1.864-1.144v2.863H10.32H8.468C8.829,5.761,9.223,5.185,9.648,4.733z
					 M16.047,6.452h-1.851h-1.191V3.589c0.675,0.156,1.29,0.535,1.863,1.144C15.31,5.204,15.702,5.788,16.047,6.452z M11.067,24.143
					h2.383v-1.911h-2.383V24.143z M5.887,20.256c-0.006-0.172-0.001-0.82,0.047-1.773h3.638v2.245H5.895v-0.379
					C5.895,20.317,5.891,20.286,5.887,20.256z M9.572,11.442v2.106H6.423c0.114-0.739,0.24-1.441,0.382-2.106H9.572z M14.944,22.232
					h1.772l-1.682,1.911h-0.09V22.232z M11.067,20.728h2.383v-2.245h-2.383V20.728z M11.066,16.979h2.383v-1.925h-2.383V16.979z
					 M14.944,16.979v-1.925h3.354c0.083,0.68,0.146,1.329,0.195,1.925H14.944z M18.634,20.051l-0.595,0.677h-3.095v-2.245h3.649
					C18.628,19.176,18.638,19.721,18.634,20.051z M18.089,13.548h-3.145v-2.106h2.761C17.855,12.146,17.982,12.854,18.089,13.548z
					 M11.067,13.548h2.383v-2.106h-2.383V13.548z M6.22,15.054h3.353v1.925H6.03C6.078,16.385,6.139,15.736,6.22,15.054z
					 M16.713,7.958c0.239,0.627,0.446,1.295,0.631,1.979h-2.4V7.958H16.713z M12.259,7.958h1.189v1.979h-2.381V7.958H12.259z
					 M7.799,7.958h1.773v1.979H7.166C7.358,9.221,7.569,8.561,7.799,7.958z M11.067,25.647h2.381v0.674
					c-0.773,1.039-1.569,2.16-2.381,3.365V25.647z M8.273,26.51c-0.247-0.274-0.519-0.563-0.809-0.863h2.107v2.414
					C9.139,27.505,8.708,26.992,8.273,26.51z M39.83,7.3c-6.824,0-9.742,5.494-10.066,6.147c-0.296,0.459-1.73,3.042-0.79,8.792
					c0.913,5.588,4.117,11.439,4.745,12.55v3.723v3.109v3.658c0,0.219,0.095,0.429,0.26,0.571l3.428,2.964
					c0.133,0.118,0.307,0.184,0.486,0.184h1.137v4.498h-25v-4.143c0.814-0.115,1.746-0.318,2.611-0.729
					c2.976-1.41,5-5.327,5.621-8.369c0.175-0.862,0.284-1.811,0.33-2.895c0.056-1.283,0.014-2.574-0.028-3.822
					c-0.018-0.563-0.036-1.141-0.046-1.709c-0.021-1.223-0.038-2.529-0.015-3.812c0.04-2.155,0.863-7.553,3.693-12.55
					c0.169-0.296,0.117-0.667-0.123-0.908c-0.24-0.24-0.611-0.288-0.903-0.115c-0.146,0.087-2.091,1.255-5.084,4.186
					c-0.012-0.289-0.03-0.618-0.052-0.978c-0.006-0.098-0.014-0.198-0.021-0.299c-0.06-0.85-0.155-1.928-0.312-3.111
					c-0.004-0.03-0.009-0.063-0.014-0.095c-0.001-0.001-0.001-0.004-0.001-0.005c-0.135-1.032-0.32-2.138-0.561-3.243
					c-0.027-0.12-0.055-0.242-0.082-0.36c-0.001-0.005-0.001-0.01-0.004-0.014c-0.316-1.37-0.69-2.577-1.121-3.618
					C16.571,3.648,14.677,2,12.259,2c-2.42,0-4.316,1.648-5.661,4.91c-0.433,1.044-0.807,2.254-1.125,3.628
					c-0.027,0.119-0.055,0.241-0.082,0.364c-0.245,1.116-0.429,2.234-0.566,3.275c-0.004,0.022-0.006,0.045-0.01,0.067
					c-0.155,1.183-0.252,2.261-0.312,3.111c-0.009,0.101-0.015,0.201-0.02,0.299c-0.052,0.808-0.075,1.449-0.084,1.86
					c-0.01,0.359-0.016,0.626,0.001,0.834L4.399,21.48v1.207c-1.638-1.514-3.06-2.746-3.165-2.837
					c-0.283-0.245-0.702-0.244-0.982,0.006c-0.279,0.249-0.334,0.667-0.126,0.981c0.027,0.041,2.767,4.232,3.437,9.168
					c0.344,2.527,0.469,3.109,0.515,3.328c0.005,0.021,0.007,0.038,0.01,0.039c0.001,0.03,0.001,0.065,0.001,0.132
					c0.004,0.162,0.006,0.465,0.029,1.076c0.092,2.509,0.216,5.946,1.384,8.4c1.114,2.343,2.863,4.214,2.939,4.292
					c0.001,0.002,0.005,0.005,0.006,0.006c0.004,0.004,0.009,0.01,0.015,0.016c0.19,0.196,1.958,1.936,4.072,2.141v4.813
					c0,0.416,0.334,0.752,0.748,0.752h26.496c0.412,0,0.746-0.336,0.746-0.752v-5.25h1.244c0.178,0,0.35-0.065,0.486-0.184
					l3.426-2.964c0.166-0.143,0.26-0.353,0.26-0.571v-3.658v-3.109v-3.723c0.63-1.111,3.831-6.962,4.746-12.55
					c0.938-5.75-0.494-8.333-0.79-8.792C49.572,12.793,46.654,7.3,39.83,7.3z"/>
				<g id="Group-7" transform="translate(38.000000, 0.000000)">
					<g id="Clip-6">
					</g>
					<defs>
						<filter id="Adobe_OpacityMaskFilter" filterUnits="userSpaceOnUse" x="0.476" y="0.018" width="1.204" height="5.493">
							<feColorMatrix  type="matrix" values="1 0 0 0 0  0 1 0 0 0  0 0 1 0 0  0 0 0 1 0"/>
						</filter>
					</defs>
					<mask maskUnits="userSpaceOnUse" x="0.476" y="0.018" width="1.204" height="5.493" id="mask-2">
						<g filter="url(#Adobe_OpacityMaskFilter)">
							<polygon id="path-1" fill="#FFFFFF" points="0.476,0.018 1.68,0.018 1.68,5.51 0.476,5.51 							"/>
						</g>
					</mask>
					<path id="Fill-5" mask="url(#mask-2)" fill="#1F3D7C" d="M1.077,5.51c0.332,0,0.603-0.323,0.603-0.723V0.74
						c0-0.397-0.271-0.723-0.603-0.723c-0.331,0-0.602,0.325-0.602,0.723v4.047C0.476,5.187,0.746,5.51,1.077,5.51"/>
				</g>
				<path id="Fill-8" fill="#1F3D7C" d="M30.545,7.661C30.697,7.881,30.951,8,31.209,8c0.15,0,0.299-0.04,0.432-0.122
					c0.366-0.225,0.47-0.687,0.23-1.032l-2.418-3.507c-0.238-0.346-0.729-0.443-1.095-0.218c-0.365,0.225-0.468,0.688-0.231,1.033
					L30.545,7.661z"/>
			</g>
		</g>
	</g>
</g>
</svg>
