<?xml version="1.0" encoding="UTF-8"?>
<svg width="181px" height="45px" viewBox="0 0 181 45" version="1.1" xmlns="http://www.w3.org/2000/svg" xmlns:xlink="http://www.w3.org/1999/xlink">
    <!-- Generator: Sketch 51 (57462) - http://www.bohemiancoding.com/sketch -->
    <title>Logo</title>
    <desc>Created with Sketch.</desc>
    <defs>
        <polygon id="path-1" points="0.0191197183 0.00446808511 177.639391 0.00446808511 177.639391 45 0.0191197183 45"></polygon>
    </defs>
    <g id="Symbols" stroke="none" stroke-width="1" fill="none" fill-rule="evenodd">
        <g id="Footer" transform="translate(-1184.000000, -276.000000)">
            <g id="Logo" transform="translate(1184.000000, 276.000000)">
                <g>
                    <path d="M75.3173504,6.71521277 L74.0331426,8.17308511 C72.2349331,6.2862766 69.9230405,5.34287234 67.1401655,5.34287234 C64.528412,5.34287234 62.3022394,6.24351064 60.5467306,8.04414894 C58.7915405,9.80234043 57.9352958,12.0319149 57.9352958,14.6907447 C57.9352958,17.3489362 58.7915405,19.5785106 60.5467306,21.3794681 C62.3022394,23.1376596 64.528412,24.0379787 67.1401655,24.0379787 C69.9230405,24.0379787 72.2349331,23.0948936 74.0331426,21.2080851 L75.3173504,22.6659574 C73.2195986,24.9382979 70.479743,26.0537234 67.1401655,26.0537234 C63.9293275,26.0537234 61.2318539,24.981383 59.048382,22.7948936 C56.8649102,20.607766 55.7945246,17.9064894 55.7945246,14.6907447 C55.7945246,11.4746809 56.8649102,8.77340426 59.048382,6.5862766 C61.2318539,4.39946809 63.9293275,3.32776596 67.1401655,3.32776596 C70.479743,3.32776596 73.2195986,4.44255319 75.3173504,6.71521277" id="Fill-1" fill="#FFFFFF"></path>
                    <path d="M81.5685423,8.04414894 C79.8987535,9.80234043 79.0852095,12.0319149 79.0852095,14.6907447 C79.0852095,17.3489362 79.8987535,19.5785106 81.5685423,21.3794681 C83.2380123,23.1376596 85.293382,24.0379787 87.8190968,24.0379787 C90.3451303,24.0379787 92.4001813,23.1807447 94.0699701,21.4225532 C95.7397588,19.6643617 96.5960035,17.3917021 96.5960035,14.6907447 C96.5960035,11.9891489 95.7397588,9.75957447 94.0699701,8.00138298 C92.4001813,6.24351064 90.3451303,5.34287234 87.8190968,5.34287234 C85.3360827,5.34287234 83.2380123,6.24351064 81.5685423,8.04414894 Z M93.2994454,4.82840426 C94.8835141,5.81457447 95.9108803,6.97212766 96.3818627,8.38755319 L96.3818627,3.885 L98.5226338,3.885 L98.5226338,21.4656383 C98.5226338,23.3093617 98.9936162,24.0810638 100.320525,24.0810638 C100.791826,24.0810638 101.219789,24.0379787 101.519331,23.9524468 L101.519331,25.6247872 C101.091368,25.8392553 100.491965,25.9247872 99.7211215,25.9247872 C97.5376496,25.9247872 96.4672641,24.5524468 96.4672641,21.7656383 L96.4672641,21.0367021 C95.0546356,24.0810638 91.9291989,26.0537234 87.8190968,26.0537234 C84.7793803,26.0537234 82.1676268,24.981383 80.069875,22.7948936 C77.9721232,20.607766 76.9444384,17.9064894 76.9444384,14.6907447 C76.9444384,11.4746809 77.9721232,8.77340426 80.069875,6.5862766 C82.1676268,4.39946809 84.7793803,3.32776596 87.8190968,3.32776596 C89.9168486,3.32776596 91.7150581,3.84223404 93.2994454,4.82840426 Z" id="Fill-2" fill="#FFFFFF"></path>
                    <path d="M103.78916,25.4958511 L103.78916,3.885 L105.929931,3.885 L105.929931,8.04414894 C107.043018,5.04287234 109.26919,3.54191489 112.566067,3.54191489 C115.862625,3.54191489 118.474379,5.64319149 119.201884,8.60170213 C120.186868,5.51457447 122.755602,3.54191489 126.480442,3.54191489 C130.975488,3.54191489 133.715662,6.80074468 133.715662,12.1605319 L133.715662,21.2511702 C133.715662,23.0087234 134.143944,23.6952128 135.385451,23.6952128 C135.51419,23.6952128 135.813732,23.6521277 136.284715,23.6093617 L136.284715,25.4103191 C135.941835,25.5389362 135.51419,25.6247872 135.042889,25.6247872 C132.730996,25.6247872 131.574891,24.2096809 131.574891,21.4225532 L131.574891,12.5894681 C131.574891,8.25861702 129.477139,5.55734043 126.05216,5.55734043 C122.28462,5.55734043 119.929708,8.81617021 119.929708,13.6614894 L119.929708,25.4958511 L117.789255,25.4958511 L117.789255,12.5894681 C117.789255,8.25861702 115.605783,5.55734043 112.137785,5.55734043 C108.370245,5.55734043 105.929931,8.85893617 105.929931,13.8759574 L105.929931,25.4958511 L103.78916,25.4958511" id="Fill-3" fill="#FFFFFF"></path>
                    <path d="M156.707761,6.71521277 L155.423553,8.17308511 C153.625662,6.2862766 151.313451,5.34287234 148.530576,5.34287234 C145.918822,5.34287234 143.69265,6.24351064 141.93746,8.04414894 C140.181951,9.80234043 139.325706,12.0319149 139.325706,14.6907447 C139.325706,17.3489362 140.181951,19.5785106 141.93746,21.3794681 C143.69265,23.1376596 145.918822,24.0379787 148.530576,24.0379787 C151.313451,24.0379787 153.625662,23.0948936 155.423553,21.2080851 L156.707761,22.6659574 C154.610009,24.9382979 151.870153,26.0537234 148.530576,26.0537234 C145.319419,26.0537234 142.622264,24.981383 140.438792,22.7948936 C138.25532,20.607766 137.185254,17.9064894 137.185254,14.6907447 C137.185254,11.4746809 138.25532,8.77340426 140.438792,6.5862766 C142.622264,4.39946809 145.319419,3.32776596 148.530576,3.32776596 C151.870153,3.32776596 154.610009,4.44255319 156.707761,6.71521277" id="Fill-4" fill="#FFFFFF"></path>
                    <path d="M160.432919,14.6907447 C160.432919,17.3489362 161.288845,19.5785106 163.044354,21.3794681 C164.799863,23.1376596 167.026035,24.0379787 169.637789,24.0379787 C172.249224,24.0379787 174.433014,23.1376596 176.188204,21.3794681 C177.943394,19.5785106 178.84234,17.3489362 178.84234,14.6907447 C178.84234,12.0319149 177.943394,9.80234043 176.188204,8.04414894 C174.433014,6.24351064 172.249224,5.34287234 169.637789,5.34287234 C167.026035,5.34287234 164.799863,6.24351064 163.044354,8.04414894 C161.288845,9.80234043 160.432919,12.0319149 160.432919,14.6907447 Z M158.292148,14.6907447 C158.292148,11.4746809 159.362533,8.77340426 161.546005,6.5862766 C163.729477,4.39946809 166.426951,3.32776596 169.637789,3.32776596 C172.848945,3.32776596 175.503081,4.39946809 177.686553,6.5862766 C179.870025,8.77340426 180.983111,11.4746809 180.983111,14.6907447 C180.983111,17.9064894 179.870025,20.607766 177.686553,22.7948936 C175.503081,24.981383 172.848945,26.0537234 169.637789,26.0537234 C166.426951,26.0537234 163.729477,24.981383 161.546005,22.7948936 C159.362533,20.607766 158.292148,17.9064894 158.292148,14.6907447 Z" id="Fill-5" fill="#FFFFFF"></path>
                    <path d="M65.5207254,35.3620213 L64.6294278,36.1289362 C64.1055475,35.5305319 63.4344454,35.2362766 62.6272746,35.2362766 C61.8933961,35.2362766 61.2748732,35.4884043 60.7822218,35.9818085 C60.2895704,36.4752128 60.0483433,37.0946809 60.0483433,37.8402128 C60.0483433,38.5857447 60.2895704,39.2048936 60.7822218,39.6982979 C61.2748732,40.1920213 61.8933961,40.433617 62.6272746,40.433617 C63.4554771,40.433617 64.1367764,40.1291489 64.6504595,39.5202128 L65.5312412,40.2864894 C64.8183944,41.1264894 63.7699965,41.6198936 62.6272746,41.6198936 C61.5473292,41.6198936 60.6248028,41.2630851 59.8702113,40.5488298 C59.1258169,39.8246809 58.7485211,38.9218085 58.7485211,37.8402128 C58.7485211,36.758617 59.1258169,35.8557447 59.8702113,35.1312766 C60.6248028,34.4068085 61.5473292,34.05 62.6272746,34.05 C63.7910282,34.05 64.7552993,34.4907447 65.5207254,35.3620213" id="Fill-6" fill="#FFFFFF"></path>
                    <polyline id="Fill-7" fill="#FFFFFF" points="70.3764965 41.4938298 70.3764965 34.1760638 71.6868345 34.1760638 71.6868345 40.3075532 74.5908011 40.3075532 74.5908011 41.4938298 70.3764965 41.4938298"></polyline>
                    <polyline id="Fill-8" fill="#FFFFFF" points="79.5090299 41.4938298 79.5090299 34.1760638 84.1634067 34.1760638 84.1634067 35.3620213 80.819368 35.3620213 80.819368 37.1052128 83.9537271 37.1052128 83.9537271 38.2914894 80.819368 38.2914894 80.819368 40.3075532 84.2370176 40.3075532 84.2370176 41.4938298 79.5090299 41.4938298"></polyline>
                    <path d="M91.1159736,38.9530851 L93.5480018,38.9530851 L92.3319877,35.9712766 L91.1159736,38.9530851 Z M88.7256901,41.4938298 L91.7762412,34.1760638 L92.8874155,34.1760638 L95.9382852,41.4938298 L94.5543363,41.4938298 L93.9568451,40.0343617 L90.7068116,40.0343617 L90.1093204,41.4938298 L88.7256901,41.4938298 Z" id="Fill-9" fill="#FFFFFF"></path>
                    <polyline id="Fill-10" fill="#FFFFFF" points="100.762509 41.4938298 100.762509 34.1760638 101.915746 34.1760638 105.783984 39.2578723 105.783984 34.1760638 107.052259 34.1760638 107.052259 41.4938298 105.983148 41.4938298 102.030783 36.3178723 102.030783 41.4938298 100.762509 41.4938298"></polyline>
                    <polyline id="Fill-11" fill="#FFFFFF" points="118.807699 41.4938298 118.807699 34.1760638 123.462076 34.1760638 123.462076 35.3620213 120.118037 35.3620213 120.118037 37.1052128 123.252396 37.1052128 123.252396 38.2914894 120.118037 38.2914894 120.118037 40.3075532 123.535687 40.3075532 123.535687 41.4938298 118.807699 41.4938298"></polyline>
                    <polyline id="Fill-12" fill="#FFFFFF" points="128.642563 41.4938298 128.642563 34.1760638 129.795801 34.1760638 133.664039 39.2578723 133.664039 34.1760638 134.932313 34.1760638 134.932313 41.4938298 133.863202 41.4938298 129.911157 36.3178723 129.911157 41.4938298 128.642563 41.4938298"></polyline>
                    <polyline id="Fill-13" fill="#FFFFFF" points="140.323118 41.4938298 140.323118 34.1760638 144.977813 34.1760638 144.977813 35.3620213 141.633775 35.3620213 141.633775 37.1052128 144.768134 37.1052128 144.768134 38.2914894 141.633775 38.2914894 141.633775 40.3075532 145.051106 40.3075532 145.051106 41.4938298 140.323118 41.4938298"></polyline>
                    <path d="M151.468958,37.7141489 L152.863104,37.7141489 C153.575951,37.7141489 154.068602,37.2207447 154.068602,36.5173404 C154.068602,35.8452128 153.596982,35.3620213 152.967944,35.3620213 L151.468958,35.3620213 L151.468958,37.7141489 Z M150.15862,41.4938298 L150.15862,34.1760638 L152.999491,34.1760638 C153.660077,34.1760638 154.215505,34.3962766 154.676609,34.8478723 C155.138032,35.2889362 155.368743,35.8346809 155.368743,36.4962766 C155.368743,37.4514894 154.834347,38.2391489 154.037373,38.5752128 L155.808815,41.4938298 L154.330861,41.4938298 L152.76878,38.8902128 L151.468958,38.8902128 L151.468958,41.4938298 L150.15862,41.4938298 Z" id="Fill-14" fill="#FFFFFF"></path>
                    <path d="M166.724262,35.1523404 L165.854315,35.9502128 C165.361664,35.4778723 164.753657,35.2362766 164.009262,35.2362766 C163.275384,35.2362766 162.656542,35.4884043 162.16421,35.9818085 C161.671558,36.4752128 161.430331,37.0946809 161.430331,37.8402128 C161.430331,38.5857447 161.671558,39.2048936 162.16421,39.6982979 C162.656542,40.1920213 163.275384,40.433617 164.009262,40.433617 C164.701077,40.433617 165.288053,40.223617 165.759991,39.8032979 L165.759991,38.4596809 L163.725972,38.4596809 L163.725972,37.2941489 L166.997037,37.2941489 L166.997037,40.2443617 C166.294387,41.0948936 165.214761,41.6198936 164.009262,41.6198936 C162.929317,41.6198936 162.00679,41.2630851 161.25188,40.5488298 C160.507486,39.8246809 160.13019,38.9218085 160.13019,37.8402128 C160.13019,36.758617 160.507486,35.8557447 161.25188,35.1312766 C162.00679,34.4068085 162.929317,34.05 164.009262,34.05 C165.088889,34.05 165.990384,34.4173404 166.724262,35.1523404" id="Fill-15" fill="#FFFFFF"></path>
                    <g id="Group-19"></g>
                    <mask id="mask-2" fill="white">
                        <use xlink:href="#path-1"></use>
                    </mask>
                    <g id="Clip-17"></g>
                    <polyline id="Fill-16" fill="#FFFFFF" mask="url(#mask-2)" points="173.708058 41.4938298 173.708058 38.6591489 171.076548 34.1760638 172.492044 34.1760638 174.368326 37.3991489 176.234729 34.1760638 177.639391 34.1760638 175.00788 38.6591489 175.00788 41.4938298 173.708058 41.4938298"></polyline>
                    <path d="M23.0166356,4.44989362 L26.47125,12.8026596 L34.8125458,9.34212766 L31.3579313,0.989680851 L23.0166356,4.44989362 Z M10.0990352,9.3456383 L18.4387377,12.8055319 L21.8939894,4.45148936 L13.5539683,0.991914894 L10.0990352,9.3456383 Z M19.1442553,13.3605319 L22.4561092,21.3682979 L25.7631831,13.3720213 L22.4513292,5.36457447 L19.1442553,13.3605319 Z M26.5706725,13.6876596 L23.2591373,21.6947872 L31.2546849,18.3781915 L34.5662201,10.3707447 L26.5706725,13.6876596 Z M13.6623134,18.3884043 L21.6457518,21.7002128 L18.3335792,13.6924468 L10.3507782,10.3809574 L13.6623134,18.3884043 Z M32.1453451,18.4815957 L40.4863222,21.9418085 L43.9409366,13.5896809 L35.5996408,10.1291489 L32.1453451,18.4815957 Z M0.984028169,13.5941489 L4.43896127,21.9481915 L12.7710158,18.4914894 L9.31608275,10.137766 L0.984028169,13.5941489 Z M23.5956444,22.4948936 L31.5911919,25.8118085 L39.5864208,22.4948936 L31.5908732,19.1782979 L23.5956444,22.4948936 Z M5.34077465,22.5092553 L13.3356849,25.8258511 L21.3312324,22.5092553 L13.3353662,19.1926596 L5.34077465,22.5092553 Z M26.5808697,31.3065957 L34.5757799,34.6235106 L31.2636074,26.6154255 L23.2686972,23.2985106 L26.5808697,31.3065957 Z M13.6718732,26.6256383 L10.360338,34.6330851 L18.3558856,31.3161702 L21.6683768,23.3087234 L13.6718732,26.6256383 Z M32.148213,26.5155319 L35.6031461,34.8698936 L43.9425299,31.41 L40.4875968,23.0562766 L32.148213,26.5155319 Z M0.985621479,31.4147872 L9.32723592,34.875 L12.7818504,26.5225532 L4.44023592,23.0620213 L0.985621479,31.4147872 Z M19.1585951,31.6439362 L22.4701303,39.6510638 L25.7819842,31.6432979 L22.4704489,23.6355319 L19.1585951,31.6439362 Z M23.0223715,40.5526596 L31.3623926,44.0125532 L34.8173257,35.6585106 L26.4779419,32.1989362 L23.0223715,40.5526596 Z M10.1140123,35.6617021 L13.5686268,44.0144681 L21.9102412,40.5542553 L18.4562641,32.2014894 L10.1140123,35.6617021 Z M13.3379155,45 C13.1709366,45 13.0116056,44.9007447 12.9437306,44.736383 L9.23131866,35.7603191 L0.264808099,32.0406383 C0.160286972,31.997234 0.0774348592,31.9142553 0.034096831,31.8092553 C-0.00924119718,31.7045745 -0.00924119718,31.5871277 0.034096831,31.4824468 L3.7465088,22.506383 L0.0325035211,13.5264894 C-0.0573591549,13.3081915 0.0458873239,13.0582979 0.263214789,12.9682979 L9.21315493,9.2556383 L12.9293908,0.27 C13.0192535,0.0517021277 13.2694032,-0.0517021277 13.4867306,0.0389361702 L22.4535599,3.75861702 L31.4254877,0.0367021277 C31.6421778,-0.0529787234 31.8923275,0.050106383 31.9828275,0.268085106 L35.6952394,9.24414894 L44.66175,12.9638298 C44.8790775,13.0538298 44.9823239,13.3037234 44.8924613,13.5220213 L41.1800493,22.4980851 L44.8940546,31.4776596 C44.9839173,31.6959574 44.8806708,31.9458511 44.6633433,32.0358511 L35.701294,35.753617 L31.9872887,44.7341489 C31.8971074,44.9518085 31.6466391,45.0548936 31.4299489,44.9652128 L22.4682183,41.247766 L13.5010704,44.9674468 C13.4478539,44.9894681 13.3924067,45 13.3379155,45 Z" id="Fill-18" fill="#FFFFFF" mask="url(#mask-2)"></path>
                </g>
            </g>
        </g>
    </g>
</svg>