<?xml version="1.0" encoding="UTF-8"?>
<svg width="78px" height="68px" viewBox="0 0 78 68" version="1.1" xmlns="http://www.w3.org/2000/svg" xmlns:xlink="http://www.w3.org/1999/xlink">
    <!-- Generator: Sketch 51 (57462) - http://www.bohemiancoding.com/sketch -->
    <title>Page 1</title>
    <desc>Created with Sketch.</desc>
    <defs>
        <polygon id="path-1" points="0 0 77 0 77 68 0 68"></polygon>
    </defs>
    <g id="Page-1" stroke="none" stroke-width="1" fill="none" fill-rule="evenodd">
        <g id="Home" transform="translate(-701.000000, -918.000000)">
            <rect fill="#FFFFFF" x="0" y="0" width="1440" height="2711"></rect>
            <g id="Page-1" transform="translate(701.500000, 918.000000)">
                <mask id="mask-2" fill="white">
                    <use xlink:href="#path-1"></use>
                </mask>
                <g id="Clip-2"></g>
                <path d="M61.0280577,52.498721 C59.2850947,52.498721 57.6708535,52.3833354 56.2044684,52.1749525 C55.6008675,52.090566 55.0233588,51.9924022 54.4684634,51.8821831 C54.1362219,51.8150184 53.8161569,51.7426871 53.5013103,51.6634671 C53.1308002,51.5773585 52.7689875,51.4809168 52.4176117,51.3758643 C50.7598834,50.895378 49.4291782,50.2908953 48.4881173,49.6623021 C48.2654633,49.5159174 48.0567253,49.3643662 47.8775584,49.2110928 C48.0741201,49.2782576 48.2776397,49.3454223 48.4881173,49.4125871 C48.8447115,49.5296948 49.2204401,49.6381917 49.608345,49.7363556 L49.608345,49.7415221 C50.9877558,50.1083449 52.5098044,50.3942257 54.1414404,50.5716095 C54.2458094,50.5836647 54.3571364,50.5957199 54.4684634,50.6077751 C55.0355352,50.6697733 55.6130439,50.7111055 56.2044684,50.7421046 C56.8706908,50.7782702 57.5473501,50.7972141 58.2309673,50.7972141 C65.8255546,50.7972141 72.1711923,48.5962771 73.790652,45.6496391 C74.7090995,46.3092314 75.206592,46.9860453 75.206592,47.5767507 C75.206592,49.5830822 69.6819907,52.498721 61.0280577,52.498721 Z M75.206592,53.254755 C75.206592,53.7541851 74.8621741,54.310447 74.2098676,54.8649867 L74.2098676,51.3155882 C74.5734198,51.0968722 74.9056612,50.8643789 75.206592,50.6198303 L75.206592,53.254755 Z M73.0078842,55.6812967 C72.6512899,55.8827909 72.2442507,56.0791187 71.8076402,56.2668355 L71.8076402,52.4505002 C72.2320743,52.2920603 72.6321556,52.1267317 73.0078842,51.9441813 L73.0078842,55.6812967 Z M70.6126146,56.7369887 C70.2299282,56.8644295 69.8368048,56.9935925 69.4175891,57.1158668 L69.4175891,53.2065341 C69.8298468,53.0963151 70.2247097,52.986096 70.6126146,52.8638217 L70.6126146,56.7369887 Z M69.4175891,61.3834114 C69.4175891,61.8845638 69.0662133,62.4391035 68.4191253,62.9936432 L68.4191253,59.4511333 C68.6904848,59.2858047 68.94271,59.1084209 69.1775403,58.9379258 C69.2575566,58.9207041 69.3375729,58.8948715 69.4175891,58.8776497 L69.4175891,61.3834114 Z M68.2156057,57.4138027 C67.8346587,57.5050779 67.4345773,57.5842978 67.0205801,57.6583513 L67.0205801,53.712853 C67.4276194,53.6456882 67.8277007,53.5664683 68.2156057,53.4872483 L68.2156057,57.4138027 Z M67.2188813,63.8168418 C66.8605476,64.0114474 66.4552478,64.2077751 66.0238558,64.395492 L66.0238558,60.5843232 C66.4430714,60.4258832 66.8431528,60.2553881 67.2188813,60.0780043 L67.2188813,63.8168418 Z M65.8203361,57.8460681 C65.3698098,57.9080664 64.9018886,57.9631759 64.421791,58.0062302 L64.421791,54.041788 C64.8966701,53.9987337 65.3645913,53.9505129 65.8203361,53.8954033 L65.8203361,57.8460681 Z M64.8218723,64.8656452 C64.4409253,64.9999747 64.0460624,65.122249 63.6268468,65.2445232 L63.6268468,61.3351906 C64.040844,61.2318602 64.4339674,61.1147524 64.8218723,60.9942003 L64.8218723,64.8656452 Z M63.2267655,58.0975054 C62.7031808,58.1267823 62.1743776,58.1457262 61.6316586,58.1577814 L61.6316586,54.1881727 C62.1674197,54.1761175 62.7031808,54.1571736 63.2267655,54.1261745 L63.2267655,58.0975054 Z M58.8345683,58.0975054 L58.8345683,54.1261745 C59.358153,54.1571736 59.8886956,54.1761175 60.4314146,54.1881727 L60.4314146,58.1577814 C59.8817377,58.1457262 59.3529345,58.1267823 58.8345683,58.0975054 Z M56.2357792,57.8460681 L56.2357792,53.8954033 C56.691524,53.9505129 57.1594452,53.9987337 57.6343243,54.041788 L57.6343243,58.0062302 C57.1542267,57.9631759 56.691524,57.9080664 56.2357792,57.8460681 Z M50.2484751,56.2668355 C50.1754168,56.2375586 50.100619,56.1996708 50.0275607,56.1703938 C49.6692269,56.0119539 49.3439434,55.8466253 49.0534496,55.6812967 L49.0534496,52.7794352 L49.0534496,51.9441813 C49.4291782,52.1267317 49.8292595,52.2920603 50.2484751,52.4505002 L50.2484751,56.2668355 Z M53.8405096,54.1089528 L53.8405096,53.4872483 C53.9814079,53.5165253 54.1170876,53.5423579 54.2579858,53.5664683 C54.5171689,53.6215778 54.7763521,53.6697987 55.0407536,53.712853 L55.0407536,55.3093073 L55.0407536,57.6583513 C54.6284959,57.5842978 54.2284146,57.5050779 53.8405096,57.4138027 L53.8405096,56.2737242 L53.8405096,54.1089528 Z M51.4435007,56.7369887 L51.4435007,55.6692415 L51.4435007,52.8638217 C51.7392129,52.956819 52.0418832,53.0412055 52.3497718,53.1273142 C52.4471829,53.1514246 52.5463335,53.1824237 52.6454841,53.2065341 L52.6454841,56.9557047 L52.6454841,57.1158668 C52.5776442,57.0969229 52.5150228,57.077979 52.4471829,57.0538686 C52.0975466,56.9505382 51.7635657,56.8472078 51.4435007,56.7369887 Z M55.2373153,60.6273775 C51.0434193,60.6273775 47.5818461,59.945397 45.1361316,59.0050905 C43.9845931,58.5728251 43.0609271,58.0785615 42.3825284,57.5791313 C41.9093887,57.2312524 41.5632314,56.8764847 41.3423169,56.5354945 C41.1579316,56.2496138 41.0657389,55.9740661 41.0657389,55.7122958 C41.0657389,55.4505255 41.1579316,55.1749778 41.3423169,54.8890971 C41.5893236,54.5119412 41.989405,54.121008 42.5373424,53.7369634 L42.5443004,53.7369634 C43.1896489,53.2788654 44.0332987,52.8397113 45.0561153,52.4436115 L45.0561153,53.254755 C45.0561153,53.3460301 45.0630732,53.4373053 45.0682917,53.5285805 C45.1065603,53.9005698 45.2161478,54.260504 45.3953147,54.6083829 C45.6475399,55.1147018 46.0424027,55.6020767 46.5538111,56.0481195 C46.8860525,56.3460555 47.2669995,56.6336584 47.6983915,56.9023173 C48.3454796,57.3035836 49.0969367,57.6824617 49.9475444,58.0182854 C52.8107351,59.1635305 56.7228347,59.8713435 61.0280577,59.8713435 C61.5516423,59.8713435 62.0630506,59.8592883 62.567501,59.8403444 C60.504473,60.3173863 58.0413636,60.6273775 55.2373153,60.6273775 Z M62.4266028,65.5493479 C62.0439163,65.6337343 61.643835,65.7129543 61.2315773,65.7870077 L61.2315773,61.8415094 C61.6386165,61.7743447 62.0386979,61.6951247 62.4266028,61.6159048 L62.4266028,65.5493479 Z M60.0295938,65.9764468 C59.5808069,66.0367228 59.1128857,66.0918323 58.6327881,66.1400532 L58.6327881,62.1773332 C59.1059278,62.1342788 59.573849,62.0843358 60.0295938,62.0240598 L60.0295938,65.9764468 Z M57.4377626,66.2261618 C56.9193964,66.2554388 56.3836353,66.2812714 55.8356978,66.2864379 L55.8356978,62.3168292 C56.3784168,62.304774 56.9141779,62.2858301 57.4377626,62.2565531 L57.4377626,66.2261618 Z M54.6406723,66.2864379 C54.0927348,66.2812714 53.5621922,66.2554388 53.0455654,66.2261618 L53.0455654,62.2565531 C53.5691501,62.2858301 54.0979533,62.3099405 54.6406723,62.3168292 L54.6406723,66.2864379 Z M51.843582,66.1400532 C51.3634844,66.0918323 50.9025211,66.0367228 50.4467763,65.9764468 L50.4467763,62.0240598 C50.9077396,62.0843358 51.3704423,62.1342788 51.843582,62.1773332 L51.843582,66.1400532 Z M49.2517508,65.7870077 C48.8377536,65.7129543 48.4376723,65.6337343 48.0497673,65.5493479 L48.0497673,61.6159048 C48.4446302,61.6951247 48.8377536,61.7743447 49.2517508,61.8415094 L49.2517508,65.7870077 Z M46.8547418,65.2445232 C46.4303077,65.122249 46.0354448,64.9999747 45.6544978,64.8656452 L45.6544978,60.9942003 C46.0424027,61.1147524 46.4424841,61.2318602 46.8547418,61.3351906 L46.8547418,65.2445232 Z M44.4594723,64.395492 C44.0211223,64.2077751 43.6158225,64.0183361 43.2574888,63.8168418 L43.2574888,60.0780043 C43.6401753,60.2553881 44.0402566,60.4258832 44.4594723,60.5843232 L44.4594723,64.395492 Z M42.0624633,63.0005318 C41.4101568,62.4391035 41.0657389,61.8845638 41.0657389,61.3834114 L41.0657389,59.2668608 C41.2988298,59.2668608 41.5267022,59.2616943 41.7545746,59.2548056 C41.8537252,59.3219704 41.9580942,59.3839686 42.0624633,59.4511333 L42.0624633,63.0005318 Z M38.6391587,57.5532987 L38.6391587,53.7180195 C39.0757692,53.7421299 39.5193376,53.7610738 39.9681245,53.7679625 C39.5123797,54.3827783 39.2671125,55.0354818 39.2671125,55.7122958 L39.2671125,57.5842978 C39.0566349,57.5791313 38.8478968,57.5670761 38.6391587,57.5532987 Z M37.4806624,57.4689122 C37.0179596,57.4258579 36.5691727,57.3707484 36.1308228,57.3104723 L36.1308228,53.5905787 C36.1690914,53.5595796 36.1986626,53.5285805 36.2299733,53.5044701 C36.6370126,53.5544131 37.0544888,53.6026339 37.4806624,53.6387995 L37.4806624,57.4689122 Z M34.9740659,57.1330885 C34.5722451,57.0607572 34.1843401,56.9815373 33.8086116,56.8954286 L33.8086116,55.0423705 C34.2278272,54.8460428 34.6157322,54.639382 34.9740659,54.4137774 L34.9740659,57.1330885 Z M32.6518547,56.6026592 C32.4118059,56.5354945 32.1769756,56.4631632 31.9491031,56.3891098 L31.9491031,55.7915158 C32.1891519,55.7122958 32.4239823,55.6279093 32.6518547,55.534912 L32.6518547,56.6026592 Z M30.1504767,58.8294289 C30.1504767,59.3288591 29.8060588,59.8833988 29.1520128,60.4379385 L29.1520128,57.0900342 L29.1520128,56.8902621 C29.4233723,56.7249335 29.6755975,56.5544384 29.9156463,56.3839433 C29.9974021,56.3581107 30.0704604,56.3408889 30.1504767,56.321945 L30.1504767,57.5171331 L30.1504767,58.8294289 Z M27.9517689,61.2559706 C27.6003931,61.4574649 27.1881354,61.6520704 26.7567433,61.8415094 L26.7567433,58.0234519 C27.175959,57.865012 27.5760403,57.6996834 27.9517689,57.5240218 L27.9517689,61.2559706 Z M25.1616365,55.4505255 L25.1616365,51.4860833 C25.210342,51.4809168 25.2660055,51.4740281 25.3147111,51.4740281 C25.7339267,51.4309738 26.1461844,51.3896416 26.5532237,51.3396986 L26.5532237,55.2920856 C26.5288709,55.2972521 26.5045181,55.2972521 26.4732074,55.3041408 C26.0487733,55.3592503 25.6104233,55.4074712 25.1616365,55.4505255 Z M25.5547599,62.3099405 C25.1790313,62.4391035 24.77895,62.5665443 24.3614738,62.6819298 L24.3614738,58.7794859 C24.7737315,58.6761555 25.1738129,58.5607699 25.5547599,58.4384956 L25.5547599,62.3099405 Z M23.959653,55.5418007 C23.4430263,55.5727998 22.9124836,55.5900215 22.3645462,55.6020767 L22.3645462,51.6273015 C22.9072652,51.6204128 23.4360683,51.6014689 23.959653,51.572192 L23.959653,55.5418007 Z M15.9719423,58.0716728 C7.32322776,58.0716728 1.79862649,55.1577561 1.79862649,53.1514246 C1.79862649,52.1336204 3.23891926,50.8764341 5.78900285,49.8879068 L5.78900285,50.6938838 C5.78900285,54.3517792 12.9417612,57.3156389 21.7679031,57.3156389 C22.2845299,57.3156389 22.7959382,57.3035836 23.3003886,57.2794732 C21.2373605,57.7616817 18.7742511,58.0716728 15.9719423,58.0716728 Z M23.1664483,62.9867545 C22.7768039,63.0797518 22.3767225,63.1589718 21.9644648,63.231303 L21.9644648,59.2858047 C22.3715041,59.21864 22.7715854,59.13942 23.1664483,59.0602001 L23.1664483,62.9867545 Z M20.7642208,63.4207421 C20.3136945,63.4810181 19.8457733,63.5361276 19.3708941,63.579182 L19.3708941,59.6216285 C19.8388153,59.5785741 20.308476,59.5303533 20.7642208,59.4683551 L20.7642208,63.4207421 Z M18.1706502,63.6704571 C17.6522839,63.7014562 17.1165228,63.718678 16.5755433,63.7324554 L16.5755433,59.755958 C17.1113044,59.7490693 17.6470655,59.7318475 18.1706502,59.7008484 L18.1706502,63.6704571 Z M15.3735598,63.7324554 C14.8325803,63.718678 14.2968192,63.7014562 13.778453,63.6704571 L13.778453,59.7008484 C14.3020377,59.7318475 14.8377988,59.7490693 15.3735598,59.755958 L15.3735598,63.7324554 Z M12.578209,63.579182 C12.1033299,63.5361276 11.6354087,63.4810181 11.1848823,63.4207421 L11.1848823,59.4683551 C11.6406271,59.5303533 12.1085483,59.5785741 12.578209,59.6216285 L12.578209,63.579182 Z M9.98463832,63.231303 C9.57238061,63.1589718 9.1705598,63.0797518 8.7896128,62.9867545 L8.7896128,59.0602001 C9.17751773,59.13942 9.57759906,59.21864 9.98463832,59.2858047 L9.98463832,63.231303 Z M7.58762933,62.6819298 C7.17015316,62.5665443 6.76833235,62.4391035 6.3926038,62.3099405 L6.3926038,58.4384956 C6.77529029,58.5607699 7.17537162,58.6761555 7.58762933,58.7794859 L7.58762933,62.6819298 Z M5.19235982,61.8415094 C4.76096779,61.6520704 4.34871007,61.4574649 3.9973343,61.2559706 L3.9973343,57.5240218 C4.37306285,57.6996834 4.77314417,57.865012 5.19235982,58.0234519 L5.19235982,61.8415094 Z M2.79709032,60.4379385 C2.14304432,59.8833988 1.79862649,59.3288591 1.79862649,58.8294289 L1.79862649,56.1945042 C2.09955722,56.4373306 2.42658022,56.669824 2.79709032,56.8902621 L2.79709032,60.4379385 Z M4.7922785,41.6197543 L4.7922785,38.9917184 C5.09320924,39.2293782 5.42719017,39.4601494 5.78900285,39.6857541 L5.78900285,43.2351526 C5.13669634,42.6806129 4.7922785,42.1191845 4.7922785,41.6197543 Z M6.99098631,44.0531848 L6.99098631,40.3143472 C7.36671486,40.491731 7.76679619,40.6622262 8.18601184,40.8206661 L8.18601184,44.6387236 C7.7546198,44.4492845 7.34758054,44.254679 6.99098631,44.0531848 Z M7.58762933,48.0658478 C7.89029955,48.3035077 8.222541,48.5411675 8.58609316,48.7598835 L8.58609316,52.309282 C7.93378665,51.7547423 7.58762933,51.1933139 7.58762933,50.6938838 L7.58762933,48.0658478 Z M14.4498938,31.3142712 C15.8362626,31.1368874 17.3513532,31.033557 18.9708128,31.033557 C19.5065739,31.033557 20.0301586,31.0456123 20.5415669,31.062834 C21.5765599,31.1058883 22.5628473,31.191997 23.4917318,31.3142712 C25.2903583,31.5450424 26.8732888,31.9118653 28.210952,32.3510194 C28.376203,32.3992402 28.5362355,32.4543498 28.696268,32.5146258 C28.703226,32.5146258 28.703226,32.5215145 28.7084444,32.5146258 C29.4425067,32.7763961 30.0895947,33.0571103 30.6427506,33.3567684 L30.6497086,33.3567684 C31.8882212,34.0025833 32.6936023,34.7103964 33.0032305,35.3682664 C33.0954231,35.5697607 33.1441287,35.7591997 33.1441287,35.9486387 C33.1441287,36.4670128 32.7736186,37.0404964 32.077825,37.6122578 C31.5055347,38.0892997 30.7105905,38.5577308 29.7138662,38.9848297 C27.2437989,40.0456882 23.5473953,40.8637204 18.9708128,40.8637204 C18.5272444,40.8637204 18.0958523,40.8568317 17.6714182,40.83961 C9.7689423,40.570951 4.7922785,37.8447512 4.7922785,35.9486387 C4.7922785,34.3194631 8.43823702,32.0944156 14.4498938,31.3142712 Z M27.0524556,25.9772572 C27.3481679,26.2097505 27.661275,26.4353552 28.0196087,26.6489046 L28.0196087,30.0811954 C27.391655,29.5455996 27.0524556,29.0082816 27.0524556,28.5209067 L27.0524556,25.9772572 Z M30.9141102,19.8790427 L30.9141102,20.6609092 C30.9141102,24.1965303 37.8320381,27.0570596 46.3624678,27.0570596 C46.8616997,27.0570596 47.3609316,27.0450044 47.8462477,27.0260605 C45.8510595,27.4962138 43.4679664,27.7889832 40.7630687,27.7889832 C32.3926716,27.7889832 27.0524556,24.9783969 27.0524556,23.0375079 C27.0524556,22.0507028 28.4510008,20.8365708 30.9141102,19.8790427 Z M29.953915,11.8847157 L29.953915,9.34106623 C30.2426693,9.57355958 30.5627344,9.79916424 30.9141102,10.0127137 L30.9141102,13.4467266 C30.2861564,12.9094086 29.953915,12.3669241 29.953915,11.8847157 Z M32.077825,14.2389262 L32.077825,10.6223629 C32.4413771,10.792858 32.8292821,10.9581867 33.2363213,11.1097379 L33.2363213,14.8003546 C32.8118872,14.6160821 32.4170244,14.4283652 32.077825,14.2389262 Z M32.6570731,18.1172597 C32.947567,18.3480309 33.267632,18.5736356 33.6190078,18.787185 L33.6190078,22.2211979 C32.9893146,21.68388 32.6570731,21.1413955 32.6570731,20.6609092 L32.6570731,18.1172597 Z M43.6575701,1.64639737 C44.0837437,1.64639737 44.5029594,1.65156389 44.9152171,1.67050779 C52.5532915,1.93227808 57.3629648,4.55514752 57.3629648,6.39615044 C57.3629648,8.33531721 52.0227488,11.1527922 43.6575701,11.1527922 C43.1409434,11.1527922 42.6417115,11.140737 42.1494375,11.1217931 C34.6522613,10.811802 29.953915,8.21304293 29.953915,6.39615044 C29.953915,4.45698366 35.287173,1.64639737 43.6575701,1.64639737 Z M56.4027696,13.4467266 L56.4027696,10.0127137 C56.7541454,9.79916424 57.0742105,9.57355958 57.3629648,9.34106623 L57.3629648,11.8847157 C57.3629648,12.3669241 57.0307234,12.9094086 56.4027696,13.4467266 Z M54.0857769,14.8003546 L54.0857769,11.1097379 C54.4928162,10.9581867 54.8755026,10.792858 55.2442733,10.6223629 L55.2442733,14.2320375 C54.8998554,14.4283652 54.5049925,14.6160821 54.0857769,14.8003546 Z M51.7635657,15.6166646 L51.7635657,11.8364949 C52.1653865,11.7331645 52.5532915,11.6229454 52.9220621,11.5058377 L52.9220621,15.2515639 C52.5585099,15.3790047 52.1775629,15.501279 51.7635657,15.6166646 Z M49.4483125,16.1419273 L49.4483125,12.3307585 C49.8483938,12.2635938 50.2310803,12.1843738 50.6068088,12.1103204 L50.6068088,15.909434 C50.2362987,15.9955426 49.8483938,16.0747626 49.4483125,16.1419273 Z M46.941716,16.4829176 L46.941716,12.6476383 C47.3974608,12.6097505 47.8462477,12.5615297 48.2898161,12.5064202 L48.2898161,16.3244776 C47.8532056,16.3847537 47.4026793,16.4398632 46.941716,16.4829176 Z M44.2368183,16.6224136 L44.2368183,12.7871344 C44.760403,12.7750791 45.2718113,12.7561352 45.7832196,12.7320248 L45.7832196,16.5690262 C45.2787693,16.5983032 44.767361,16.6172471 44.2368183,16.6224136 Z M41.5336601,16.5690262 L41.5336601,12.7320248 C42.0450684,12.7561352 42.5564768,12.7750791 43.0800614,12.7871344 L43.0800614,16.6224136 C42.5495188,16.6172471 42.0381105,16.5983032 41.5336601,16.5690262 Z M39.0270637,16.3244776 L39.0270637,12.5064202 C39.4706321,12.5615297 39.919419,12.6097505 40.3751638,12.6476383 L40.3751638,16.4829176 C39.9142005,16.4398632 39.4636742,16.3847537 39.0270637,16.3244776 Z M36.7100709,15.909434 L36.7100709,12.1103204 C37.0857995,12.1843738 37.4737044,12.2635938 37.8685673,12.3307585 L37.8685673,16.1419273 C37.468486,16.0747626 37.080581,15.9955426 36.7100709,15.909434 Z M34.3948177,15.2515639 L34.3948177,11.5058377 C34.7635883,11.6281119 35.1514932,11.7331645 35.5515746,11.8364949 L35.5515746,15.6166646 C35.1393169,15.501279 34.7583699,15.3790047 34.3948177,15.2515639 Z M35.9342611,19.8859314 L35.9342611,23.5748259 C35.5150454,23.3922755 35.121922,23.2028365 34.7757647,23.0133975 L34.7757647,19.3985564 C35.1462748,19.5690515 35.5272218,19.732658 35.9342611,19.8859314 Z M38.2495143,20.6109662 L38.2495143,24.392858 C37.8442145,24.2757503 37.461528,24.153476 37.0927574,24.0260352 L37.0927574,20.2889198 C37.468486,20.3974167 37.8563909,20.5076358 38.2495143,20.6109662 Z M40.566507,21.1052298 L40.566507,24.9232873 C40.1716442,24.8492339 39.7837392,24.7700139 39.4080107,24.6856275 L39.4080107,20.8865139 C39.7906971,20.9657338 40.1716442,21.0380651 40.566507,21.1052298 Z M43.0800614,21.4221097 L43.0800614,25.2573889 C42.6173587,25.2160567 42.1668323,25.1609472 41.7302218,25.098949 L41.7302218,21.2826137 C42.1668323,21.3377232 42.6243166,21.385944 43.0800614,21.4221097 Z M45.7832196,21.5633278 L45.7832196,25.4037736 C45.2544165,25.3917184 44.7430082,25.3744966 44.2368183,25.3434975 L44.2368183,21.5082183 C44.7482266,21.5374953 45.2596349,21.5564392 45.7832196,21.5633278 Z M58.7058465,13.3123971 C59.5860254,13.9461568 60.0678625,14.5988603 60.0678625,15.1723439 C60.0678625,17.1115107 54.7276465,19.9289857 46.3624678,19.9289857 C40.1038043,19.9289857 35.5393982,18.3549196 33.6364027,16.7446879 C36.3343424,17.702216 39.8324448,18.2825883 43.6575701,18.2825883 C50.9999322,18.2825883 57.1350924,16.1539825 58.7058465,13.3123971 Z M60.0678625,20.6609092 C60.0678625,21.1413955 59.7338815,21.68388 59.1007093,22.2211979 L59.1007093,18.787185 C59.4573036,18.5736356 59.7773686,18.3480309 60.0678625,18.1172597 L60.0678625,20.6609092 Z M57.942213,23.0133975 C57.5977951,23.2097252 57.2029323,23.3922755 56.7837166,23.5748259 L56.7837166,19.8859314 C57.1907559,19.732658 57.5786608,19.5690515 57.942213,19.3985564 L57.942213,23.0133975 Z M54.4684634,24.392858 L54.4684634,20.6109662 C54.8685447,20.5145245 55.2564496,20.4043054 55.6269597,20.2889198 L55.6269597,24.0260352 C55.2564496,24.153476 54.8755026,24.2757503 54.4684634,24.392858 Z M53.5013103,30.0811954 L53.5013103,26.6489046 C53.7657118,26.4904647 54.0127186,26.3251361 54.240591,26.154641 C54.3206072,26.1356971 54.3936656,26.1184754 54.4684634,26.0995315 L54.4684634,28.5209067 C54.4684634,29.0082816 54.1362219,29.5455996 53.5013103,30.0811954 Z M57.3629648,30.7459542 C57.3629648,31.112777 57.1716216,31.5140433 56.8028509,31.9170318 C55.6634889,31.9531974 54.560656,32.0461948 53.5013103,32.1856908 C53.4699995,32.1856908 53.4334704,32.1925795 53.4021597,32.197746 C54.9607374,31.2832721 55.9522433,30.1862479 56.1557629,28.9962264 C56.9385307,29.5938204 57.3629648,30.2034697 57.3629648,30.7459542 Z M34.9427552,52.309282 L34.9427552,51.6393567 L34.9427552,49.3213119 L34.9427552,48.7598835 C35.3115258,48.5411675 35.6385488,48.3035077 35.941219,48.0658478 L35.941219,49.7363556 L35.941219,50.6938838 C35.941219,51.0228188 35.7933629,51.3758643 35.502869,51.7357984 C35.3550129,51.9252374 35.1706276,52.119843 34.9427552,52.309282 Z M32.5457462,52.7983791 L32.5457462,51.0899835 L32.5457462,49.8947955 C32.9649618,49.7363556 33.3650431,49.5658605 33.7407717,49.3884766 L33.7407717,51.4016968 L33.7407717,53.1273142 C33.4207066,53.3098645 33.0449781,53.4924148 32.6518547,53.66291 C32.613586,53.6818539 32.5840148,53.6939091 32.5457462,53.712853 L32.5457462,52.7983791 Z M30.1504767,54.5532734 L30.1504767,52.0234013 L30.1504767,50.6508294 C30.3539963,50.5957199 30.5575159,50.5406104 30.7540776,50.4855008 L30.7610356,50.4855008 C30.9575973,50.4321135 31.1541589,50.3701152 31.3455022,50.3098392 L31.3455022,50.7111055 L31.3455022,54.181284 C31.0254371,54.2915031 30.6862377,54.4017222 30.334862,54.4981639 C30.27398,54.5171078 30.2113586,54.5360517 30.1504767,54.5532734 Z M33.1441287,39.107104 L33.1441287,41.6197543 C33.1441287,41.9176903 33.0206253,42.2362923 32.7875345,42.5652273 C32.7492658,42.6134481 32.7075182,42.6685577 32.6570731,42.7236672 C32.5213934,42.8941623 32.3491845,43.0646575 32.1456648,43.2351526 L32.1456648,39.6857541 C32.4796458,39.485982 32.7736186,39.2775991 33.0449781,39.0640496 C33.0832467,39.0399392 33.112818,39.0158288 33.1441287,38.9917184 L33.1441287,39.107104 Z M30.334862,31.302216 C29.9713098,31.1420539 29.5834049,30.9956692 29.1781051,30.8630619 L29.1781051,27.2585539 C29.5468757,27.4359377 29.9295622,27.5943776 30.334862,27.7459288 L30.334862,31.302216 Z M32.6518547,32.2528555 C32.3317896,32.1615803 32.0221615,32.0634165 31.7281887,31.9652526 C31.7212307,31.9652526 31.7212307,31.9652526 31.7142728,31.9600861 C31.6412145,31.9239205 31.5664167,31.8808662 31.4933583,31.8447005 L31.4933583,28.1489173 C31.8690869,28.2643029 32.2569918,28.374522 32.6518547,28.4778523 L32.6518547,32.2528555 Z M34.9740659,32.7832848 C34.5722451,32.7092314 34.1843401,32.6300114 33.8086116,32.5456249 L33.8086116,28.7465113 C34.1912981,28.8257313 34.5722451,28.8980626 34.9740659,28.9652273 L34.9740659,32.7832848 Z M45.0561153,42.2414588 L45.0561153,42.6082816 L45.0561153,44.254679 L45.0561153,45.7908573 C44.4159852,45.2483728 44.0715673,44.6989996 44.059391,44.204736 L44.059391,44.175459 L44.059391,42.6255034 L44.059391,41.5457009 C44.3603217,41.7833608 44.6873447,42.0158541 45.0561153,42.2414588 Z M45.0561153,47.9125744 L45.0561153,49.7294669 C44.7795373,49.7243004 44.5081778,49.7122452 44.2368183,49.6933013 L44.2368183,47.3580347 C44.4890435,47.5526402 44.760403,47.7351906 45.0561153,47.9125744 Z M41.7302218,45.6324174 C42.0502869,45.6754717 42.3773099,45.7116373 42.7095513,45.7426364 C42.8139204,45.9182981 42.9374238,46.0956819 43.0800614,46.266177 L43.0800614,49.6089148 C42.6173587,49.5658605 42.1668323,49.5107509 41.7302218,49.4504749 L41.7302218,45.6324174 Z M42.2607645,38.5026212 L42.2607645,40.9549956 C42.0137577,40.9429404 41.7737089,40.9308851 41.5336601,40.9188299 L41.5336601,37.0818285 C41.8902544,37.1007724 42.2485881,37.1128277 42.6104008,37.1248829 C42.3773099,37.5709257 42.2607645,38.0273015 42.2607645,38.5026212 Z M39.0270637,40.6742814 L39.0270637,36.8562239 C39.4706321,36.9113334 39.919419,36.9612764 40.3751638,36.9974421 L40.3751638,40.8327213 C39.9142005,40.789667 39.4636742,40.7345574 39.0270637,40.6742814 Z M36.7100709,40.2592377 L36.7100709,36.4601241 C37.0857995,36.5341775 37.4737044,36.6133975 37.8685673,36.6805622 L37.8685673,40.491731 C37.468486,40.4245663 37.080581,40.3453463 36.7100709,40.2592377 Z M35.5515746,36.1862986 L35.5515746,39.9664683 C35.3428365,39.9061922 35.1393169,39.844194 34.9427552,39.7839179 L34.9427552,36.02097 C35.1393169,36.0760795 35.3428365,36.1311891 35.5515746,36.1862986 Z M37.7259296,44.8212739 C37.899878,44.8694947 38.0720869,44.9125491 38.2495143,44.9607699 L38.2495143,48.7426618 C38.0773054,48.6927188 37.9050965,48.6393314 37.7398455,48.5893884 L37.7398455,45.0227681 C37.7398455,44.9556034 37.7398455,44.8884386 37.7259296,44.8212739 Z M40.566507,45.4550336 L40.566507,49.273091 C40.1716442,49.1990376 39.7837392,49.1198177 39.4080107,49.0354312 L39.4080107,45.2363176 C39.7906971,45.3155375 40.1716442,45.3878688 40.566507,45.4550336 Z M36.7970451,42.790832 C36.4648037,42.3998987 36.0386301,42.0279093 35.5463561,41.6748639 C37.5293679,42.1863492 39.808092,42.5152843 42.2607645,42.6082816 L42.2607645,44.0342409 C40.1159807,43.7845258 38.2756066,43.3333164 36.7970451,42.790832 Z M45.3953147,32.9658351 C44.9587042,33.0278334 44.5081778,33.0760542 44.0472146,33.1191085 L44.0472146,29.2889958 C44.5029594,29.2459415 44.9517463,29.1977207 45.3953147,29.1426111 L45.3953147,32.9658351 Z M52.1514707,24.9232873 L52.1514707,21.1052298 C52.5463335,21.0380651 52.9342385,20.9657338 53.309967,20.8865139 L53.309967,24.6856275 C52.9411964,24.7700139 52.5532915,24.8492339 52.1514707,24.9232873 Z M52.3497718,27.2585539 L52.3497718,30.8751171 C52.0036145,31.0697227 51.6035332,31.252273 51.186057,31.4348234 L51.186057,27.7459288 C51.5913568,27.5943776 51.9792617,27.429049 52.3497718,27.2585539 Z M49.6448742,25.2573889 L49.6448742,21.4289984 C50.100619,21.385944 50.5511453,21.3377232 50.9947138,21.2826137 L50.9947138,25.098949 C50.5563638,25.1609472 50.1075769,25.2160567 49.6448742,25.2573889 Z M50.0275607,28.1489173 L50.0275607,31.8860327 C49.6640085,32.0151956 49.2761036,32.1374699 48.8690643,32.2528555 L48.8690643,28.4778523 C49.2691456,28.374522 49.6570506,28.2643029 50.0275607,28.1489173 Z M48.4881173,25.3434975 C47.9819274,25.3744966 47.4705191,25.3917184 46.941716,25.4037736 L46.941716,21.5633278 C47.4653007,21.5564392 47.976709,21.5374953 48.4881173,21.5082183 L48.4881173,25.3434975 Z M46.5538111,32.7832848 L46.5538111,28.9652273 C46.9469344,28.8980626 47.3348394,28.8257313 47.7105679,28.7465113 L47.7105679,32.5456249 C47.3417973,32.6300114 46.9538924,32.7092314 46.5538111,32.7832848 Z M41.3423169,33.2654932 L41.3423169,29.4233253 C41.8659016,29.4164366 42.3773099,29.3992149 42.8887182,29.3682158 L42.8887182,33.203495 C42.3825284,33.2344941 41.8728595,33.253438 41.3423169,33.2654932 Z M38.6391587,33.203495 L38.6391587,29.3682158 C39.1436091,29.3992149 39.6602358,29.4164366 40.1838205,29.4233253 L40.1838205,33.2654932 C39.6550174,33.253438 39.1436091,33.2344941 38.6391587,33.203495 Z M36.1308228,32.9658351 L36.1308228,29.1426111 C36.5691727,29.1977207 37.0249175,29.2459415 37.4806624,29.2889958 L37.4806624,33.1191085 C37.0179596,33.0760542 36.5691727,33.0278334 36.1308228,32.9658351 Z M40.7630687,34.9170571 C42.3286043,34.9170571 43.836737,34.8206154 45.2596349,34.6432316 C44.7847558,34.9118906 44.3672796,35.1977713 43.9967695,35.5025959 L43.6575701,35.5025959 C40.7021868,35.5025959 38.1207925,35.1495505 36.0264537,34.6122325 C37.5171915,34.8085602 39.1122984,34.9170571 40.7630687,34.9170571 Z M26.1583608,45.2965936 L26.1583608,45.7839686 C26.029639,45.8149677 25.8939592,45.8390781 25.7582795,45.8700772 L25.753061,45.8700772 C25.4938779,45.9251868 25.2294763,45.9734076 24.9581168,46.0216285 L24.9581168,42.0761302 C25.3703746,42.0106876 25.7652374,41.9297455 26.1583608,41.8505255 L26.1583608,45.2965936 Z M28.5484119,43.4676459 L28.5484119,45.1019881 C28.1726833,45.2363176 27.7795599,45.3585919 27.3533863,45.479144 L27.3533863,44.2116247 L27.3533863,41.5715335 C27.7673835,41.4664809 28.1674649,41.3510954 28.5484119,41.2288211 L28.5484119,43.4676459 Z M29.7503953,40.8206661 C30.1574346,40.6673927 30.5453395,40.5037862 30.9141102,40.3332911 C30.9262865,40.3264024 30.9384629,40.3212359 30.9506393,40.3143472 L30.9506393,44.0531848 C30.6671034,44.2116247 30.3470384,44.3700646 30.0095785,44.5285045 C29.9226043,44.5595036 29.8356301,44.6008358 29.7503953,44.6387236 L29.7503953,42.8993289 L29.7503953,40.8206661 Z M22.3645462,46.3763961 L22.3645462,42.4119539 C22.8394253,42.3688996 23.3003886,42.3206787 23.7630913,42.2604027 L23.7630913,46.2110675 C23.3073465,46.2782322 22.8446437,46.3281753 22.3645462,46.3763961 Z M19.5691953,46.5227808 L19.5691953,42.5531721 C20.1101749,42.5462834 20.6407175,42.522173 21.1643022,42.4980626 L21.1643022,46.4607826 C20.6459359,46.4917817 20.1171328,46.5158921 19.5691953,46.5227808 Z M16.772105,46.4607826 L16.772105,42.4980626 C17.3026476,42.5273395 17.8314508,42.5462834 18.3672119,42.5531721 L18.3672119,46.5227808 C17.8262323,46.5158921 17.2887318,46.4917817 16.772105,46.4607826 Z M14.1785343,46.2110675 L14.1785343,42.2604027 C14.6342791,42.3206787 15.1022003,42.3688996 15.5770795,42.4119539 L15.5770795,46.3763961 C15.0969819,46.3281753 14.6290607,46.2782322 14.1785343,46.2110675 Z M11.7832648,45.7839686 L11.7832648,41.8505255 C12.1763882,41.9297455 12.5712511,42.0106876 12.9782903,42.0761302 L12.9782903,46.0216285 C12.5660326,45.9492972 12.1642118,45.8700772 11.7832648,45.7839686 Z M9.38625582,45.1019881 L9.38625582,41.2288211 C9.77416076,41.3510954 10.1690236,41.4664809 10.5812813,41.5715335 L10.5812813,45.479144 C10.1638052,45.3637584 9.7689423,45.2363176 9.38625582,45.1019881 Z M10.9813627,49.8947955 L10.9813627,53.712853 C10.5517101,53.523414 10.1377129,53.3288084 9.78807663,53.1273142 L9.78807663,49.3884766 C10.1638052,49.5658605 10.5638865,49.7363556 10.9813627,49.8947955 Z M13.3783717,50.6456629 L13.3783717,54.5532734 C12.959156,54.4378878 12.5590747,54.310447 12.1833461,54.1761175 L12.1833461,50.3098392 C12.5660326,50.4252248 12.9661139,50.5406104 13.3783717,50.6456629 Z M15.7736412,51.1571483 L15.7736412,55.1026466 C15.3613835,55.0303153 14.9613021,54.9493732 14.5786156,54.858098 L14.5786156,50.9246549 C14.9665206,51.0107636 15.3683414,51.0899835 15.7736412,51.1571483 Z M18.3672119,51.4860833 L18.3672119,55.4505255 C17.8923327,55.4074712 17.4244115,55.3523617 16.9756246,55.2851969 L16.9756246,51.3345321 C17.4313694,51.3948082 17.8992907,51.443029 18.3672119,51.4860833 Z M21.1643022,51.6273015 L21.1643022,55.5969102 C20.6215832,55.5900215 20.0858221,55.5727998 19.5691953,55.5418007 L19.5691953,51.572192 C20.09278,51.6014689 20.6285411,51.6204128 21.1643022,51.6273015 Z M25.3147111,49.760466 C24.1997018,49.8758516 23.0185921,49.9378498 21.7679031,49.9378498 C15.2935436,49.9378498 10.5760629,48.3086742 8.60522749,46.6502216 C11.3953599,47.6387489 15.0100077,48.2363429 18.9708128,48.2363429 C21.2251841,48.2363429 23.3751864,48.0417374 25.3147111,47.6938584 C25.918312,47.5836394 26.4975602,47.4613651 27.0576741,47.3270356 C28.5797226,46.9550462 29.9347806,46.4866152 31.0741427,45.9303533 C31.6603488,45.6496391 32.1891519,45.3448145 32.6570731,45.0227681 C33.0154069,44.7782196 33.3406904,44.5164493 33.6190078,44.2477903 C34.0069128,43.8826896 34.3078435,43.4969229 34.5304974,43.0956566 C34.9914607,43.4314803 35.3497944,43.7655819 35.5828853,44.0962391 C35.8055392,44.394175 35.9273031,44.6869444 35.9342611,44.9676586 C35.941219,44.9866025 35.941219,45.0038242 35.941219,45.0227681 C35.941219,45.0399899 35.941219,45.0658225 35.9342611,45.0830442 C35.9099083,45.608307 35.509827,46.1938458 34.7757647,46.7724959 C34.25218,47.1875396 33.5511679,47.6025833 32.6883839,47.9797391 C31.5490218,48.4929467 30.1261239,48.9493225 28.4631772,49.2903128 C27.496024,49.491807 26.4418967,49.6571356 25.3147111,49.760466 Z M28.9502327,54.858098 C28.5675462,54.9442067 28.1674649,55.0303153 27.7552072,55.1026466 L27.7552072,54.1881727 L27.7552072,51.1571483 C27.8404419,51.1450931 27.9326345,51.1261492 28.0196087,51.1089274 C28.3327159,51.0538179 28.6475625,50.9918197 28.9502327,50.9246549 L28.9502327,54.858098 Z M40.7630687,52.1387869 C39.5871775,52.1387869 38.4773867,52.0836773 37.4302173,51.9872357 C37.633737,51.572192 37.7398455,51.1382044 37.7398455,50.6938838 L37.7398455,50.3218944 C39.4080107,50.7851589 41.3179641,51.1209827 43.3688158,51.2845891 C42.801744,51.5411929 42.2851172,51.8219071 41.8224145,52.1267317 C41.4779967,52.1336204 41.1214024,52.1387869 40.7630687,52.1387869 Z M46.8547418,53.2616437 L46.8547418,53.254755 L46.8547418,51.5842472 L46.8547418,51.4016968 L46.8547418,50.6198303 C47.157412,50.8643789 47.4826955,51.0968722 47.8532056,51.3155882 L47.8532056,51.3758643 L47.8532056,54.8649867 C47.8045001,54.8219324 47.754055,54.7788781 47.7105679,54.7375459 C47.1504541,54.231227 46.8547418,53.7249082 46.8547418,53.2616437 Z M47.4531243,45.9010764 L47.4531243,47.1927061 C47.2809154,47.1134861 47.106967,47.0411549 46.941716,46.9619349 C46.6947093,46.8465493 46.4668368,46.7294416 46.2580988,46.6071673 L46.2580988,44.2787894 L46.2580988,42.8700519 C46.6338273,43.0457136 47.0339086,43.2179309 47.4531243,43.3763708 L47.4531243,44.2598455 L47.4531243,45.9010764 Z M49.8483938,44.125516 L49.8483938,45.7546917 L49.8483938,48.0348487 C49.7805539,48.0159048 49.712714,47.998683 49.6448742,47.9745726 C49.3004563,47.8764088 48.9682149,47.7661897 48.6533683,47.6559706 L48.6533683,44.204736 L48.6533683,43.7896923 C49.0169204,43.9068001 49.4048254,44.0152969 49.7996882,44.1134608 C49.8170831,44.1203495 49.8292595,44.1203495 49.8483938,44.125516 Z M52.2454028,45.4378118 L52.2454028,48.5842219 C52.2140921,48.5773332 52.1827814,48.5721666 52.1514707,48.565278 C51.7705237,48.4981132 51.4000136,48.4188933 51.0503773,48.3396733 L51.0503773,44.4062302 C51.4382822,44.4923389 51.8383635,44.5646701 52.2454028,44.6387236 L52.2454028,45.4378118 Z M53.4456468,48.7719387 L53.4456468,44.8143852 C53.8091989,44.8643282 54.1727511,44.9056604 54.5484796,44.9435482 C54.6406723,44.9487147 54.7398229,44.9607699 54.837234,44.9676586 L54.837234,48.6324427 L54.837234,48.9321008 C54.3640943,48.8821578 53.8961731,48.8339369 53.4456468,48.7719387 Z M61.6316586,45.9734076 L61.6316586,44.9676586 C61.6873221,44.9607699 61.748204,44.9556034 61.8038675,44.9487147 C62.2161252,44.9125491 62.6231645,44.8694947 63.0232458,44.8143852 L63.0232458,48.7719387 C62.574459,48.8339369 62.1065377,48.8890465 61.6316586,48.9321008 L61.6316586,45.9734076 Z M58.8345683,48.7788274 L58.8345683,45.1071546 C58.9215425,45.1071546 59.0137351,45.1071546 59.1007093,45.1019881 C59.4259929,45.0950994 59.7460579,45.0899329 60.0609045,45.070989 C60.1844079,45.0658225 60.3079113,45.0589338 60.4314146,45.0520451 L60.4314146,47.6508041 L60.4314146,49.023376 C59.9130484,49.0526529 59.3772873,49.0715968 58.8345683,49.0784855 L58.8345683,48.7788274 Z M57.6343243,45.1071546 L57.6343243,47.5354185 L57.6343243,49.0784855 C57.0916053,49.0715968 56.5558442,49.0526529 56.0392175,49.023376 L56.0392175,45.0520451 C56.2844847,45.0658225 56.5314914,45.0778777 56.7837166,45.0899329 C57.0672525,45.0950994 57.3507884,45.1019881 57.6343243,45.1071546 Z M65.4202548,44.4062302 L65.4202548,48.3396733 C65.0375683,48.4257819 64.637487,48.5050019 64.2252293,48.5842219 L64.2252293,44.6387236 C64.6305291,44.5646701 65.0323499,44.4923389 65.4202548,44.4062302 Z M67.8155243,43.7896923 L67.8155243,47.6559706 C67.4397958,47.7903001 67.0397145,47.9194631 66.6204988,48.0348487 L66.6204988,44.125516 C67.0327565,44.0221856 67.4345773,43.9068001 67.8155243,43.7896923 Z M70.2125333,42.8700519 L70.2125333,46.6071673 C69.8611575,46.8086615 69.4488998,47.0049892 69.0175078,47.1927061 L69.0175078,43.3763708 C69.434984,43.2179309 69.8368048,43.0457136 70.2125333,42.8700519 Z M72.4112411,41.5457009 L72.4112411,44.175459 C72.4112411,44.6748892 72.0650838,45.2363176 71.4127773,45.7908573 L71.4127773,42.2414588 C71.7763295,42.0158541 72.1085709,41.7833608 72.4112411,41.5457009 Z M59.8017214,33.6185387 C60.8367144,33.661593 61.8230019,33.7459795 62.7518863,33.8682538 C68.7635431,34.6501203 72.4112411,36.8751678 72.4112411,38.5026212 C72.4112411,40.2161834 68.3756382,42.5893377 61.8038675,43.2420413 C61.2437537,43.3023173 60.6645055,43.3453717 60.0678625,43.3763708 C59.7530159,43.388426 59.4259929,43.4004812 59.1007093,43.4125364 C58.8171735,43.4125364 58.5266796,43.4177029 58.2309673,43.4177029 C57.7873989,43.4177029 57.3577464,43.4125364 56.9315728,43.3935925 C56.1070573,43.3694821 55.3190711,43.3143725 54.560656,43.2299861 C52.5411151,43.0284918 50.7598834,42.6565025 49.2691456,42.1932379 C47.8218949,41.7471951 46.6512222,41.2115993 45.7832196,40.6432823 C45.0126282,40.1559073 44.4890435,39.6444219 44.2368183,39.1553248 C44.1202729,38.9297201 44.059391,38.7110042 44.059391,38.5026212 C44.059391,38.2959605 44.1202729,38.0772445 44.2368183,37.8516399 C44.3603217,37.6122578 44.5516649,37.3625427 44.8108481,37.1197163 C45.4822889,36.4601241 46.5955587,35.7953653 48.0862965,35.2218817 C48.0862965,35.2218817 48.0932544,35.2218817 48.0984729,35.2167152 C49.5648579,34.6552868 51.4000136,34.1799671 53.5378394,33.8923642 C53.5935029,33.8871977 53.6543849,33.8751425 53.7100483,33.8682538 C54.8441919,33.7218691 56.0635702,33.6254274 57.3629648,33.5944283 C57.6465007,33.5944283 57.935255,33.5875396 58.2309673,33.5875396 C58.5266796,33.5875396 58.8171735,33.5944283 59.1007093,33.5944283 C59.3338002,33.6064835 59.5686306,33.6133722 59.8017214,33.6185387 Z M74.2029097,43.8396353 L74.2029097,38.5026212 C74.2029097,35.5267063 69.4732526,33.0157781 62.9623639,32.1856908 C61.7308092,32.0203622 60.4366331,31.9239205 59.1007093,31.8929214 L59.1007093,30.7459542 C59.1007093,29.3492719 58.0291872,28.0696974 56.2044684,27.0140053 L56.2044684,25.5880461 C59.624294,24.4169685 61.8038675,22.6414081 61.8038675,20.6609092 L61.8038675,15.1723439 C61.8038675,13.8359377 60.8071432,12.5856401 59.1007093,11.5609472 L59.1007093,6.39615044 C59.1007093,2.85880714 52.1897393,0 43.6575701,0 C35.1271405,0 28.210952,2.86569583 28.210952,6.39615044 L28.210952,11.8847157 C28.210952,13.2262885 29.2146343,14.4696974 30.9141102,15.4943903 L30.9141102,18.1052045 C27.496024,19.2814487 25.3147111,21.0501203 25.3147111,23.0375079 L25.3147111,28.5209067 C25.3147111,29.0082816 25.4503908,29.4904901 25.702616,29.9468659 C25.0624859,29.8194251 24.391045,29.7160947 23.7022094,29.6299861 C22.2114716,29.4353805 20.6285411,29.3320501 18.9829892,29.3320501 L18.9708128,29.3320501 C17.3270004,29.3320501 15.737112,29.4353805 14.2411557,29.6299861 C7.73026702,30.4600734 2.99887046,32.9727238 2.99887046,35.9486387 L2.99887046,41.6197543 C2.99887046,43.0043814 4.03386346,44.2908446 5.78900285,45.3585919 L5.78900285,48.0537926 C2.2543713,49.2662024 0,51.1020387 0,53.1514246 L0,58.8225402 C0,62.4821578 7.15101884,65.4460175 15.9719423,65.4460175 C24.7980843,65.4460175 31.9491031,62.4821578 31.9491031,58.8225402 L31.9491031,58.1216158 C34.0625762,58.7364316 36.5622148,59.1342535 39.2671125,59.2375839 L39.2671125,61.3834114 C39.2671125,65.0361403 46.4181313,68 55.2373153,68 C64.0582388,68 71.2092577,65.0361403 71.2092577,61.3834114 L71.2092577,58.3472205 C74.7456287,57.1330885 77,55.3041408 77,53.254755 L77,47.5767507 C77,46.1938458 75.965007,44.9056604 74.2029097,43.8396353 Z" id="Fill-1" fill="#1F3D7C" mask="url(#mask-2)"></path>
            </g>
        </g>
    </g>
</svg>