<?xml version="1.0" encoding="utf-8"?>
<!-- Generator: Adobe Illustrator 16.0.0, SVG Export Plug-In . SVG Version: 6.00 Build 0)  -->
<!DOCTYPE svg PUBLIC "-//W3C//DTD SVG 1.1//EN" "http://www.w3.org/Graphics/SVG/1.1/DTD/svg11.dtd">
<svg version="1.1" id="Layer_1" xmlns="http://www.w3.org/2000/svg" xmlns:xlink="http://www.w3.org/1999/xlink" x="0px" y="0px"
	 width="100px" height="74px" viewBox="0 0 100 74" enable-background="new 0 0 100 74" xml:space="preserve">
<title>Page 1</title>
<desc>Created with Sketch.</desc>
<g id="Page-1">
	<g id="Home" transform="translate(-331.000000, -917.000000)">
		<rect x="18.5" y="-0.22" display="none" fill="#FFFFFF" width="1440" height="2711"/>
		<g id="Group" transform="translate(331.000000, 917.000000)">
			<polygon id="Fill-1" fill="#1F3D7C" points="33.587,38.78 33.413,38.78 30,38.78 28.5,73.78 32.826,73.78 34.174,73.78 
				38.5,73.78 37,38.78 			"/>
			<polygon id="Fill-2" fill="#1F3D7C" points="44.856,38.78 44.691,38.78 41.466,38.78 40.5,62.614 41.296,73.78 44.137,73.78 
				45.411,73.78 49.5,73.78 48.082,38.78 			"/>
			<g id="Group-8">
				<g id="Group-5">
					<g id="Clip-4">
					</g>
					<defs>
						<filter id="Adobe_OpacityMaskFilter" filterUnits="userSpaceOnUse" x="18.5" y="-0.2" width="64.804" height="40.744">
							<feColorMatrix  type="matrix" values="1 0 0 0 0  0 1 0 0 0  0 0 1 0 0  0 0 0 1 0"/>
						</filter>
					</defs>
					<mask maskUnits="userSpaceOnUse" x="18.5" y="-0.2" width="64.804" height="40.744" id="mask-2_1_">
						<g filter="url(#Adobe_OpacityMaskFilter)">
							<polygon id="path-1_1_" fill="#FFFFFF" points="18.5,-0.199 83.304,-0.199 83.304,40.544 18.5,40.544 							"/>
						</g>
					</mask>
					<path id="Fill-3" mask="url(#mask-2_1_)" fill="#35ABE1" d="M75.189,33.149h-6.902v-2.01l3.11-3.401l0.231-0.262
						c0.219-0.22,0.26-0.261,0.383-0.413c0.177-0.207,0.245-0.358,0.245-0.55c0-0.317-0.218-0.551-0.642-0.551
						c-0.505,0-0.887,0.331-1.132,0.977l-2.401-1.321c0.642-1.528,1.965-2.327,3.492-2.327c0.941,0,1.732,0.275,2.401,0.813
						s1.01,1.267,1.01,2.217c0,0.578-0.123,1.088-0.382,1.515c-0.246,0.427-0.642,0.95-1.174,1.556l-0.969,1.087h2.729V33.149z
						 M64.996,28.365c-1.586,1.579-3.508,2.368-5.811,2.368s-4.247-0.789-5.834-2.368c-1.586-1.602-2.369-3.542-2.369-5.865
						c0-2.323,0.783-4.263,2.369-5.842c1.587-1.602,3.531-2.391,5.834-2.391s4.225,0.79,5.811,2.391
						c1.588,1.579,2.393,3.519,2.393,5.842C67.389,24.824,66.584,26.763,64.996,28.365z M40.701,25.613
						c0.782,0.789,1.788,1.173,3.04,1.173c1.453,0,2.705-0.677,3.308-1.828l3.465,2.031c-1.364,2.323-3.912,3.744-6.772,3.744
						c-2.347,0-4.314-0.789-5.856-2.346c-1.542-1.579-2.302-3.541-2.302-5.887c0-2.346,0.76-4.308,2.302-5.865
						c1.542-1.579,3.509-2.368,5.856-2.368c1.408,0,2.727,0.338,3.934,1.015c1.207,0.676,2.146,1.579,2.839,2.729l-3.465,2.007
						c-0.603-1.105-1.855-1.805-3.308-1.805c-1.252,0-2.258,0.406-3.04,1.196c-0.76,0.79-1.14,1.804-1.14,3.09
						S39.941,24.824,40.701,25.613z M80.274,24.357c0.672-1.492,1.057-3.144,1.057-4.889c0-5.325-3.485-9.827-8.279-11.313
						C71.58,3.318,67.119-0.2,61.843-0.2c-4.032,0-7.587,2.055-9.696,5.183c-2.085-1.919-4.849-3.1-7.892-3.1
						c-6.476,0-11.726,5.298-11.726,11.834c0,0.265,0.022,0.524,0.04,0.784c-1.604,1.191-2.733,2.987-3.062,5.058
						c-3.021,0.443-5.474,2.636-6.314,5.533c-2.695,0.688-4.692,3.146-4.692,6.08c0,3.467,2.785,6.277,6.221,6.277h35.333
						c1.416,1.877,3.646,3.094,6.164,3.094c2.44,0,4.613-1.141,6.035-2.918c1.002,0.477,2.116,0.75,3.297,0.75
						c4.281,0,7.753-3.502,7.753-7.824C83.304,28.027,82.113,25.788,80.274,24.357z"/>
				</g>
				<path id="Fill-6" fill="#35ABE1" d="M59.186,18.214c-1.207,0-2.213,0.406-3.018,1.218c-0.805,0.79-1.207,1.827-1.207,3.067
					c0,1.241,0.402,2.278,1.207,3.09c0.805,0.79,1.811,1.196,3.018,1.196s2.213-0.406,3.018-1.196
					c0.805-0.812,1.207-1.849,1.207-3.09c0-1.241-0.402-2.278-1.207-3.067C61.398,18.62,60.393,18.214,59.186,18.214"/>
			</g>
		</g>
	</g>
</g>
</svg>
