<?xml version="1.0" encoding="utf-8"?>
<!-- Generator: Adobe Illustrator 16.0.0, SVG Export Plug-In . SVG Version: 6.00 Build 0)  -->
<!DOCTYPE svg PUBLIC "-//W3C//DTD SVG 1.1//EN" "http://www.w3.org/Graphics/SVG/1.1/DTD/svg11.dtd">
<svg version="1.1" id="Layer_1" xmlns="http://www.w3.org/2000/svg" xmlns:xlink="http://www.w3.org/1999/xlink" x="0px" y="0px"
	 width="20px" height="37px" viewBox="0 0 20 37" enable-background="new 0 0 20 37" xml:space="preserve">
<title>Shape</title>
<desc>Created with Sketch.</desc>
<g id="Page-1">
	<g id="Map-view" transform="translate(-632.000000, -649.000000)">
		<rect display="none" fill="#FFFFFF" width="1440" height="2044"/>
		<g id="CTA-Copy" transform="translate(393.000000, 634.000000)">
			<path id="Shape" fill="#FFFFFF" d="M248.594,51.846l-9.422-9.866c-0.224-0.239-0.226-0.647-0.026-0.877
				c0.203-0.233,0.575-0.251,0.788-0.028l8.486,8.883v-34.34c0-0.341,0.248-0.617,0.554-0.617s0.555,0.276,0.555,0.617v34.34
				l8.486-8.883c0.213-0.223,0.588-0.209,0.788,0.028c0.199,0.237,0.204,0.618-0.026,0.877l-9.421,9.866
				C249.096,52.081,248.778,52.02,248.594,51.846z"/>
		</g>
	</g>
</g>
</svg>
