<?xml version="1.0" encoding="utf-8"?>
<!-- Generator: Adobe Illustrator 16.0.0, SVG Export Plug-In . SVG Version: 6.00 Build 0)  -->
<!DOCTYPE svg PUBLIC "-//W3C//DTD SVG 1.1//EN" "http://www.w3.org/Graphics/SVG/1.1/DTD/svg11.dtd">
<svg version="1.1" id="Layer_1" xmlns="http://www.w3.org/2000/svg" xmlns:xlink="http://www.w3.org/1999/xlink" x="0px" y="0px"
	 width="136px" height="136px" viewBox="0 0 136 136" enable-background="new 0 0 136 136" xml:space="preserve">
<title>Page 1 Copy</title>
<desc>Created with Sketch.</desc>
<g id="Page-1">
	<g id="About_overview" transform="translate(-474.000000, -1415.000000)">
		<rect display="none" fill="#FFFFFF" width="1440" height="2942"/>
		<g id="Page-1-Copy" transform="translate(474.000000, 1415.000000)">
			<path id="Fill-1" fill="#35ABE1" d="M109.561,68.54c-0.141,0-0.291,0.021-0.44,0.03c-1.03,0.13-2.06,0.369-3.14,0.57
				c-0.211-1.491-0.83-2.73-2.461-3.031c-0.319-0.06-0.649-0.08-0.979-0.08c-0.39,0-0.79,0.04-1.16,0.13
				c-1.409,0.39-2.8,0.92-4.19,1.4c-0.26-1.37-0.67-2.25-2.199-2.25c-0.37,0-0.811,0.05-1.34,0.16c-0.51,0.1-1.03,0.25-1.48,0.48
				c-2.5,1.26-4.99,2.569-7.67,3.95c0.49,0.289,0.8,0.439,1.07,0.64c0.979,0.739,2.06,1.41,2.88,2.3
				c1.579,1.68,1.159,3.801-0.83,4.91c-1.16,0.66-2.39,0.98-3.649,0.98c-0.511,0-1.031-0.061-1.541-0.16
				c-3.57-0.75-7.13-1.561-10.64-2.521c-2.729-0.729-5.32-1.85-7.69-3.42c-0.56-0.37-1.07-0.81-1.59-1.229
				c0.64-0.66,1.17-1.211,1.6-1.66c1.52,0.85,2.92,1.77,4.419,2.46c3.461,1.59,7.121,2.61,10.861,3.3
				c1.85,0.34,3.739,0.4,5.629,0.55h0.11c0.54,0,1.06-0.31,1.06-0.89c-0.01-0.471-0.289-1.07-0.649-1.36
				c-0.681-0.56-1.479-1.01-2.28-1.399c-5-2.471-9.49-5.73-13.77-9.291c-0.19-0.16-0.391-0.3-0.57-0.45
				c-1.72-1.33-3.49-2.33-5.34-3.02c-0.61-0.23-1.22-0.42-1.84-0.58c-0.21-0.05-0.41-0.1-0.62-0.15c-1.39-0.31-2.8-0.46-4.26-0.46
				c-1.68,0-3.41,0.22-5.18,0.6c-4.1,0.89-7.64,2.96-11.18,5.06c-0.17,0.11-0.27,0.59-0.2,0.84c0.64,2.38,1.33,4.75,2.01,7.13
				c0.72,2.529,1.45,5.07,2.21,7.71c1.14-0.649,2.27-1.181,3.51-1.181c0.22,0,0.41,0.011,0.63,0.051c1.02,0.14,2.09,0.25,3.03,0.64
				c4.26,1.71,8.57,3.341,12.7,5.33c4.43,2.16,9,3.31,13.76,3.31c1.119,0,2.25-0.06,3.399-0.189c9.431-1.07,17.851-4.7,25.31-10.5
				c2.07-1.609,4.08-3.33,4.791-6.029V70.01C111.29,68.96,110.52,68.54,109.561,68.54"/>
			<path id="Fill-3" fill="#35ABE1" d="M30.69,67.61h-0.04c-1.09-0.03-2.04-1-2.04-2.06c0-1.08,1.01-2.08,2.08-2.08h0.05
				c1.08,0.04,2.01,1.01,2.01,2.09C32.75,66.68,31.81,67.61,30.69,67.61 M36.86,62.42c-0.46-1.64-1.45-2.48-2.87-2.48
				c-0.4,0-0.83,0.07-1.29,0.2c-2.16,0.62-4.29,1.32-6.46,1.85c-1.46,0.36-2.51,1.06-3,2.49v1.21c0.05,0.14,0.13,0.26,0.17,0.39
				c2.03,7.15,4.12,14.3,6.09,21.47c0.54,1.96,1.8,2.681,3.15,2.681c0.43,0,0.87-0.07,1.31-0.201c2.2-0.699,4.41-1.299,6.62-1.949
				c2.33-0.68,3.07-2.03,2.39-4.38C40.94,76.609,38.9,69.51,36.86,62.42"/>
			<path id="Fill-5" fill="#1F3D7C" d="M98.02,59.64H83.05c-0.729,0-1.329,0.6-1.329,1.33v0.36c0,0.73,0.6,1.33,1.329,1.33h11.94
				h3.029c0.74,0,1.34-0.6,1.34-1.33v-0.36C99.359,60.24,98.76,59.64,98.02,59.64"/>
			<path id="Fill-7" fill="#1F3D7C" d="M98.02,55.05H83.05c-0.729,0-1.329,0.6-1.329,1.33v0.36c0,0.73,0.6,1.33,1.329,1.33h14.97
				c0.74,0,1.34-0.6,1.34-1.33v-0.36C99.359,55.65,98.76,55.05,98.02,55.05"/>
			<path id="Fill-9" fill="#1F3D7C" d="M98.02,50.45H83.05c-0.729,0-1.329,0.6-1.329,1.34v0.35c0,0.74,0.6,1.34,1.329,1.34h14.97
				c0.74,0,1.34-0.6,1.34-1.34v-0.35C99.359,51.05,98.76,50.45,98.02,50.45"/>
			<path id="Fill-11" fill="#1F3D7C" d="M98.02,45.85H83.05c-0.729,0-1.329,0.6-1.329,1.33v0.36c0,0.73,0.6,1.33,1.329,1.33h14.97
				c0.74,0,1.34-0.6,1.34-1.33v-0.36C99.359,46.45,98.76,45.85,98.02,45.85"/>
			<path id="Fill-13" fill="#1F3D7C" d="M77.83,59.64h-9.99c0.971,0.58,1.93,1.26,2.85,2.02c0.42,0.35,0.83,0.68,1.23,1h5.91
				c0.74,0,1.33-0.6,1.33-1.33v-0.36C79.16,60.24,78.57,59.64,77.83,59.64"/>
			<path id="Fill-15" fill="#1F3D7C" d="M62.86,55.05c-0.73,0-1.33,0.6-1.33,1.33v0.36c0,0.13,0.01,0.25,0.05,0.37
				c0.2,0.04,0.39,0.09,0.59,0.14c0.86,0.21,1.7,0.49,2.53,0.82h13.13c0.74,0,1.33-0.6,1.33-1.33v-0.36c0-0.73-0.59-1.33-1.33-1.33
				H62.86z"/>
			<path id="Fill-17" fill="#1F3D7C" d="M67.74,133.35c-36.18,0-65.61-29.43-65.61-65.609c0-36.18,29.43-65.62,65.61-65.62
				c36.18,0,65.619,29.44,65.619,65.62C133.359,103.92,103.92,133.35,67.74,133.35 M67.74,0C30.39,0,0,30.39,0,67.74
				c0,37.35,30.39,67.74,67.74,67.74c37.359,0,67.74-30.391,67.74-67.74C135.48,30.39,105.1,0,67.74,0"/>
		</g>
	</g>
</g>
</svg>
