<?xml version="1.0" encoding="utf-8"?>
<!-- Generator: Adobe Illustrator 16.0.0, SVG Export Plug-In . SVG Version: 6.00 Build 0)  -->
<!DOCTYPE svg PUBLIC "-//W3C//DTD SVG 1.1//EN" "http://www.w3.org/Graphics/SVG/1.1/DTD/svg11.dtd">
<svg version="1.1" id="Layer_1" xmlns="http://www.w3.org/2000/svg" xmlns:xlink="http://www.w3.org/1999/xlink" x="0px" y="0px"
	 width="47px" height="53px" viewBox="0 0 47 53" enable-background="new 0 0 47 53" xml:space="preserve">
<title>Page 1</title>
<desc>Created with Sketch.</desc>
<g id="Page-1_1_">
	<g id="Support-" transform="translate(-114.000000, -2491.000000)">
		<rect display="none" fill="#FFFFFF" width="1440" height="3047"/>
		<g id="Group-16" transform="translate(87.000000, 2474.000000)">
			<g id="Page-1" transform="translate(27.000000, 17.000000)">
				<g id="Group-3">
					<g id="Clip-2">
					</g>
					<defs>
						<filter id="Adobe_OpacityMaskFilter" filterUnits="userSpaceOnUse" x="0" y="0.036" width="46.82" height="30.919">
							<feColorMatrix  type="matrix" values="1 0 0 0 0  0 1 0 0 0  0 0 1 0 0  0 0 0 1 0"/>
						</filter>
					</defs>
					<mask maskUnits="userSpaceOnUse" x="0" y="0.036" width="46.82" height="30.919" id="mask-2">
						<g filter="url(#Adobe_OpacityMaskFilter)">
							<polygon id="path-1" fill="#FFFFFF" points="0,0.036 46.82,0.036 46.82,30.955 0,30.955 							"/>
						</g>
					</mask>
					<path id="Fill-1" mask="url(#mask-2)" fill="#35ABE1" d="M13.384,6.004h2.494l0.341,8.289
						c-1.108,0.331-2.187,0.736-3.226,1.212L13.384,6.004z M13.546,2.067h2.169l0.08,1.908h-2.329L13.546,2.067z M22.142,6.004
						h2.493l0.302,7.292c-0.513-0.031-1.029-0.047-1.548-0.047s-1.034,0.017-1.547,0.047L22.142,6.004z M22.303,2.067h2.169
						l0.08,1.908h-2.329L22.303,2.067z M30.9,6.004h2.492l0.391,9.496c-1.039-0.476-2.117-0.881-3.225-1.208L30.9,6.004z
						 M31.061,2.067h2.172l0.078,1.908h-2.328L31.061,2.067z M35.898,16.59L35.424,5.071c0.002-0.027,0.003-0.053,0.003-0.081
						c0-0.053-0.003-0.104-0.013-0.155l-0.139-3.345c-0.015-0.805-0.755-1.454-1.662-1.454h-2.936c-0.905,0-1.646,0.649-1.662,1.454
						l-0.138,3.354c-0.009,0.048-0.012,0.096-0.012,0.146c0,0.022,0,0.045,0.003,0.065l-0.357,8.72
						c-0.495-0.105-0.995-0.192-1.499-0.263l-0.348-8.457c0.004-0.021,0.004-0.043,0.004-0.065c0-0.05-0.004-0.098-0.012-0.146
						L26.52,1.489c-0.018-0.805-0.758-1.454-1.664-1.454h-2.935c-0.906,0-1.646,0.649-1.662,1.454l-0.137,3.345
						c-0.01,0.051-0.014,0.103-0.014,0.155c0,0.028,0.002,0.054,0.004,0.081l-0.346,8.441c-0.505,0.072-1.005,0.161-1.5,0.265
						l-0.356-8.701c0.003-0.028,0.004-0.057,0.004-0.086c0-0.055-0.005-0.108-0.013-0.159l-0.139-3.341
						c-0.017-0.805-0.757-1.454-1.662-1.454h-2.936c-0.906,0-1.645,0.649-1.662,1.454l-0.138,3.345
						C11.354,4.886,11.35,4.937,11.35,4.99c0,0.028,0.001,0.054,0.004,0.081l-0.475,11.525c-4.973,2.875-8.884,7.445-10.83,13.072
						c-0.161,0.459,0.09,0.961,0.56,1.115c0.467,0.156,0.975-0.09,1.135-0.55c0.032-0.095,0.066-0.188,0.099-0.28
						c1.834-5.082,5.406-9.21,9.925-11.828c1.291-0.75,2.659-1.376,4.087-1.864c0.146-0.051,0.292-0.1,0.438-0.146
						c0.67-0.214,1.353-0.4,2.046-0.553c0.445-0.1,0.898-0.186,1.353-0.259c0.684-0.11,1.377-0.19,2.077-0.237
						c0.537-0.039,1.077-0.057,1.62-0.057s1.083,0.018,1.62,0.057c0.7,0.047,1.394,0.127,2.078,0.237
						c0.454,0.072,0.906,0.158,1.352,0.259c0.693,0.151,1.377,0.334,2.047,0.55c0.148,0.048,0.297,0.098,0.446,0.149
						c1.425,0.488,2.795,1.112,4.086,1.86c4.553,2.64,8.14,6.81,9.959,11.951c0.034,0.093,0.065,0.187,0.099,0.281
						c0.125,0.368,0.475,0.602,0.848,0.602c0.096,0,0.191-0.013,0.285-0.045c0.47-0.154,0.723-0.652,0.567-1.113
						C44.842,24.104,40.912,19.486,35.898,16.59z"/>
				</g>
				<g id="Group-6" transform="translate(27.000000, 24.000000)">
					<g id="Clip-5">
					</g>
					<defs>
						<filter id="Adobe_OpacityMaskFilter_1_" filterUnits="userSpaceOnUse" x="0.986" y="0.141" width="7.079" height="28.859">
							<feColorMatrix  type="matrix" values="1 0 0 0 0  0 1 0 0 0  0 0 1 0 0  0 0 0 1 0"/>
						</filter>
					</defs>
					<mask maskUnits="userSpaceOnUse" x="0.986" y="0.141" width="7.079" height="28.859" id="mask-4">
						<g filter="url(#Adobe_OpacityMaskFilter_1_)">
							<polygon id="path-3" fill="#FFFFFF" points="0.986,0.141 8.064,0.141 8.064,29 0.986,29 							"/>
						</g>
					</mask>
					<path id="Fill-4" mask="url(#mask-4)" fill="#1F3D7C" d="M5.27,0.538C5.107,0.29,4.827,0.141,4.525,0.141
						c-0.301,0-0.582,0.149-0.744,0.397L1.124,4.596C0.951,4.859,0.94,5.197,1.095,5.471C1.25,5.747,1.547,5.918,1.869,5.918h1.719
						c-0.029,0.249-0.076,0.538-0.15,0.836C3.359,7.083,3.248,7.42,3.094,7.722C2.887,8.127,2.736,8.451,2.73,8.465
						C2.721,8.48,2.715,8.496,2.708,8.516c-0.032,0.08-0.19,0.506-0.2,0.958C2.506,9.48,2.506,9.488,2.506,9.496v0.08
						c0,0.008,0,0.014,0.002,0.021c0.01,0.432,0.154,0.84,0.195,0.946c0.031,0.087,0.171,0.452,0.424,0.864
						c0.293,0.477,0.691,0.964,0.709,0.982c0.004,0.006,0.343,0.422,0.576,0.799c0.087,0.144,0.156,0.28,0.201,0.381
						c0.047,0.102,0.07,0.166,0.07,0.166c0.002,0.008,0.006,0.02,0.01,0.025c0.025,0.071,0.081,0.256,0.088,0.386v0.056
						c-0.007,0.131-0.063,0.316-0.087,0.383c-0.004,0.008-0.009,0.02-0.011,0.025c0,0.004-0.096,0.264-0.271,0.551
						c-0.233,0.377-0.574,0.795-0.578,0.799c-0.016,0.021-0.414,0.509-0.707,0.983c-0.253,0.413-0.393,0.778-0.424,0.864
						c-0.041,0.108-0.186,0.516-0.195,0.947c-0.002,0.007-0.002,0.014-0.002,0.021v0.08c0,0.007,0,0.016,0.002,0.021
						c0.01,0.432,0.154,0.84,0.195,0.946c0.031,0.088,0.171,0.452,0.424,0.866c0.293,0.474,0.691,0.963,0.709,0.982
						c0.004,0.004,0.343,0.42,0.576,0.798c0.087,0.145,0.156,0.28,0.201,0.382c0.047,0.101,0.07,0.166,0.07,0.166
						c0.002,0.006,0.006,0.018,0.01,0.023c0.025,0.072,0.081,0.256,0.088,0.388v0.054c-0.007,0.133-0.063,0.316-0.087,0.383
						c-0.004,0.008-0.009,0.02-0.011,0.027c0,0.001-0.096,0.262-0.271,0.551c-0.233,0.376-0.572,0.795-0.578,0.797
						c-0.016,0.021-0.414,0.51-0.707,0.984c-0.253,0.413-0.393,0.777-0.424,0.863c-0.041,0.109-0.186,0.518-0.195,0.948
						c-0.002,0.007-0.002,0.014-0.002,0.021v0.081c0,0.476,0.396,0.86,0.883,0.86s0.881-0.385,0.881-0.86v-0.067
						c0.006-0.132,0.063-0.317,0.087-0.384c0.004-0.007,0.007-0.018,0.011-0.024c0.001-0.003,0.094-0.263,0.271-0.552
						c0.233-0.376,0.572-0.794,0.575-0.798c0.017-0.021,0.417-0.508,0.71-0.984c0.253-0.411,0.393-0.777,0.424-0.864
						c0.04-0.108,0.186-0.515,0.195-0.946c0-0.008,0.002-0.014,0.002-0.022v-0.079c0-0.008-0.002-0.016-0.002-0.022
						c-0.01-0.431-0.155-0.84-0.195-0.946c-0.031-0.088-0.171-0.452-0.424-0.864c-0.293-0.477-0.693-0.964-0.71-0.982
						c-0.094-0.116-0.38-0.483-0.575-0.798c-0.088-0.146-0.156-0.281-0.203-0.383c-0.045-0.1-0.067-0.166-0.067-0.166
						c-0.004-0.008-0.008-0.018-0.012-0.028c-0.02-0.053-0.079-0.247-0.087-0.382v-0.055c0.006-0.131,0.063-0.318,0.087-0.383
						c0.004-0.01,0.008-0.02,0.012-0.03c0-0.001,0.094-0.259,0.271-0.546c0.233-0.377,0.572-0.795,0.575-0.8
						c0.017-0.021,0.417-0.509,0.71-0.983c0.253-0.412,0.393-0.777,0.424-0.863c0.04-0.109,0.186-0.516,0.195-0.949
						c0-0.006,0.002-0.012,0.002-0.021v-0.08c0-0.006-0.002-0.015-0.002-0.021c-0.01-0.431-0.155-0.839-0.195-0.945
						c-0.031-0.087-0.171-0.453-0.424-0.865c-0.293-0.475-0.693-0.962-0.71-0.983c-0.003-0.003-0.342-0.42-0.575-0.798
						c-0.088-0.143-0.156-0.281-0.203-0.381c-0.045-0.102-0.067-0.167-0.067-0.167C4.364,9.965,4.36,9.955,4.356,9.946
						C4.337,9.894,4.277,9.699,4.27,9.563V9.509c0.006-0.12,0.053-0.286,0.08-0.363C4.391,9.059,4.516,8.797,4.673,8.49
						c0.286-0.559,0.46-1.178,0.567-1.73c0.059-0.311,0.099-0.6,0.123-0.842h1.819c0.321,0,0.618-0.171,0.774-0.447
						C8.111,5.197,8.1,4.859,7.927,4.596L5.27,0.538z"/>
				</g>
				<g id="Group-9" transform="translate(20.000000, 24.000000)">
					<g id="Clip-8">
					</g>
					<defs>
						<filter id="Adobe_OpacityMaskFilter_2_" filterUnits="userSpaceOnUse" x="0.216" y="0.141" width="7.34" height="28.859">
							<feColorMatrix  type="matrix" values="1 0 0 0 0  0 1 0 0 0  0 0 1 0 0  0 0 0 1 0"/>
						</filter>
					</defs>
					<mask maskUnits="userSpaceOnUse" x="0.216" y="0.141" width="7.34" height="28.859" id="mask-6">
						<g filter="url(#Adobe_OpacityMaskFilter_2_)">
							<polygon id="path-5" fill="#FFFFFF" points="0.216,0.141 7.557,0.141 7.557,29 0.216,29 							"/>
						</g>
					</mask>
					<path id="Fill-7" mask="url(#mask-6)" fill="#1F3D7C" d="M4.657,0.538C4.489,0.29,4.199,0.141,3.885,0.141
						c-0.312,0-0.603,0.149-0.771,0.397L0.359,4.596C0.18,4.859,0.168,5.197,0.328,5.471c0.161,0.276,0.469,0.447,0.803,0.447h1.784
						C2.885,6.16,2.837,6.441,2.766,6.73c-0.083,0.336-0.2,0.681-0.364,0.991C2.187,8.127,2.031,8.451,2.024,8.465
						C2.016,8.48,2.008,8.496,2.001,8.516c-0.033,0.08-0.196,0.506-0.208,0.958c0,0.007-0.001,0.015-0.001,0.022v0.08
						c0,0.008,0.001,0.014,0.001,0.021c0.011,0.432,0.16,0.84,0.203,0.946c0.033,0.087,0.177,0.452,0.44,0.864
						c0.304,0.477,0.719,0.964,0.735,0.982c0.099,0.117,0.396,0.484,0.597,0.799c0.092,0.144,0.163,0.28,0.211,0.381
						c0.046,0.102,0.07,0.166,0.07,0.166c0.004,0.008,0.008,0.02,0.012,0.025c0.026,0.071,0.085,0.256,0.09,0.386v0.056
						c-0.005,0.131-0.063,0.316-0.089,0.383c-0.004,0.008-0.007,0.018-0.011,0.025c-0.002,0.004-0.097,0.264-0.283,0.551
						c-0.241,0.377-0.593,0.795-0.597,0.799c-0.016,0.021-0.431,0.509-0.735,0.983c-0.263,0.413-0.407,0.778-0.44,0.864
						c-0.042,0.108-0.192,0.516-0.203,0.947c0,0.007-0.001,0.014-0.001,0.021v0.08c0,0.007,0.001,0.016,0.001,0.021
						c0.011,0.432,0.16,0.84,0.203,0.946c0.033,0.088,0.177,0.452,0.44,0.866c0.304,0.474,0.719,0.963,0.735,0.982
						c0.099,0.115,0.396,0.483,0.597,0.798c0.092,0.145,0.163,0.28,0.211,0.382c0.046,0.101,0.07,0.166,0.07,0.166
						c0.004,0.006,0.008,0.018,0.012,0.023c0.026,0.072,0.085,0.256,0.09,0.388v0.054c-0.005,0.133-0.063,0.316-0.089,0.383
						c-0.004,0.008-0.007,0.02-0.011,0.027c-0.002,0.001-0.097,0.262-0.283,0.551c-0.241,0.376-0.593,0.795-0.597,0.797
						c-0.019,0.021-0.431,0.51-0.735,0.984c-0.263,0.41-0.407,0.777-0.44,0.865c-0.042,0.107-0.192,0.516-0.203,0.946
						c0,0.007-0.001,0.014-0.001,0.021v0.081c0,0.476,0.411,0.86,0.915,0.86c0.505,0,0.915-0.385,0.915-0.86v-0.067
						c0.006-0.132,0.064-0.317,0.089-0.384c0.004-0.007,0.008-0.018,0.011-0.024c0.001-0.003,0.099-0.263,0.282-0.552
						c0.242-0.376,0.595-0.794,0.596-0.798c0.021-0.021,0.433-0.508,0.736-0.984c0.263-0.412,0.406-0.777,0.44-0.864
						c0.042-0.108,0.192-0.515,0.202-0.946c0.002-0.008,0.002-0.014,0.002-0.022v-0.079c0-0.008,0-0.016-0.002-0.022
						c-0.01-0.431-0.16-0.84-0.202-0.946c-0.034-0.088-0.178-0.452-0.44-0.864c-0.304-0.477-0.719-0.964-0.736-0.982
						c-0.097-0.116-0.395-0.483-0.596-0.798c-0.09-0.144-0.163-0.281-0.209-0.381c-0.048-0.102-0.072-0.168-0.072-0.168
						c-0.004-0.007-0.006-0.018-0.011-0.024c-0.026-0.071-0.084-0.256-0.09-0.386v-0.055c0.006-0.131,0.064-0.318,0.089-0.383
						c0.004-0.009,0.008-0.02,0.011-0.026c0.001-0.004,0.099-0.263,0.282-0.55c0.242-0.377,0.594-0.795,0.596-0.8
						c0.021-0.021,0.433-0.509,0.736-0.983c0.263-0.412,0.406-0.778,0.44-0.863c0.042-0.109,0.192-0.516,0.202-0.949
						C5.98,14.23,5.98,14.225,5.98,14.215v-0.08c0-0.006,0-0.015-0.002-0.021c-0.01-0.431-0.16-0.839-0.202-0.945
						c-0.034-0.087-0.178-0.453-0.44-0.865c-0.304-0.475-0.719-0.962-0.736-0.983c-0.002-0.003-0.354-0.42-0.596-0.798
						c-0.09-0.143-0.163-0.281-0.209-0.381c-0.048-0.102-0.072-0.167-0.072-0.167C3.719,9.967,3.716,9.956,3.712,9.949
						c-0.026-0.07-0.084-0.255-0.09-0.387V9.509c0.005-0.12,0.055-0.286,0.083-0.363C3.747,9.059,3.876,8.797,4.039,8.49
						C4.34,7.924,4.521,7.292,4.633,6.736c0.06-0.301,0.097-0.581,0.122-0.818h1.887c0.333,0,0.642-0.171,0.803-0.447
						c0.159-0.273,0.147-0.611-0.03-0.875L4.657,0.538z"/>
				</g>
				<g id="Group-12" transform="translate(11.000000, 24.000000)">
					<g id="Clip-11">
					</g>
					<defs>
						<filter id="Adobe_OpacityMaskFilter_3_" filterUnits="userSpaceOnUse" x="0.728" y="0.141" width="7.19" height="28.859">
							<feColorMatrix  type="matrix" values="1 0 0 0 0  0 1 0 0 0  0 0 1 0 0  0 0 0 1 0"/>
						</filter>
					</defs>
					<mask maskUnits="userSpaceOnUse" x="0.728" y="0.141" width="7.19" height="28.859" id="mask-8">
						<g filter="url(#Adobe_OpacityMaskFilter_3_)">
							<polygon id="path-7" fill="#FFFFFF" points="0.728,0.141 7.918,0.141 7.918,29 0.728,29 							"/>
						</g>
					</mask>
					<path id="Fill-10" mask="url(#mask-8)" fill="#1F3D7C" d="M5.078,0.538C4.914,0.29,4.629,0.141,4.322,0.141
						c-0.306,0-0.59,0.149-0.755,0.397L0.869,4.596C0.692,4.859,0.68,5.197,0.838,5.471c0.157,0.276,0.458,0.447,0.785,0.447h1.748
						C3.342,6.154,3.299,6.426,3.23,6.708C3.149,7.051,3.033,7.404,2.868,7.722c-0.21,0.405-0.363,0.729-0.37,0.743
						C2.491,8.48,2.483,8.496,2.476,8.516c-0.032,0.08-0.192,0.506-0.204,0.958v0.022v0.08v0.021
						c0.011,0.432,0.158,0.84,0.199,0.946c0.031,0.087,0.173,0.452,0.431,0.864c0.299,0.477,0.703,0.964,0.72,0.982
						c0.097,0.117,0.388,0.484,0.586,0.799c0.09,0.144,0.158,0.28,0.205,0.381c0.046,0.102,0.069,0.166,0.069,0.166
						c0.003,0.008,0.007,0.02,0.011,0.025c0.026,0.071,0.083,0.256,0.088,0.386v0.056c-0.005,0.131-0.063,0.316-0.087,0.383
						c-0.004,0.008-0.006,0.018-0.01,0.025c0,0.004-0.095,0.264-0.277,0.551c-0.236,0.377-0.582,0.795-0.585,0.799
						c-0.017,0.021-0.42,0.509-0.72,0.983c-0.257,0.413-0.399,0.778-0.431,0.864c-0.041,0.108-0.188,0.516-0.199,0.947v0.021v0.08
						v0.021c0.011,0.432,0.158,0.84,0.199,0.946c0.031,0.088,0.173,0.454,0.432,0.866c0.298,0.474,0.702,0.963,0.718,0.982
						c0.097,0.115,0.388,0.483,0.586,0.798c0.09,0.145,0.158,0.28,0.205,0.382c0.046,0.101,0.069,0.166,0.069,0.166
						c0.003,0.006,0.007,0.018,0.011,0.023c0.026,0.072,0.083,0.256,0.088,0.388v0.054c-0.005,0.133-0.063,0.316-0.087,0.383
						c-0.004,0.008-0.006,0.02-0.01,0.027c0,0.001-0.095,0.262-0.277,0.551c-0.236,0.376-0.582,0.795-0.585,0.797
						c-0.017,0.021-0.42,0.51-0.72,0.984c-0.257,0.41-0.399,0.777-0.431,0.863c-0.041,0.109-0.188,0.518-0.199,0.948v0.021v0.081
						c0,0.476,0.401,0.86,0.895,0.86c0.495,0,0.897-0.385,0.897-0.86v-0.067c0.005-0.132,0.062-0.317,0.087-0.384
						c0.003-0.007,0.007-0.018,0.009-0.024c0.001-0.003,0.097-0.263,0.277-0.552c0.236-0.376,0.583-0.794,0.586-0.798
						c0.017-0.021,0.421-0.508,0.718-0.984C6,24.918,6.141,24.553,6.174,24.466c0.042-0.108,0.188-0.515,0.2-0.946v-0.022v-0.079
						v-0.022c-0.012-0.431-0.158-0.84-0.2-0.946C6.141,22.361,6,21.997,5.743,21.585c-0.297-0.477-0.704-0.964-0.721-0.982
						c-0.095-0.116-0.387-0.483-0.584-0.798c-0.089-0.146-0.159-0.281-0.205-0.383c-0.047-0.1-0.07-0.166-0.07-0.166
						c-0.004-0.007-0.007-0.018-0.011-0.024c-0.026-0.07-0.082-0.256-0.087-0.386v-0.055c0.005-0.131,0.062-0.318,0.087-0.383
						c0.004-0.01,0.007-0.02,0.011-0.03c0-0.001,0.095-0.259,0.275-0.546c0.236-0.377,0.583-0.795,0.586-0.8
						c0.017-0.021,0.421-0.509,0.718-0.983C6,15.637,6.141,15.271,6.174,15.186c0.042-0.109,0.188-0.516,0.2-0.949v-0.021v-0.08
						v-0.021c-0.012-0.431-0.158-0.839-0.2-0.945C6.141,13.081,6,12.715,5.743,12.303c-0.297-0.475-0.704-0.962-0.721-0.983
						c-0.002-0.003-0.348-0.42-0.584-0.798c-0.089-0.143-0.159-0.281-0.205-0.381c-0.047-0.102-0.07-0.167-0.07-0.167
						C4.159,9.967,4.156,9.956,4.152,9.949C4.126,9.879,4.07,9.694,4.064,9.563V9.509c0.004-0.12,0.052-0.286,0.08-0.363
						C4.186,9.059,4.313,8.797,4.472,8.49C4.77,7.915,4.951,7.275,5.06,6.712C5.115,6.42,5.15,6.149,5.176,5.918h1.846
						c0.327,0,0.628-0.171,0.786-0.447c0.157-0.273,0.145-0.611-0.03-0.875L5.078,0.538z"/>
				</g>
			</g>
		</g>
	</g>
</g>
</svg>
