<?xml version="1.0" encoding="utf-8"?>
<!-- Generator: Adobe Illustrator 16.0.0, SVG Export Plug-In . SVG Version: 6.00 Build 0)  -->
<!DOCTYPE svg PUBLIC "-//W3C//DTD SVG 1.1//EN" "http://www.w3.org/Graphics/SVG/1.1/DTD/svg11.dtd">
<svg version="1.1" id="Layer_1" xmlns="http://www.w3.org/2000/svg" xmlns:xlink="http://www.w3.org/1999/xlink" x="0px" y="0px"
	 width="100px" height="74px" viewBox="0 0 100 74" enable-background="new 0 0 100 74" xml:space="preserve">
<title>Page 1</title>
<desc>Created with Sketch.</desc>
<g id="Page-1_1_">
	<g id="Home" transform="translate(-101.000000, -916.000000)">
		<rect display="none" fill="#FFFFFF" width="1440" height="2711"/>
		<g id="Page-1" transform="translate(101.000000, 916.000000)">
			<polygon id="Fill-1" fill="#1F3D7C" points="96,5 98,5 98,0 96,0 			"/>
			<polygon id="Fill-2" fill="#1F3D7C" points="91,5 93,5 93,0 91,0 			"/>
			<polygon id="Fill-3" fill="#1F3D7C" points="73,5 75,5 75,0 73,0 			"/>
			<polygon id="Fill-4" fill="#1F3D7C" points="67,5 69,5 69,0 67,0 			"/>
			<g id="Group-10" transform="translate(0.000000, 2.000000)">
				<path id="Fill-5" fill="#1F3D7C" d="M84.709,10.519V6.321h3.428L84.709,10.519z M79.563,9.191
					c-0.099,0.321-0.197,0.638-0.313,0.959l-3.133-3.829h3.445V9.191z M84.709,3.582V0.474h-5.146v3.107h-15.3v2.74h8.228
					c-2.078,11.155-10.029,19.834-14.195,23.723c0.05,0.054,0.094,0.115,0.131,0.176c0.121,0.179,0.207,0.38,0.249,0.589
					c0.079-0.073,0.159-0.146,0.239-0.222c4.289-4.016,12.333-12.885,14.398-24.267h0.711V6.49l4.518,5.523
					c-3.977,9.626-12.555,16.359-18.173,19.937c0.099,0.054,0.191,0.121,0.278,0.199l0.379,0.34
					c5.637-3.622,14.017-10.292,18.107-19.768l0.43,0.521v37.961h-0.904V72h6.958V51.204h-0.907V13.243L90.25,6.49V6.321h9.744
					v-2.74H84.709z"/>
				<g id="Group-9" transform="translate(0.000000, 23.172414)">
					<g id="Clip-8">
					</g>
					<defs>
						<filter id="Adobe_OpacityMaskFilter" filterUnits="userSpaceOnUse" x="-1" y="-0.284" width="78.439" height="46.268">
							<feColorMatrix  type="matrix" values="1 0 0 0 0  0 1 0 0 0  0 0 1 0 0  0 0 0 1 0"/>
						</filter>
					</defs>
					<mask maskUnits="userSpaceOnUse" x="-1" y="-0.284" width="78.439" height="46.268" id="mask-2">
						<g filter="url(#Adobe_OpacityMaskFilter)">
							<polygon id="path-1" fill="#FFFFFF" points="0,0.716 76.439,0.716 76.439,44.984 0,44.984 							"/>
						</g>
					</mask>
					<path id="Fill-7" mask="url(#mask-2)" fill="none" stroke="#35ABE1" stroke-width="2" stroke-miterlimit="10" d="
						M75.881,22.701L61.025,9.317l-0.377-0.34c-0.088-0.079-0.182-0.145-0.281-0.199c-0.025-0.019-0.049-0.033-0.078-0.045
						c-0.074-0.12-0.168-0.229-0.277-0.326l-1.096-0.99c-0.082,0.075-0.162,0.148-0.241,0.221c-0.043-0.209-0.127-0.41-0.249-0.591
						c-0.037-0.059-0.082-0.12-0.131-0.174c-0.043-0.05-0.091-0.098-0.143-0.145l-6.201-5.585c-0.304-0.272-0.695-0.426-1.102-0.426
						H25.586c-0.402,0-0.794,0.154-1.097,0.426L0.559,22.701c-0.514,0.468-0.695,1.207-0.452,1.865
						c0.247,0.654,0.863,1.091,1.553,1.091h11.02V43.29c0,0.935,0.745,1.693,1.66,1.693h9.241c0.913,0,1.654-0.754,1.661-1.683
						l0.062-13.083h4.158l-0.075,13.063c-0.003,0.45,0.167,0.882,0.479,1.204c0.312,0.316,0.736,0.498,1.18,0.498H62.1
						c0.916,0,1.658-0.759,1.658-1.693V25.657h11.021c0.69,0,1.307-0.437,1.553-1.091C76.576,23.908,76.395,23.168,75.881,22.701"/>
				</g>
			</g>
		</g>
	</g>
</g>
</svg>
