<?xml version="1.0" encoding="UTF-8"?>
<svg width="1274px" height="237px" viewBox="0 0 1274 237" version="1.1" xmlns="http://www.w3.org/2000/svg" xmlns:xlink="http://www.w3.org/1999/xlink">
    <!-- Generator: Sketch 51 (57462) - http://www.bohemiancoding.com/sketch -->
    <title>Group 4</title>
    <desc>Created with Sketch.</desc>
    <defs>
        <polygon id="path-1" points="0 0.62 44.729876 0.62 44.729876 35.59 0 35.59"></polygon>
        <polygon id="path-3" points="0 0.6644 135.48 0.6644 135.48 135.4044 0 135.4044"></polygon>
        <polygon id="path-5" points="0 0.6644 135.48 0.6644 135.48 135.4044 0 135.4044"></polygon>
        <polygon id="path-7" points="0 0.6644 135.48 0.6644 135.48 135.4044 0 135.4044"></polygon>
        <polygon id="path-9" points="0 0.6644 135.48 0.6644 135.48 135.4044 0 135.4044"></polygon>
        <polygon id="path-11" points="0 0.6644 135.48 0.6644 135.48 135.4044 0 135.4044"></polygon>
        <polygon id="path-13" points="0 0.42 84.5199 0.42 84.5199 71 0 71"></polygon>
        <polygon id="path-15" points="0.9627 0.0450739072 11.766 0.0450739072 11.766 11.0651 0.9627 11.0651"></polygon>
        <polygon id="path-17" points="0 0.5 58.03 0.5 58.03 78 0 78"></polygon>
        <polygon id="path-19" points="0.01 0.2 9.28 0.2 9.28 15.8624 0.01 15.8624"></polygon>
        <polygon id="path-21" points="0.0001 0.34 58.31 0.34 58.31 81 0.0001 81"></polygon>
    </defs>
    <g id="Page-1" stroke="none" stroke-width="1" fill="none" fill-rule="evenodd">
        <g id="Support-" transform="translate(-91.000000, -1662.000000)">
            <rect fill="#FFFFFF" x="0" y="0" width="1440" height="3047"></rect>
            <g id="Group-4" transform="translate(90.000000, 1663.000000)">
                <g id="Group" transform="translate(0.000000, 100.000000)">
                    <g id="Page-1" transform="translate(29.000000, 34.000000)">
                        <path d="M78.6774,62.08 C78.0774,60.86 77.1974,59.86 76.2174,58.95 C74.5874,57.45 72.7374,56.26 70.8074,55.19 C67.9774,53.64 65.0074,52.41 61.9574,51.37 C61.6974,51.28 61.4474,51.13 61.2374,50.96 C60.4374,50.31 60.1774,49.41 60.1474,48.42 C60.1174,47.56 60.3174,46.74 60.5274,45.91 C60.6074,45.62 60.7674,45.43 60.9574,45.22 C61.5874,44.56 62.2174,43.9 62.8174,43.22 C64.2574,41.59 65.3174,39.76 65.8574,37.65 C66.2174,36.28 66.3874,34.89 66.4574,33.49 C66.5274,32.97 66.5574,32.45 66.5574,31.91 C66.5574,24.94 60.7574,19.28 53.5974,19.28 C46.4474,19.28 40.6474,24.94 40.6474,31.91 L40.6474,31.94 L40.5874,31.94 C40.5774,32.02 40.5774,32.06 40.5774,32.11 C40.5774,33.58 40.6674,35.03 40.9174,36.48 C41.3074,38.69 42.1174,40.73 43.5474,42.47 C44.4074,43.52 45.3674,44.48 46.2774,45.49 C46.3574,45.58 46.4474,45.68 46.4874,45.8 C46.7774,46.58 46.9274,47.38 46.8874,48.22 C46.8774,48.39 46.8574,48.56 46.8274,48.72 C46.5774,49.91 45.7174,50.96 44.5974,51.41 C43.0874,52.01 41.5674,52.59 40.0874,53.26 C37.2474,54.54 34.5174,56.02 32.0674,57.93 C31.9474,58.02 31.8274,58.11 31.7074,58.21 C30.5474,59.15 29.4774,60.18 28.6774,61.46 C28.1474,62.31 27.7674,63.22 27.7474,64.24 C27.7374,64.99 27.7474,65.74 27.7574,66.48 C27.7574,66.78 27.8074,67.06 27.8674,67.34 L79.0974,67.34 C79.1274,67.17 79.1774,67 79.1974,66.82 C79.2574,66.05 79.2174,65.27 79.2374,64.49 C79.2474,63.64 79.0374,62.84 78.6774,62.08" id="Fill-1" fill="#35ABE1"></path>
                        <g id="Group-5" transform="translate(0.000000, 22.340000)">
                            <mask id="mask-2" fill="white">
                                <use xlink:href="#path-1"></use>
                            </mask>
                            <g id="Clip-4"></g>
                            <path d="M30.3475,34.19 C32.7675,32.23 35.5775,30.57 39.1975,28.94 C40.5375,28.34 41.9075,27.8 43.2375,27.28 L43.7975,27.06 C44.2975,26.86 44.6975,26.3 44.7275,25.78 C44.7375,25.47 44.7175,25.16 44.6375,24.83 C43.9675,24.39 43.2675,23.98 42.5575,23.59 C39.7575,22.05 36.8275,20.84 33.8075,19.81 C33.5575,19.73 33.3075,19.58 33.0975,19.41 C32.3075,18.77 32.0475,17.88 32.0175,16.9 C31.9875,16.05 32.1875,15.24 32.3975,14.42 C32.4675,14.13 32.6275,13.94 32.8175,13.74 C33.4375,13.08 34.0675,12.43 34.6575,11.76 C36.0775,10.15 37.1275,8.34 37.6675,6.25 C37.6975,6.12 37.7375,5.98 37.7675,5.85 C38.1275,4.31 38.2675,2.73 38.2875,1.15 L38.2875,0.62 L12.6875,0.62 C12.6875,0.69 12.6775,0.74 12.6775,0.78 C12.6775,2.23 12.7675,3.67 13.0175,5.1 C13.3975,7.28 14.1975,9.3 15.6175,11.02 C16.4675,12.05 17.4075,13.01 18.3075,14 C18.3975,14.1 18.4775,14.2 18.5275,14.31 C18.8075,15.08 18.9575,15.87 18.9175,16.7 C18.8475,18.07 17.9175,19.35 16.6475,19.85 C15.1575,20.44 13.6575,21.02 12.1975,21.68 C9.2575,23 6.4375,24.54 3.9175,26.58 C2.7675,27.5 1.7175,28.52 0.9275,29.78 C0.3975,30.62 0.0175,31.52 0.0075,32.54 C-0.0025,33.27 -0.0025,34.01 0.0075,34.75 C0.0175,35.04 0.0575,35.32 0.1175,35.59 L28.7675,35.59 C29.2375,35.13 29.7575,34.66 30.3475,34.19" id="Fill-3" fill="#35ABE1" mask="url(#mask-2)"></path>
                        </g>
                        <path d="M28.0175,1.79 C28.0175,1.67 28.0175,1.55 28.0075,1.43 C27.9475,0.66 27.2675,0.02 26.4875,0.01 C25.7875,0 25.0875,0.01 24.3975,0 C23.9375,0 23.5775,0.2 23.2775,0.52 C22.9575,0.87 22.8475,1.29 22.8475,1.76 C22.8575,5.07 22.8475,8.37 22.8475,11.68 L22.8475,12.04 C22.8075,11.95 22.7875,11.92 22.7875,11.89 C22.5575,10.76 22.3675,9.61 22.1075,8.48 C21.7275,6.83 21.3075,5.19 20.8775,3.56 C20.7875,3.2 20.5975,2.86 20.4375,2.52 C20.3575,2.34 20.2275,2.3 20.0175,2.37 C18.2875,2.93 16.7175,3.77 15.3275,4.94 C13.6475,6.34 12.3975,8.05 11.6075,10.09 C11.0775,11.44 10.8075,12.84 10.8075,14.3 C10.8075,14.59 10.6975,14.81 10.3975,14.91 C10.1975,14.98 9.9975,15.05 9.7975,15.1 C8.8175,15.35 8.1775,15.96 7.8375,16.9 C7.4975,17.83 7.4075,18.81 7.4075,19.79 C7.4075,19.83 7.4275,19.86 7.4375,19.89 L43.4775,19.89 C43.4475,18.73 43.3975,17.59 42.8875,16.53 C42.5575,15.83 42.0275,15.37 41.2775,15.15 C41.0575,15.09 40.8375,15.03 40.6275,14.96 C40.1875,14.83 40.0775,14.68 40.0775,14.24 C40.0575,12.58 39.7275,10.99 39.0275,9.5 C37.3575,5.89 34.5475,3.58 30.8075,2.35 C30.6475,2.3 30.5475,2.34 30.4675,2.47 C30.4075,2.55 30.3475,2.64 30.3175,2.73 C30.0975,3.37 29.8175,3.99 29.6675,4.64 C29.1575,6.87 28.6875,9.11 28.1975,11.34 C28.1475,11.56 28.1075,11.78 28.0575,12 C28.0475,11.99 28.0375,11.99 28.0175,11.99 L28.0175,11.73 L28.0175,1.79 Z" id="Fill-6" fill="#1F3D7C"></path>
                    </g>
                    <g id="Page-1" transform="translate(141.000000, 68.000000) rotate(-90.000000) translate(-141.000000, -68.000000) translate(73.000000, -73.000000)">
                        <g id="Group-3" transform="translate(0.000000, 0.336000)">
                            <mask id="mask-4" fill="white">
                                <use xlink:href="#path-3"></use>
                            </mask>
                            <g id="Clip-2"></g>
                            <path d="M57.77,135.4044 C57.76,135.3044 57.76,135.1944 57.76,135.0844 C57.76,134.4644 57.82,133.8544 57.93,133.2744 C26.39,128.5344 2.12,101.2544 2.12,68.4044 C2.12,32.2244 31.56,2.7844 67.74,2.7844 C103.92,2.7844 133.35,32.2244 133.35,68.4044 C133.35,101.2544 109.09,128.5344 77.55,133.2744 C77.66,133.8544 77.72,134.4644 77.72,135.0844 C77.72,135.1944 77.72,135.3044 77.71,135.4044 C110.35,130.5744 135.48,102.3644 135.48,68.4044 C135.48,31.0544 105.09,0.6644 67.74,0.6644 C30.38,0.6644 0,31.0544 0,68.4044 C0,102.3644 25.12,130.5744 57.77,135.4044" id="Fill-1" fill="#1F3D7C" mask="url(#mask-4)"></path>
                        </g>
                        <path d="M78.9905,197.906 L69.5605,210.156 L68.8005,211.136 L67.9805,212.196 C67.9005,212.216 67.8205,212.226 67.7405,212.226 C67.6505,212.226 67.5605,212.216 67.4805,212.196 L66.6705,211.146 L65.9105,210.166 L56.4805,197.916 C56.1205,197.446 55.4605,197.366 54.9905,197.726 C54.5305,198.076 54.4405,198.746 54.8005,199.216 L66.5705,214.506 L66.6705,214.626 L66.8905,214.916 C67.0905,215.176 67.4005,215.326 67.7305,215.326 C68.0605,215.326 68.3805,215.176 68.5805,214.916 L68.8005,214.626 L68.9005,214.506 L80.6805,199.206 C81.0305,198.746 80.9505,198.076 80.4805,197.716 C80.0205,197.356 79.3505,197.446 78.9905,197.906" id="Fill-4" fill="#1F3D7C"></path>
                        <path d="M68.8005,268.796 L68.8005,265.096 L68.8005,217.426 C68.5005,217.646 68.1405,217.766 67.7405,217.766 C67.3405,217.766 66.9705,217.636 66.6705,217.426 L66.6705,265.096 L66.6705,268.796 C63.9305,269.246 61.7905,271.476 61.4605,274.246 C61.4305,274.496 61.4105,274.756 61.4105,275.016 C61.4105,275.476 61.4605,275.926 61.5605,276.366 C62.1705,279.206 64.7005,281.336 67.7405,281.336 C70.7705,281.336 73.3005,279.206 73.9105,276.366 C74.0105,275.926 74.0605,275.476 74.0605,275.016 C74.0605,274.756 74.0405,274.496 74.0105,274.246 C73.6805,271.476 71.5405,269.246 68.8005,268.796" id="Fill-6" fill="#1F3D7C"></path>
                        <path d="M66.1305,203.966 L66.6705,204.666 L66.8905,204.956 C66.9105,204.986 66.9305,205.006 66.9605,205.026 C67.1505,205.246 67.4305,205.366 67.7305,205.366 C68.0305,205.366 68.3205,205.246 68.5205,205.016 C68.5405,205.006 68.5605,204.976 68.5805,204.956 L68.8005,204.666 L69.3505,203.956 L80.6805,189.246 C81.0305,188.786 80.9505,188.116 80.4805,187.756 C80.0205,187.396 79.3505,187.486 78.9905,187.946 L68.8005,201.176 L68.8005,145.336 L68.8005,141.636 C71.5405,141.186 73.6805,138.966 74.0105,136.186 C74.0405,135.936 74.0605,135.676 74.0605,135.416 C74.0605,134.946 74.0105,134.496 73.9105,134.056 C73.2905,131.216 70.7605,129.086 67.7405,129.086 C64.7105,129.086 62.1805,131.216 61.5605,134.056 C61.4605,134.496 61.4105,134.946 61.4105,135.416 C61.4105,135.676 61.4305,135.936 61.4605,136.186 C61.7905,138.966 63.9305,141.186 66.6705,141.636 L66.6705,145.336 L66.6705,201.186 L56.4805,187.956 C56.1205,187.486 55.4605,187.406 54.9905,187.766 C54.5305,188.116 54.4405,188.786 54.8005,189.256 L66.1305,203.966 Z" id="Fill-8" fill="#1F3D7C"></path>
                    </g>
                </g>
                <g id="Group-Copy-2" transform="translate(565.000000, 100.000000)">
                    <g id="Page-1" transform="translate(141.000000, 68.000000) rotate(-90.000000) translate(-141.000000, -68.000000) translate(73.000000, -73.000000)">
                        <g id="Group-3" transform="translate(0.000000, 0.336000)">
                            <mask id="mask-6" fill="white">
                                <use xlink:href="#path-5"></use>
                            </mask>
                            <g id="Clip-2"></g>
                            <path d="M57.77,135.4044 C57.76,135.3044 57.76,135.1944 57.76,135.0844 C57.76,134.4644 57.82,133.8544 57.93,133.2744 C26.39,128.5344 2.12,101.2544 2.12,68.4044 C2.12,32.2244 31.56,2.7844 67.74,2.7844 C103.92,2.7844 133.35,32.2244 133.35,68.4044 C133.35,101.2544 109.09,128.5344 77.55,133.2744 C77.66,133.8544 77.72,134.4644 77.72,135.0844 C77.72,135.1944 77.72,135.3044 77.71,135.4044 C110.35,130.5744 135.48,102.3644 135.48,68.4044 C135.48,31.0544 105.09,0.6644 67.74,0.6644 C30.38,0.6644 0,31.0544 0,68.4044 C0,102.3644 25.12,130.5744 57.77,135.4044" id="Fill-1" fill="#1F3D7C" mask="url(#mask-6)"></path>
                        </g>
                        <path d="M78.9905,197.906 L69.5605,210.156 L68.8005,211.136 L67.9805,212.196 C67.9005,212.216 67.8205,212.226 67.7405,212.226 C67.6505,212.226 67.5605,212.216 67.4805,212.196 L66.6705,211.146 L65.9105,210.166 L56.4805,197.916 C56.1205,197.446 55.4605,197.366 54.9905,197.726 C54.5305,198.076 54.4405,198.746 54.8005,199.216 L66.5705,214.506 L66.6705,214.626 L66.8905,214.916 C67.0905,215.176 67.4005,215.326 67.7305,215.326 C68.0605,215.326 68.3805,215.176 68.5805,214.916 L68.8005,214.626 L68.9005,214.506 L80.6805,199.206 C81.0305,198.746 80.9505,198.076 80.4805,197.716 C80.0205,197.356 79.3505,197.446 78.9905,197.906" id="Fill-4" fill="#1F3D7C"></path>
                        <path d="M68.8005,268.796 L68.8005,265.096 L68.8005,217.426 C68.5005,217.646 68.1405,217.766 67.7405,217.766 C67.3405,217.766 66.9705,217.636 66.6705,217.426 L66.6705,265.096 L66.6705,268.796 C63.9305,269.246 61.7905,271.476 61.4605,274.246 C61.4305,274.496 61.4105,274.756 61.4105,275.016 C61.4105,275.476 61.4605,275.926 61.5605,276.366 C62.1705,279.206 64.7005,281.336 67.7405,281.336 C70.7705,281.336 73.3005,279.206 73.9105,276.366 C74.0105,275.926 74.0605,275.476 74.0605,275.016 C74.0605,274.756 74.0405,274.496 74.0105,274.246 C73.6805,271.476 71.5405,269.246 68.8005,268.796" id="Fill-6" fill="#1F3D7C"></path>
                        <path d="M66.1305,203.966 L66.6705,204.666 L66.8905,204.956 C66.9105,204.986 66.9305,205.006 66.9605,205.026 C67.1505,205.246 67.4305,205.366 67.7305,205.366 C68.0305,205.366 68.3205,205.246 68.5205,205.016 C68.5405,205.006 68.5605,204.976 68.5805,204.956 L68.8005,204.666 L69.3505,203.956 L80.6805,189.246 C81.0305,188.786 80.9505,188.116 80.4805,187.756 C80.0205,187.396 79.3505,187.486 78.9905,187.946 L68.8005,201.176 L68.8005,145.336 L68.8005,141.636 C71.5405,141.186 73.6805,138.966 74.0105,136.186 C74.0405,135.936 74.0605,135.676 74.0605,135.416 C74.0605,134.946 74.0105,134.496 73.9105,134.056 C73.2905,131.216 70.7605,129.086 67.7405,129.086 C64.7105,129.086 62.1805,131.216 61.5605,134.056 C61.4605,134.496 61.4105,134.946 61.4105,135.416 C61.4105,135.676 61.4305,135.936 61.4605,136.186 C61.7905,138.966 63.9305,141.186 66.6705,141.636 L66.6705,145.336 L66.6705,201.186 L56.4805,187.956 C56.1205,187.486 55.4605,187.406 54.9905,187.766 C54.5305,188.116 54.4405,188.786 54.8005,189.256 L66.1305,203.966 Z" id="Fill-8" fill="#1F3D7C"></path>
                    </g>
                </g>
                <g id="Group-Copy" transform="translate(282.000000, 100.000000)">
                    <g id="Page-1" transform="translate(141.000000, 68.000000) rotate(-90.000000) translate(-141.000000, -68.000000) translate(73.000000, -73.000000)">
                        <g id="Group-3" transform="translate(0.000000, 0.336000)">
                            <mask id="mask-8" fill="white">
                                <use xlink:href="#path-7"></use>
                            </mask>
                            <g id="Clip-2"></g>
                            <path d="M57.77,135.4044 C57.76,135.3044 57.76,135.1944 57.76,135.0844 C57.76,134.4644 57.82,133.8544 57.93,133.2744 C26.39,128.5344 2.12,101.2544 2.12,68.4044 C2.12,32.2244 31.56,2.7844 67.74,2.7844 C103.92,2.7844 133.35,32.2244 133.35,68.4044 C133.35,101.2544 109.09,128.5344 77.55,133.2744 C77.66,133.8544 77.72,134.4644 77.72,135.0844 C77.72,135.1944 77.72,135.3044 77.71,135.4044 C110.35,130.5744 135.48,102.3644 135.48,68.4044 C135.48,31.0544 105.09,0.6644 67.74,0.6644 C30.38,0.6644 0,31.0544 0,68.4044 C0,102.3644 25.12,130.5744 57.77,135.4044" id="Fill-1" fill="#1F3D7C" mask="url(#mask-8)"></path>
                        </g>
                        <path d="M78.9905,197.906 L69.5605,210.156 L68.8005,211.136 L67.9805,212.196 C67.9005,212.216 67.8205,212.226 67.7405,212.226 C67.6505,212.226 67.5605,212.216 67.4805,212.196 L66.6705,211.146 L65.9105,210.166 L56.4805,197.916 C56.1205,197.446 55.4605,197.366 54.9905,197.726 C54.5305,198.076 54.4405,198.746 54.8005,199.216 L66.5705,214.506 L66.6705,214.626 L66.8905,214.916 C67.0905,215.176 67.4005,215.326 67.7305,215.326 C68.0605,215.326 68.3805,215.176 68.5805,214.916 L68.8005,214.626 L68.9005,214.506 L80.6805,199.206 C81.0305,198.746 80.9505,198.076 80.4805,197.716 C80.0205,197.356 79.3505,197.446 78.9905,197.906" id="Fill-4" fill="#1F3D7C"></path>
                        <path d="M68.8005,268.796 L68.8005,265.096 L68.8005,217.426 C68.5005,217.646 68.1405,217.766 67.7405,217.766 C67.3405,217.766 66.9705,217.636 66.6705,217.426 L66.6705,265.096 L66.6705,268.796 C63.9305,269.246 61.7905,271.476 61.4605,274.246 C61.4305,274.496 61.4105,274.756 61.4105,275.016 C61.4105,275.476 61.4605,275.926 61.5605,276.366 C62.1705,279.206 64.7005,281.336 67.7405,281.336 C70.7705,281.336 73.3005,279.206 73.9105,276.366 C74.0105,275.926 74.0605,275.476 74.0605,275.016 C74.0605,274.756 74.0405,274.496 74.0105,274.246 C73.6805,271.476 71.5405,269.246 68.8005,268.796" id="Fill-6" fill="#1F3D7C"></path>
                        <path d="M66.1305,203.966 L66.6705,204.666 L66.8905,204.956 C66.9105,204.986 66.9305,205.006 66.9605,205.026 C67.1505,205.246 67.4305,205.366 67.7305,205.366 C68.0305,205.366 68.3205,205.246 68.5205,205.016 C68.5405,205.006 68.5605,204.976 68.5805,204.956 L68.8005,204.666 L69.3505,203.956 L80.6805,189.246 C81.0305,188.786 80.9505,188.116 80.4805,187.756 C80.0205,187.396 79.3505,187.486 78.9905,187.946 L68.8005,201.176 L68.8005,145.336 L68.8005,141.636 C71.5405,141.186 73.6805,138.966 74.0105,136.186 C74.0405,135.936 74.0605,135.676 74.0605,135.416 C74.0605,134.946 74.0105,134.496 73.9105,134.056 C73.2905,131.216 70.7605,129.086 67.7405,129.086 C64.7105,129.086 62.1805,131.216 61.5605,134.056 C61.4605,134.496 61.4105,134.946 61.4105,135.416 C61.4105,135.676 61.4305,135.936 61.4605,136.186 C61.7905,138.966 63.9305,141.186 66.6705,141.636 L66.6705,145.336 L66.6705,201.186 L56.4805,187.956 C56.1205,187.486 55.4605,187.406 54.9905,187.766 C54.5305,188.116 54.4405,188.786 54.8005,189.256 L66.1305,203.966 Z" id="Fill-8" fill="#1F3D7C"></path>
                    </g>
                </g>
                <g id="Group-3" transform="translate(915.000000, 168.000000) rotate(-90.000000) translate(-915.000000, -168.000000) translate(847.000000, 100.000000)">
                    <mask id="mask-10" fill="white">
                        <use xlink:href="#path-9"></use>
                    </mask>
                    <g id="Clip-2"></g>
                    <path d="M57.77,135.4044 C57.76,135.3044 57.76,135.1944 57.76,135.0844 C57.76,134.4644 57.82,133.8544 57.93,133.2744 C26.39,128.5344 2.12,101.2544 2.12,68.4044 C2.12,32.2244 31.56,2.7844 67.74,2.7844 C103.92,2.7844 133.35,32.2244 133.35,68.4044 C133.35,101.2544 109.09,128.5344 77.55,133.2744 C77.66,133.8544 77.72,134.4644 77.72,135.0844 C77.72,135.1944 77.72,135.3044 77.71,135.4044 C110.35,130.5744 135.48,102.3644 135.48,68.4044 C135.48,31.0544 105.09,0.6644 67.74,0.6644 C30.38,0.6644 0,31.0544 0,68.4044 C0,102.3644 25.12,130.5744 57.77,135.4044" id="Fill-1" fill="#1F3D7C" mask="url(#mask-10)"></path>
                </g>
                <g id="Group-3-Copy" transform="translate(1200.000000, 168.000000) rotate(-90.000000) translate(-1200.000000, -168.000000) translate(1132.000000, 100.000000)">
                    <mask id="mask-12" fill="white">
                        <use xlink:href="#path-11"></use>
                    </mask>
                    <g id="Clip-2"></g>
                    <path d="M57.77,135.4044 C57.76,135.3044 57.76,135.1944 57.76,135.0844 C57.76,134.4644 57.82,133.8544 57.93,133.2744 C26.39,128.5344 2.12,101.2544 2.12,68.4044 C2.12,32.2244 31.56,2.7844 67.74,2.7844 C103.92,2.7844 133.35,32.2244 133.35,68.4044 C133.35,101.2544 109.09,128.5344 77.55,133.2744 C77.66,133.8544 77.72,134.4644 77.72,135.0844 C77.72,135.1944 77.72,135.3044 77.71,135.4044 C110.35,130.5744 135.48,102.3644 135.48,68.4044 C135.48,31.0544 105.09,0.6644 67.74,0.6644 C30.38,0.6644 0,31.0544 0,68.4044 C0,102.3644 25.12,130.5744 57.77,135.4044" id="Fill-1" fill="#1F3D7C" mask="url(#mask-12)"></path>
                </g>
                <g id="Page-1" transform="translate(1162.000000, 132.000000)">
                    <path d="M67.59,28.3 C67.28,27.99 66.93,27.83 66.5,27.79 C66.17,27.76 65.86,27.68 65.57,27.55 C65.04,27.29 64.61,26.88 64.35,26.35 C64.19,26.04 64.1,25.69 64.07,25.32 C64.03,24.75 63.64,24.28 63.12,24.13 C63,24.09 62.87,24.07 62.73,24.07 C62.33,24.07 62.01,24.22 61.73,24.49 C61.47,24.75 61.2,25.01 60.93,25.27 C60.89,25.24 60.86,25.21 60.83,25.18 C59.59,23.99 58.35,22.8 57.11,21.62 C55.46,20.04 53.82,18.47 52.17,16.89 C51.94,16.67 51.78,16.43 51.74,16.1 C51.7,15.8 51.6,15.54 51.41,15.31 C51.33,15.19 51.22,15.08 51.09,14.98 C50.71,14.69 50.34,14.39 49.97,14.09 C49.7,13.87 49.42,13.66 49.15,13.44 C48.91,13.25 48.66,13.08 48.41,12.91 C48.38,12.89 48.35,12.87 48.32,12.86 C48.18,12.8 48.04,12.78 47.92,12.86 C47.89,12.87 47.86,12.89 47.84,12.91 C47.52,13.21 47.23,13.54 46.93,13.86 L46.93,14.09 C47.01,14.21 47.08,14.35 47.17,14.46 C47.4,14.74 47.63,15.03 47.86,15.31 C48.27,15.82 48.69,16.33 49.1,16.85 C49.41,17.25 49.8,17.47 50.29,17.53 C50.6,17.57 50.85,17.72 51.06,17.94 C51.12,18.01 51.19,18.07 51.25,18.14 C54.01,20.91 56.76,23.68 59.51,26.46 L59.59,26.54 C59.3,26.83 59.03,27.11 58.76,27.41 C58.51,27.68 58.37,27.98 58.37,28.31 C58.37,28.46 58.41,28.62 58.47,28.79 C58.68,29.31 59.08,29.6 59.64,29.64 C61.04,29.74 62.05,30.71 62.19,32.12 C62.22,32.48 62.36,32.78 62.62,33.03 C62.79,33.19 62.95,33.36 63.12,33.52 C63.53,33.92 63.94,34.33 64.35,34.73 C64.76,35.13 65.16,35.53 65.57,35.93 C66.37,36.71 67.16,37.5 67.96,38.28 C68.3,38.61 68.69,38.84 69.14,38.96 C69.3,39 69.46,39.03 69.61,39.06 L70.14,39.06 C70.17,39.05 70.21,39.04 70.24,39.04 C70.81,38.96 71.31,38.73 71.73,38.34 C72.13,37.96 72.52,37.57 72.91,37.18 C73.33,36.74 73.58,36.22 73.63,35.61 C73.71,34.73 73.4,34 72.77,33.39 C71.03,31.7 69.31,30 67.59,28.3" id="Fill-1" fill="#35ABE1"></path>
                    <path d="M75.5399,16.03 C74.7499,16.46 73.9499,16.89 73.1599,17.32 C72.3499,17.75 71.5399,18.19 70.7299,18.62 C70.6499,18.67 70.5899,18.67 70.5099,18.62 C69.8099,18.2 69.1199,17.79 68.4199,17.38 C68.3399,17.33 68.3199,17.28 68.3199,17.19 C68.3399,16.4 68.3599,15.61 68.3699,14.81 C68.3699,14.71 68.4099,14.65 68.4999,14.6 C70.1499,13.72 71.7999,12.83 73.4399,11.94 C73.4899,11.91 73.5399,11.88 73.5999,11.85 C72.9599,11.29 72.2499,10.89 71.4699,10.63 C70.9799,10.47 70.4899,10.37 69.9799,10.33 C69.9299,10.33 69.8899,10.32 69.8499,10.31 L69.1199,10.31 C69.0699,10.32 69.0199,10.33 68.9699,10.33 C67.3099,10.48 65.8999,11.16 64.7999,12.41 C64.6399,12.59 64.4899,12.78 64.3499,12.98 C64.0999,13.33 63.8899,13.7 63.7399,14.09 C63.2999,15.1 63.1799,16.21 63.3599,17.39 C63.4299,17.84 63.3599,18.23 63.1199,18.58 C63.0499,18.68 62.9699,18.77 62.8799,18.86 C61.7699,19.94 60.6699,21.03 59.5699,22.12 C59.5299,22.16 59.4999,22.2 59.4499,22.24 C59.9499,22.71 60.4299,23.18 60.9199,23.65 C61.5599,23.06 62.2899,22.82 63.1199,22.95 C63.1499,22.95 63.1699,22.96 63.1999,22.96 C63.6499,23.04 64.0299,23.21 64.3499,23.48 C64.6399,23.73 64.8899,24.05 65.0799,24.45 C65.1399,24.38 65.1699,24.32 65.2199,24.28 C65.3399,24.16 65.4499,24.05 65.5699,23.94 C65.9599,23.54 66.3699,23.15 66.7699,22.76 C67.1599,22.37 67.6299,22.24 68.1699,22.36 C69.0899,22.58 70.0099,22.61 70.9299,22.36 C73.3599,21.69 74.9299,20.16 75.5399,17.69 C75.6199,17.39 75.6399,17.09 75.6899,16.79 L75.6899,16.03 C75.6399,15.92 75.5799,16.01 75.5399,16.03" id="Fill-3" fill="#35ABE1"></path>
                    <path d="M57.26,28.78 C57.23,28.61 57.21,28.44 57.21,28.27 C57.21,27.63 57.47,27.05 57.95,26.55 C57.47,26.08 56.99,25.61 56.51,25.13 C56.48,25.16 56.44,25.19 56.4,25.23 C55.94,25.69 55.47,26.14 55.01,26.6 C52.71,28.86 50.41,31.11 48.11,33.37 C47.05,34.41 47.01,35.96 47.84,37 C48.07,37.28 48.37,37.53 48.73,37.72 C49.82,38.3 51.13,38.1 52.03,37.21 C54.14,35.15 56.24,33.08 58.34,31.01 C58.48,30.89 58.61,30.76 58.75,30.61 C57.95,30.22 57.42,29.64 57.26,28.78" id="Fill-5" fill="#35ABE1"></path>
                    <path d="M30.73,21.8599 L15.5,21.8599 C15,21.8599 14.6,22.2599 14.6,22.7599 C14.6,23.2599 15,23.6699 15.5,23.6699 L30.73,23.6699 C31.23,23.6699 31.64,23.2599 31.64,22.7599 C31.64,22.2599 31.23,21.8599 30.73,21.8599" id="Fill-7" fill="#35ABE1"></path>
                    <path d="M30.73,28.55 L15.5,28.55 C15,28.55 14.6,28.95 14.6,29.45 C14.6,29.95 15,30.36 15.5,30.36 L30.73,30.36 C31.23,30.36 31.64,29.95 31.64,29.45 C31.64,28.95 31.23,28.55 30.73,28.55" id="Fill-9" fill="#35ABE1"></path>
                    <path d="M30.73,35.2399 L15.5,35.2399 C15,35.2399 14.6,35.6399 14.6,36.1399 C14.6,36.6499 15,37.0499 15.5,37.0499 L30.73,37.0499 C31.23,37.0499 31.64,36.6499 31.64,36.1399 C31.64,35.6399 31.23,35.2399 30.73,35.2399" id="Fill-11" fill="#35ABE1"></path>
                    <path d="M30.73,41.93 L15.5,41.93 C15,41.93 14.6,42.33 14.6,42.83 C14.6,43.34 15,43.74 15.5,43.74 L30.73,43.74 C31.23,43.74 31.64,43.34 31.64,42.83 C31.64,42.33 31.23,41.93 30.73,41.93" id="Fill-13" fill="#35ABE1"></path>
                    <path d="M10.8699,21.8599 L9.5699,21.8599 C9.0599,21.8599 8.6599,22.2599 8.6599,22.7599 C8.6599,23.2599 9.0599,23.6699 9.5699,23.6699 L10.8699,23.6699 C11.3799,23.6699 11.7799,23.2599 11.7799,22.7599 C11.7799,22.2599 11.3799,21.8599 10.8699,21.8599" id="Fill-15" fill="#35ABE1"></path>
                    <path d="M10.8699,28.55 L9.5699,28.55 C9.0599,28.55 8.6599,28.95 8.6599,29.45 C8.6599,29.95 9.0599,30.36 9.5699,30.36 L10.8699,30.36 C11.3799,30.36 11.7799,29.95 11.7799,29.45 C11.7799,28.95 11.3799,28.55 10.8699,28.55" id="Fill-17" fill="#35ABE1"></path>
                    <path d="M10.8699,35.2399 L9.5699,35.2399 C9.0599,35.2399 8.6599,35.6399 8.6599,36.1399 C8.6599,36.6499 9.0599,37.0499 9.5699,37.0499 L10.8699,37.0499 C11.3799,37.0499 11.7799,36.6499 11.7799,36.1399 C11.7799,35.6399 11.3799,35.2399 10.8699,35.2399" id="Fill-19" fill="#35ABE1"></path>
                    <path d="M10.8699,41.93 L9.5699,41.93 C9.0599,41.93 8.6599,42.33 8.6599,42.83 C8.6599,43.34 9.0599,43.74 9.5699,43.74 L10.8699,43.74 C11.3799,43.74 11.7799,43.34 11.7799,42.83 C11.7799,42.33 11.3799,41.93 10.8699,41.93" id="Fill-21" fill="#35ABE1"></path>
                    <g id="Group-25" transform="translate(0.000000, 0.579900)">
                        <mask id="mask-14" fill="white">
                            <use xlink:href="#path-13"></use>
                        </mask>
                        <g id="Clip-24"></g>
                        <path d="M42.9099,13.51 C42.9399,13.47 42.9599,13.42 42.9899,13.38 C43.0999,13.2 43.2199,13.01 43.3399,12.83 C43.4599,12.64 43.5799,12.46 43.6999,12.28 C43.9199,11.96 44.1599,11.64 44.3999,11.33 C45.2699,10.21 46.2599,9.18 47.3399,8.26 C47.7399,7.91 48.1599,7.59 48.5899,7.27 C52.0299,4.76 56.2599,3.28 60.8299,3.28 C66.9299,3.28 72.4299,5.92 76.2399,10.11 C79.6099,13.81 81.6599,18.72 81.6599,24.11 C81.6599,33.96 74.7799,42.24 65.5699,44.38 C65.1699,44.48 64.7599,44.56 64.3499,44.63 C63.9399,44.7 63.5299,44.76 63.1199,44.8 C62.3699,44.89 61.5999,44.93 60.8299,44.93 C54.7299,44.93 49.2399,42.29 45.4299,38.1 C42.0599,34.4 40.0099,29.49 40.0099,24.11 C40.0099,20.74 40.8199,17.55 42.2499,14.73 C42.4499,14.32 42.6799,13.91 42.9099,13.51 Z M2.4499,14.73 L39.0799,14.73 C37.8399,17.6 37.1499,20.77 37.1499,24.11 C37.1499,37.17 47.7699,47.79 60.8299,47.79 C61.5999,47.79 62.3699,47.75 63.1199,47.68 L63.1199,56.5 L2.4499,56.5 L2.4499,14.73 Z M65.5699,57.08 L65.5699,47.32 C76.3699,45.11 84.5199,35.55 84.5199,24.11 C84.5199,11.04 73.8999,0.42 60.8299,0.42 C55.0799,0.42 49.7899,2.48 45.6799,5.91 C44.2999,7.06 43.0599,8.37 41.9699,9.8 C41.3699,10.59 40.8199,11.42 40.3199,12.28 L1.8599,12.28 C0.8399,12.28 -0.0001,13.12 -0.0001,14.15 L-0.0001,57.08 C-0.0001,58.11 0.8399,58.95 1.8599,58.95 L27.2799,58.95 C27.2399,59.04 27.2099,59.13 27.1899,59.23 L25.4599,68.16 L18.3699,68.16 L18.3699,71 L47.1999,71 L47.1999,68.16 L40.1099,68.16 L38.3799,59.23 C38.3599,59.13 38.3299,59.04 38.2899,58.95 L63.7099,58.95 C64.7399,58.95 65.5699,58.11 65.5699,57.08 Z" id="Fill-23" fill="#1F3D7C" mask="url(#mask-14)"></path>
                    </g>
                </g>
                <path d="M1064.11659,159.415304 L1054.80048,171.781121 L1054.04966,172.770386 L1053.23956,173.840408 C1053.16053,173.860597 1053.08149,173.870691 1053.00246,173.870691 C1052.91354,173.870691 1052.82463,173.860597 1052.7456,173.840408 L1051.94538,172.780481 L1051.19456,171.791215 L1041.87845,159.425398 C1041.5228,158.950955 1040.87077,158.870199 1040.40645,159.233602 C1039.952,159.586911 1039.86309,160.263246 1040.21874,160.737689 L1051.84659,176.172247 L1051.94538,176.293382 L1052.16272,176.586124 C1052.36031,176.848582 1052.66656,177 1052.99258,177 C1053.31859,177 1053.63473,176.848582 1053.83231,176.586124 L1054.04966,176.293382 L1054.14845,176.172247 L1065.78618,160.727595 C1066.13195,160.263246 1066.05291,159.586911 1065.58859,159.223508 C1065.13415,158.860104 1064.47224,158.950955 1064.11659,159.415304" id="Fill-4" fill="#1F3D7C" transform="translate(1053.000000, 168.000000) rotate(-90.000000) translate(-1053.000000, -168.000000) "></path>
                <path d="M1162.7292,252.442341 L1162.7292,248.73713 L1162.7292,201 C1162.42858,201.22031 1162.06784,201.340479 1161.66702,201.340479 C1161.2662,201.340479 1160.89544,201.210296 1160.59482,201 L1160.59482,248.73713 L1160.59482,252.442341 C1157.84919,252.892974 1155.7048,255.126115 1155.37412,257.900016 C1155.34406,258.150368 1155.32402,258.410734 1155.32402,258.6711 C1155.32402,259.131748 1155.37412,259.582381 1155.47433,260.023001 C1156.08558,262.867 1158.62078,265 1161.66702,265 C1164.70324,265 1167.23844,262.867 1167.84969,260.023001 C1167.9499,259.582381 1168,259.131748 1168,258.6711 C1168,258.410734 1167.97996,258.150368 1167.9499,257.900016 C1167.61922,255.126115 1165.47482,252.892974 1162.7292,252.442341 L1026,258.6711" id="Fill-6" fill="#1F3D7C" transform="translate(1097.000000, 233.000000) rotate(-90.000000) translate(-1097.000000, -233.000000) "></path>
                <path d="M1012.4119,204.605139 L1012.94538,205.302569 L1013.16272,205.591505 C1013.18248,205.621395 1013.20224,205.641321 1013.23188,205.661248 C1013.41958,205.88044 1013.6962,206 1013.99258,206 C1014.28896,206 1014.57545,205.88044 1014.77304,205.651285 C1014.7928,205.641321 1014.81255,205.611432 1014.83231,205.591505 L1015.04966,205.302569 L1015.59301,204.595176 L1026.78618,189.939171 C1027.13195,189.48086 1027.05291,188.813319 1026.58859,188.454641 C1026.13415,188.095962 1025.47224,188.185632 1025.11659,188.643943 L1015.04966,201.82538 L1015.04966,146.190351 L1015.04966,142.503933 C1017.75656,142.055585 1019.87072,139.843734 1020.19673,137.073938 C1020.22637,136.824856 1020.24613,136.56581 1020.24613,136.306765 C1020.24613,135.83849 1020.19673,135.390142 1020.09794,134.951757 C1019.48543,132.122181 1016.98598,130 1014.00246,130 C1011.00905,130 1008.50961,132.122181 1007.8971,134.951757 C1007.7983,135.390142 1007.74891,135.83849 1007.74891,136.306765 C1007.74891,136.56581 1007.76867,136.824856 1007.7983,137.073938 C1008.12432,139.843734 1010.23847,142.055585 1012.94538,142.503933 L1012.94538,146.190351 L1012.94538,201.835343 L1002.87845,188.653907 C1002.5228,188.185632 1001.87077,188.105926 1001.40645,188.464604 C1000.952,188.813319 1000.86309,189.48086 1001.21874,189.949135 L1012.4119,204.605139 Z" id="Fill-8" fill="#1F3D7C" transform="translate(1014.000000, 168.000000) rotate(-90.000000) translate(-1014.000000, -168.000000) "></path>
                <circle id="Oval-5" fill="#1F3D7C" cx="1268.5" cy="167.5" r="6.5"></circle>
                <g id="Page-1" transform="translate(320.000000, 135.000000)">
                    <g id="Group-3" transform="translate(54.000000, 0.954900)">
                        <mask id="mask-16" fill="white">
                            <use xlink:href="#path-15"></use>
                        </mask>
                        <g id="Clip-2"></g>
                        <path d="M10.6027,8.5251 C12.4027,3.8251 12.4027,3.8151 8.5327,0.4951 C8.2027,0.2151 7.5827,-0.0449 7.2327,0.0751 C5.1027,0.7951 3.0027,1.6351 0.9627,2.4051 C3.8827,5.3451 6.6727,8.1451 9.5927,11.0651 C9.9327,10.2051 10.2827,9.3651 10.6027,8.5251" id="Fill-1" fill="#35ABE1" mask="url(#mask-16)"></path>
                    </g>
                    <path d="M11.8927,47.02 C14.5727,49.7 17.4327,52.57 20.1927,55.34 C33.7727,41.77 47.4027,28.14 60.9227,14.62 C58.1427,11.84 55.2427,8.94 52.6227,6.32 C39.1027,19.83 25.4527,33.47 11.8927,47.02" id="Fill-4" fill="#35ABE1"></path>
                    <path d="M17.7527,58.18 C14.7227,55.15 11.8427,52.28 9.0127,49.46 C8.4827,49.97 7.8027,50.62 7.3227,51.09 C10.2427,54.01 13.1227,56.9 15.9727,59.75 C16.5027,59.28 17.1827,58.68 17.7527,58.18" id="Fill-6" fill="#1F3D7C"></path>
                    <path d="M0.2728,61.32 C1.2028,64.09 3.2428,66.4 6.3028,66.89 C9.8628,67.45 11.3028,64.25 13.3428,62.5 C10.3428,59.5 7.5028,56.65 4.5128,53.65 C2.5828,55.96 -1.0172,57.49 0.2728,61.32" id="Fill-8" fill="#1F3D7C"></path>
                </g>
                <g id="Page-1" transform="translate(604.000000, 127.000000)">
                    <g id="Group-3" transform="translate(0.000000, 1.800000)">
                        <mask id="mask-18" fill="white">
                            <use xlink:href="#path-17"></use>
                        </mask>
                        <g id="Clip-2"></g>
                        <path d="M11.63,71.29 L47.81,71.29 C49.66,71.29 51.18,69.78 51.18,67.92 L51.18,12 L53.25,12 L53.25,73.22 L11.63,73.22 L11.63,71.29 Z M6.85,71.29 L6.85,74.62 C6.85,76.48 8.37,78 10.23,78 L54.65,78 C56.51,78 58.03,76.48 58.03,74.62 L58.03,10.58 C58.03,8.73 56.51,7.21 54.65,7.21 L51.18,7.21 L51.18,3.88 C51.18,2.02 49.66,0.5 47.81,0.5 L44.28,0.5 L44.28,2.9 L44.28,5.3 L46.4,5.3 L46.4,5.9 L46.4,21.56 L46.4,66.51 L11.63,66.51 L6.85,66.51 L4.78,66.51 L4.78,5.3 L35.01,5.3 L35.01,2.9 L35.01,0.5 L3.38,0.5 C1.52,0.5 0,2.02 0,3.88 L0,67.92 C0,69.78 1.52,71.29 3.38,71.29 L6.85,71.29 Z" id="Fill-1" fill="#35ABE1" mask="url(#mask-18)"></path>
                    </g>
                    <g id="Group-6" transform="translate(35.000000, 0.800000)">
                        <mask id="mask-20" fill="white">
                            <use xlink:href="#path-19"></use>
                        </mask>
                        <g id="Clip-5"></g>
                        <path d="M5.42,15.5099 L6.86,13.8599 L8.45,12.0599 L8.52,11.9799 C8.95,11.4899 9.28,10.5799 9.28,9.9499 L9.28,7.7699 L9.28,6.8999 L9.28,6.2999 L9.28,3.8999 L9.28,1.4999 L9.28,1.3599 C9.28,0.7199 8.77,0.1999 8.13,0.1999 L7.81,0.1999 L6.34,0.1999 L2.95,0.1999 L1.48,0.1999 L1.16,0.1999 C0.53,0.1999 0.01,0.7199 0.01,1.3599 L0.01,1.4999 L0.01,3.8999 L0.01,6.2999 L0.01,7.7699 L0.01,8.2099 L0.01,9.2399 L0.01,9.9499 C0.01,10.5799 0.35,11.4899 0.77,11.9799 L1.67,12.9999 L3.89,15.5099 C4.3,15.9799 4.99,15.9799 5.42,15.5099" id="Fill-4" fill="#1F3D7C" mask="url(#mask-20)"></path>
                    </g>
                    <path d="M11.5299,33.04 L11.6299,33.04 L29.0999,33.04 C29.7199,33.04 30.2299,32.55 30.2299,31.93 C30.2299,31.31 29.7199,30.8 29.0999,30.8 L11.6299,30.8 L11.5299,30.8 C10.9099,30.8 10.4099,31.31 10.4099,31.93 C10.4099,32.55 10.9099,33.04 11.5299,33.04" id="Fill-7" fill="#1F3D7C"></path>
                    <path d="M11.5299,24.33 L11.6299,24.33 L29.0999,24.33 C29.7199,24.33 30.2299,23.83 30.2299,23.21 C30.2299,22.59 29.7199,22.09 29.0999,22.09 L11.6299,22.09 L11.5299,22.09 C10.9099,22.09 10.4099,22.59 10.4099,23.21 C10.4099,23.83 10.9099,24.33 11.5299,24.33" id="Fill-9" fill="#1F3D7C"></path>
                    <path d="M10.41,14.5 C10.41,15.11 10.91,15.61 11.53,15.61 L11.63,15.61 L29.1,15.61 C29.72,15.61 30.23,15.11 30.23,14.5 C30.23,14.24 30.14,13.99 29.98,13.8 C29.78,13.54 29.46,13.37 29.1,13.37 L11.53,13.37 C10.91,13.37 10.41,13.88 10.41,14.5" id="Fill-11" fill="#1F3D7C"></path>
                </g>
                <g id="Page-1" transform="translate(886.000000, 121.000000)">
                    <path d="M36.5801,4.8101 C35.8201,4.8101 34.9001,4.2601 34.5401,3.6001 C34.5401,3.6001 32.5701,0.0001 29.4501,0.0001 C26.3301,0.0001 24.3601,3.6001 24.3601,3.6001 C23.9901,4.2601 23.0701,4.8101 22.3101,4.8101 L16.4901,4.8101 C15.7301,4.8101 15.1101,5.4301 15.1101,6.1901 L15.1101,8.1701 L15.1101,10.0101 L15.1101,11.8501 L15.1101,12.8801 C15.1101,13.6401 15.7301,14.2601 16.4901,14.2601 L42.4001,14.2601 C43.1601,14.2601 43.7901,13.6401 43.7901,12.8801 L43.7901,11.8501 L43.7901,10.0101 L43.7901,8.1701 L43.7901,6.1901 C43.7901,5.4301 43.1601,4.8101 42.4001,4.8101 L36.5801,4.8101 Z" id="Fill-1" fill="#35ABE1"></path>
                    <path d="M48.1201,54.9 C48.0401,54.82 47.9201,54.77 47.8101,54.77 C47.7001,54.77 47.5901,54.81 47.5101,54.89 L32.6601,67.62 L25.0501,63.71 C24.9901,63.67 24.9101,63.65 24.8401,63.65 C24.7101,63.65 24.5901,63.71 24.5001,63.81 C24.3601,63.96 24.3401,64.2 24.4601,64.37 L31.8101,75.32 C31.8901,75.44 32.0201,75.51 32.1701,75.52 L32.1901,75.52 C32.3301,75.52 32.4601,75.46 32.5501,75.34 L48.1701,55.52 C48.3101,55.33 48.3001,55.07 48.1201,54.9" id="Fill-3" fill="#35ABE1"></path>
                    <path d="M23.47,26.1701 C23.47,26.9201 24.08,27.5301 24.83,27.5301 L47.68,27.5301 C48.43,27.5301 49.05,26.9201 49.05,26.1701 C49.05,25.4201 48.43,24.8101 47.68,24.8101 L24.83,24.8101 C24.08,24.8101 23.47,25.4201 23.47,26.1701" id="Fill-5" fill="#1F3D7C"></path>
                    <path d="M47.6801,34.74 L24.8301,34.74 C24.0801,34.74 23.4701,35.35 23.4701,36.1 C23.4701,36.85 24.0801,37.46 24.8301,37.46 L47.6801,37.46 C48.4301,37.46 49.0501,36.85 49.0501,36.1 C49.0501,35.35 48.4301,34.74 47.6801,34.74" id="Fill-7" fill="#1F3D7C"></path>
                    <path d="M47.6801,44.6701 L24.8301,44.6701 C24.0801,44.6701 23.4701,45.2801 23.4701,46.0301 C23.4701,46.7801 24.0801,47.3901 24.8301,47.3901 L47.6801,47.3901 C48.4301,47.3901 49.0501,46.7801 49.0501,46.0301 C49.0501,45.2801 48.4301,44.6701 47.6801,44.6701" id="Fill-9" fill="#1F3D7C"></path>
                    <path d="M15.91,24.8101 C15.16,24.8101 14.55,25.4201 14.55,26.1701 C14.55,26.9201 15.16,27.5301 15.91,27.5301 L17.88,27.5301 C18.63,27.5301 19.24,26.9201 19.24,26.1701 C19.24,25.4201 18.63,24.8101 17.88,24.8101 L15.91,24.8101 Z" id="Fill-11" fill="#1F3D7C"></path>
                    <path d="M17.8801,34.74 L15.9101,34.74 C15.1601,34.74 14.5501,35.35 14.5501,36.1 C14.5501,36.85 15.1601,37.46 15.9101,37.46 L17.8801,37.46 C18.6301,37.46 19.2401,36.85 19.2401,36.1 C19.2401,35.35 18.6301,34.74 17.8801,34.74" id="Fill-13" fill="#1F3D7C"></path>
                    <path d="M17.8801,44.6701 L15.9101,44.6701 C15.1601,44.6701 14.5501,45.2801 14.5501,46.0301 C14.5501,46.7801 15.1601,47.3901 15.9101,47.3901 L17.8801,47.3901 C18.6301,47.3901 19.2401,46.7801 19.2401,46.0301 C19.2401,45.2801 18.6301,44.6701 17.8801,44.6701" id="Fill-15" fill="#1F3D7C"></path>
                    <g id="Group-19" transform="translate(0.000000, 7.830100)">
                        <mask id="mask-22" fill="white">
                            <use xlink:href="#path-21"></use>
                        </mask>
                        <g id="Clip-18"></g>
                        <path d="M58.3101,78 L58.3101,3.34 C58.3101,1.69 56.9601,0.34 55.3101,0.34 L43.7901,0.34 L43.7901,2.18 L43.7901,4.02 L54.6301,4.02 L54.6301,77.32 L3.6801,77.32 L3.6801,4.02 L15.1101,4.02 L15.1101,2.18 L15.1101,0.34 L3.0001,0.34 C1.3501,0.34 0.0001,1.69 0.0001,3.34 L0.0001,78 C0.0001,79.65 1.3501,81 3.0001,81 L55.3101,81 C56.9601,81 58.3101,79.65 58.3101,78" id="Fill-17" fill="#1F3D7C" mask="url(#mask-22)"></path>
                    </g>
                </g>
                <path d="M71.5,0.454570215 L71.5,99.5312424" id="Line-2" stroke="#223E7D" stroke-linecap="square"></path>
                <path d="M635.5,63.4865003 L635.5,100.531242" id="Line-2-Copy-2" stroke="#223E7D" stroke-linecap="square"></path>
                <path d="M1198.5,61.4868552 L1198.5,99.5312424" id="Line-2-Copy-3" stroke="#223E7D" stroke-linecap="square"></path>
            </g>
        </g>
    </g>
</svg>