<?xml version="1.0" encoding="UTF-8"?>
<svg width="45px" height="45px" viewBox="0 0 45 45" version="1.1" xmlns="http://www.w3.org/2000/svg" xmlns:xlink="http://www.w3.org/1999/xlink">
    <!-- Generator: Sketch 51 (57462) - http://www.bohemiancoding.com/sketch -->
    <title>Group</title>
    <desc>Created with Sketch.</desc>
    <defs>
        <polygon id="path-1" points="0.000505371307 0.0417073171 44.9850957 0.0417073171 44.9850957 45 0.000505371307 45"></polygon>
    </defs>
    <g id="Page-1" stroke="none" stroke-width="1" fill="none" fill-rule="evenodd">
        <g id="Home" transform="translate(-530.000000, -939.000000)">
            <rect fill="#FFFFFF" x="0" y="0" width="1440" height="2711"></rect>
            <g id="Group" transform="translate(530.000000, 939.000000)">
                <g id="Group-7">
                    <mask id="mask-2" fill="white">
                        <use xlink:href="#path-1"></use>
                    </mask>
                    <g id="Clip-6"></g>
                    <path d="M29.7992195,40.1685366 C25.1258049,42.0936585 19.7916585,42.1178049 15.0567805,40.1180488 C13.3950732,39.4178049 11.8123902,38.4695122 10.3526341,37.2709756 C6.80312195,34.3470732 4.4675122,30.3365854 3.68165854,25.8541463 C3.59604878,25.3646341 3.52580488,24.8685366 3.47970732,24.3658537 C3.17897561,21.2773171 3.62239024,18.2304878 4.74190244,15.4317073 C5.46409756,13.6295122 6.46946341,11.9260976 7.74043902,10.3807317 C10.1682439,7.43268293 13.2984878,5.4 16.6921463,4.32878049 C18.5733659,3.72731707 20.5401951,3.42439024 22.5092195,3.42439024 C25.6043415,3.42439024 28.7082439,4.17292683 31.5333659,5.6897561 C32.6111707,6.26926829 33.6516585,6.96073171 34.6306829,7.76853659 C35.2101951,8.24707317 35.7567805,8.7497561 36.2660488,9.28317073 C39.1240976,12.2509756 40.9482439,16.0529268 41.453122,20.1973171 C41.705561,22.2387805 41.6243415,24.2934146 41.220439,26.3063415 C41.0843415,26.9846341 40.913122,27.6519512 40.7001951,28.3104878 C39.9648293,30.6131707 38.790439,32.7797561 37.242878,34.6587805 C35.1816585,37.1656098 32.6067805,39.0117073 29.7992195,40.1685366 M39.8572683,36.8121951 C41.3126341,35.045122 42.4870244,33.0629268 43.3387317,30.9578049 C43.865561,29.6714634 44.2694634,28.3368293 44.5416585,26.9758537 C45.018,24.6073171 45.1123902,22.1882927 44.8160488,19.7868293 C44.2145854,14.8587805 42.0348293,10.3434146 38.6060488,6.83341463 C38.0375122,6.24512195 37.4272683,5.68317073 36.7840976,5.15414634 C35.9038537,4.4297561 34.9797073,3.78 34.0292195,3.21365854 C27.8872683,-0.463170732 20.4633659,-0.902195122 14.0645854,1.67487805 C10.6862927,3.02926829 7.59556098,5.22878049 5.12604878,8.22731707 C3.94946341,9.65634146 2.97043902,11.2017073 2.18678049,12.8260976 C0.437268293,16.4809756 -0.293707317,20.555122 0.108,24.695122 C0.180439024,25.4568293 0.294585366,26.2119512 0.441658537,26.9517073 C1.44921951,32.0268293 4.15360976,36.5553659 8.20141463,39.8853659 C10.1111707,41.4570732 12.2009268,42.66 14.3894634,43.4985366 C16.992878,44.5060976 19.7345854,45 22.4740976,45 C25.7206829,45 28.9562927,44.2997561 31.9372683,42.93 C32.0799512,42.8619512 32.220439,42.7960976 32.363122,42.7280488 C35.1750732,41.3604878 37.7411707,39.3804878 39.8572683,36.8121951" id="Fill-5" fill="#1F3D7C" mask="url(#mask-2)"></path>
                </g>
                <path d="M27.1511525,19.8158487 L24.6182977,19.8158487 L23.3931324,19.8158487 L24.5019176,11.4289373 L24.6944738,9.96112174 C24.7452579,9.56235104 24.5103816,9.1805493 24.1337332,9.04903981 C23.7549688,8.91328809 23.3360003,9.0681299 23.1307481,9.4053881 L17.9465425,17.9492625 L14.1229264,24.24687 C13.9663423,24.5098889 13.9578783,24.8322993 14.1059984,25.0953183 C14.2520026,25.3668217 14.5249669,25.5322691 14.8275552,25.5386325 L18.369743,25.6065083 C18.2724069,26.5928295 18.1115907,28.2366981 17.9592386,29.869961 C17.8216984,31.3717145 17.7116663,32.5765111 17.6439542,33.4440495 C17.6122142,33.8555469 17.5847062,34.2161375 17.5698941,34.4918832 C17.5656621,34.5470323 17.5635461,34.6000603 17.5614301,34.6488461 C17.5318061,35.1303405 17.5021821,35.7306177 18.1179387,35.9490931 C18.2131588,35.9851522 18.3062629,36 18.403599,36 C18.6829113,36 18.9558756,35.8621272 19.1145758,35.6203194 C19.1632439,35.5460802 19.7155204,34.6403616 20.5217173,33.3061767 C21.7151426,31.3314132 23.4693085,28.4254778 24.9885981,25.899223 C26.2772435,23.7632544 27.3987247,21.8987893 27.8769412,21.103369 C28.0377574,20.8424712 28.0398734,20.5158186 27.8896372,20.2485573 C27.7436331,19.9812961 27.4600888,19.8158487 27.1511525,19.8158487" id="Fill-8" fill="#1F3D7C"></path>
            </g>
        </g>
    </g>
</svg>