<?xml version="1.0" encoding="utf-8"?>
<!-- Generator: Adobe Illustrator 16.0.0, SVG Export Plug-In . SVG Version: 6.00 Build 0)  -->
<!DOCTYPE svg PUBLIC "-//W3C//DTD SVG 1.1//EN" "http://www.w3.org/Graphics/SVG/1.1/DTD/svg11.dtd">
<svg version="1.1" id="Layer_1" xmlns="http://www.w3.org/2000/svg" xmlns:xlink="http://www.w3.org/1999/xlink" x="0px" y="0px"
	 width="58px" height="36px" viewBox="0 0 58 36" enable-background="new 0 0 58 36" xml:space="preserve">
<title>Page 1</title>
<desc>Created with Sketch.</desc>
<g id="Page-1_1_">
	<g id="Support-" transform="translate(-768.000000, -2385.000000)">
		<rect display="none" fill="#FFFFFF" width="1440" height="3047"/>
		<g id="Group-14" transform="translate(737.666667, 2357.000000)">
			<g id="Page-1" transform="translate(31.000000, 28.000000)">
				<path id="Fill-1" fill="#35ABE1" d="M43.87,30.149H32.171v-8.065h12.98v6.779C45.152,29.572,44.577,30.149,43.87,30.149z
					 M1.846,28.863v-6.779h13.049v8.065H3.129C2.422,30.149,1.846,29.572,1.846,28.863z M3.129,1.852h11.766v8.065H1.846v-6.78
					C1.846,2.428,2.422,1.852,3.129,1.852z M45.152,3.137v6.78h-12.98V1.852H43.87C44.577,1.852,45.152,2.428,45.152,3.137z
					 M32.171,20.232h12.982v-8.465H32.171V20.232z M17.031,9.917h13.005V1.852H17.031V9.917z M1.846,20.232h13.049v-8.465H1.846
					V20.232z M17.031,30.149h13.005v-8.065H17.031V30.149z M17.031,20.232h13.005v-8.465H17.031V20.232z M43.87,0H3.129
					C1.404,0,0,1.408,0,3.137v25.727C0,30.594,1.404,32,3.129,32H43.87c1.725,0,3.129-1.406,3.129-3.137V3.137
					C46.999,1.408,45.595,0,43.87,0z"/>
				<path id="Fill-3" fill="#1F3D7C" d="M55.681,13.728v-2.03c0-0.386-0.312-0.697-0.695-0.697c-0.387,0-0.698,0.312-0.698,0.697
					v2.03h-2.245v-2.03c0-0.386-0.311-0.697-0.697-0.697c-0.385,0-0.696,0.312-0.696,0.697v2.03H49.33
					c0,2.268,1.243,4.159,2.913,4.682v15.755H37.837v-3.238h-1.838v4.156c0,0.508,0.412,0.918,0.92,0.918h16.242
					c0.508,0,0.919-0.41,0.919-0.918v-16.67c1.674-0.521,2.919-2.412,2.919-4.685H55.681z"/>
			</g>
		</g>
	</g>
</g>
</svg>
