<?xml version="1.0" encoding="UTF-8"?>
<svg width="50px" height="67px" viewBox="0 0 50 67" version="1.1" xmlns="http://www.w3.org/2000/svg" xmlns:xlink="http://www.w3.org/1999/xlink">
    <!-- Generator: Sketch 51 (57462) - http://www.bohemiancoding.com/sketch -->
    <title>Page 1</title>
    <desc>Created with Sketch.</desc>
    <defs>
        <polygon id="path-1" points="0 0.230701904 49.2341429 0.230701904 49.2341429 65.9997142 0 65.9997142"></polygon>
    </defs>
    <g id="Page-1" stroke="none" stroke-width="1" fill="none" fill-rule="evenodd">
        <g id="Home" transform="translate(-1076.000000, -920.000000)">
            <rect fill="#FFFFFF" x="0" y="0" width="1440" height="2711"></rect>
            <g id="Page-1" transform="translate(1076.000000, 920.000000)">
                <path d="M37.0012702,0 L30.9987298,0 C30.4558156,0 30,0.429012926 30,0.961436134 L30,1.08301309 L30,3.07156486 L30,5.06011663 L30,6.64620677 L30,8.09395071 C30,8.61659187 30.3004899,9.37260487 30.6590455,9.77366908 L31.4342225,10.6233103 L33.3460352,12.7054903 C33.7045908,13.0981699 34.2954092,13.0981699 34.6641263,12.7054903 L35.9052803,11.34299 L37.3409545,9.77366908 C37.7096716,9.37260487 38,8.61659187 38,8.09395071 L38,5.56459112 L38,5.06011663 L38,3.07156486 L38,1.08301309 L38,0.961436134 C38,0.429012926 37.5543459,0 37.0012702,0" id="Fill-1" fill="#1F3D7C"></path>
                <path d="M24.0920058,25 L9.98955059,25 L9.90799422,25 C9.40914111,25 9,25.4529722 9,26.0052671 C9,26.5575621 9.40914111,27 9.90799422,27 L9.98955059,27 L24.0920058,27 C24.5908589,27 25,26.5575621 25,26.0052671 C25,25.4529722 24.5908589,25 24.0920058,25" id="Fill-3" fill="#1F3D7C"></path>
                <path d="M24.8001869,10.3819549 C24.6370742,10.1503759 24.3828902,10 24.0920058,10 L9.90799422,10 C9.40914111,10 9,10.4526316 9,11.0045113 C9,11.5578947 9.40914111,12 9.90799422,12 L9.98955059,12 L24.0920058,12 C24.5908589,12 25,11.5578947 25,11.0045113 C25,10.7744361 24.9279585,10.5533835 24.8001869,10.3819549" id="Fill-5" fill="#1F3D7C"></path>
                <g id="Group-9" transform="translate(0.000000, 1.000000)">
                    <mask id="mask-2" fill="white">
                        <use xlink:href="#path-1"></use>
                    </mask>
                    <g id="Clip-8"></g>
                    <path d="M45.1784286,61.9430916 L9.86842857,61.9430916 L9.86842857,60.3112976 L40.5598571,60.3112976 C42.1341429,60.3112976 43.4227143,59.0224376 43.4227143,57.4477993 L43.4227143,9.98717223 L45.1784286,9.98717223 L45.1784286,61.9430916 Z M46.3712857,5.92054737 L43.4227143,5.92054737 L43.4227143,3.09420022 C43.4227143,1.51956193 42.1341429,0.230701904 40.5598571,0.230701904 L37.5727143,0.230701904 L37.5727143,2.26401433 L37.5727143,4.29732676 L39.367,4.29732676 L39.367,4.81315655 L39.367,18.1004175 L39.367,56.254675 L9.86842857,56.254675 L5.81128571,56.254675 L4.05557143,56.254675 L4.05557143,4.29732676 L29.6984286,4.29732676 L29.6984286,2.26401433 L29.6984286,0.230701904 L2.86271429,0.230701904 C1.28842857,0.230701904 -0.000142857143,1.51956193 -0.000142857143,3.09420022 L-0.000142857143,57.4477993 C-0.000142857143,59.0224376 1.28842857,60.3112976 2.86271429,60.3112976 L5.81128571,60.3112976 L5.81128571,63.1362159 C5.81128571,64.7108542 7.09985714,65.9997142 8.67557143,65.9997142 L46.3712857,65.9997142 C47.9455714,65.9997142 49.2341429,64.7108542 49.2341429,63.1362159 L49.2341429,8.78404569 C49.2341429,7.20940739 47.9455714,5.92054737 46.3712857,5.92054737 Z" id="Fill-7" fill="#1F3D7C" mask="url(#mask-2)"></path>
                </g>
                <path d="M24.0920058,18 L9.98955059,18 L9.90799422,18 C9.40914111,18 9,18.4529722 9,19.0052671 C9,19.5575621 9.40914111,20 9.90799422,20 L9.98955059,20 L24.0920058,20 C24.5908589,20 25,19.5575621 25,19.0052671 C25,18.4529722 24.5908589,18 24.0920058,18" id="Fill-10" fill="#1F3D7C"></path>
            </g>
        </g>
    </g>
</svg>