<?xml version="1.0" encoding="UTF-8"?>
<svg width="81px" height="76px" viewBox="0 0 81 76" version="1.1" xmlns="http://www.w3.org/2000/svg" xmlns:xlink="http://www.w3.org/1999/xlink">
    <!-- Generator: Sketch 51 (57462) - http://www.bohemiancoding.com/sketch -->
    <title>Page 1</title>
    <desc>Created with Sketch.</desc>
    <defs>
        <polygon id="path-1" points="0.746354712 0.0959234759 31.1443478 0.0959234759 31.1443478 27.9192638 0.746354712 27.9192638"></polygon>
        <polygon id="path-3" points="0.353814412 0.243496484 42.6631106 0.243496484 42.6631106 37.8642857 0.353814412 37.8642857"></polygon>
        <polygon id="path-5" points="0 0.239445017 20.766102 0.239445017 20.766102 26.6282308 0 26.6282308"></polygon>
    </defs>
    <g id="Page-1" stroke="none" stroke-width="1" fill="none" fill-rule="evenodd">
        <g id="Home" transform="translate(-884.000000, -912.000000)">
            <rect fill="#FFFFFF" x="0" y="0" width="1440" height="2711"></rect>
            <g id="Page-1" transform="translate(884.000000, 912.000000)">
                <g id="Group-3" transform="translate(49.000000, 21.000000)">
                    <mask id="mask-2" fill="white">
                        <use xlink:href="#path-1"></use>
                    </mask>
                    <g id="Clip-2"></g>
                    <path d="M30.832,14.0718524 C31.0852174,13.7528524 31.1923478,13.3454714 31.1255652,12.953281 C31.0601739,12.5610905 30.8236522,12.2089476 30.4813913,11.9907571 L27.8573913,10.3101381 C27.7154783,10.2189952 27.586087,9.93728095 27.6097391,9.77018571 L28.0535652,6.70447143 C28.112,6.30261429 27.9993043,5.89523333 27.7433043,5.5886619 C27.490087,5.28209048 27.1088696,5.0956619 26.6998261,5.07494762 L23.581913,4.9216619 C23.4135652,4.91337619 23.1603478,4.73385238 23.0963478,4.57780476 L21.9346087,1.70128095 C21.7829565,1.32428095 21.4810435,1.02875714 21.1053913,0.889280952 C20.9467826,0.8299 20.7784348,0.802280952 20.610087,0.802280952 C20.381913,0.802280952 20.1523478,0.856138095 19.9422609,0.962471429 L17.1666087,2.37656667 C17.0149565,2.4539 16.7046957,2.42351905 16.5725217,2.31994762 L14.1168696,0.405947619 C13.7954783,0.155995238 13.3836522,0.0496619048 12.989913,0.114566667 C12.5947826,0.180852381 12.2413913,0.412852381 12.0187826,0.753947619 L10.3269565,3.35704286 C10.2351304,3.49928095 9.95130435,3.62770952 9.78434783,3.60285238 L6.69286957,3.16509048 C6.288,3.10570952 5.87895652,3.21894762 5.57008696,3.47028095 C5.26121739,3.72437619 5.072,4.10137619 5.05252174,4.50737619 L4.89669565,7.60070952 C4.88973913,7.76918571 4.70747826,8.0219 4.55026087,8.08404286 L1.65356522,9.23575714 C1.27373913,9.3876619 0.974608696,9.68732857 0.835478261,10.0601857 C0.694956522,10.4330429 0.721391304,10.8528524 0.909217391,11.2146619 L2.32834783,13.9613762 L3.77252174,13.9613762 C3.74747826,13.7376619 3.68626087,13.5222333 3.58747826,13.3330429 L2.16278261,10.575281 C2.15443478,10.5614714 2.15443478,10.5518048 2.15582609,10.5490429 C2.15582609,10.546281 2.16278261,10.5407571 2.17808696,10.5352333 L5.07617391,9.3821381 C5.73982609,9.11699524 6.26991304,8.38094762 6.30469565,7.6711381 L6.45913043,4.57642381 C6.46052174,4.55985238 6.46330435,4.55156667 6.46608696,4.55018571 C6.46747826,4.54880476 6.47721739,4.54604286 6.49252174,4.54880476 L9.5826087,4.98794762 C10.2949565,5.0901381 11.1213913,4.71451905 11.5109565,4.11656667 L13.2027826,1.51209048 C13.2125217,1.4996619 13.2194783,1.4941381 13.2208696,1.4941381 C13.2264348,1.4941381 13.2333913,1.49551905 13.2473043,1.50518571 L15.7015652,3.41918571 C16.2650435,3.85970952 17.1707826,3.94532857 17.8093913,3.62080476 L20.5864348,2.20670952 C20.6003478,2.19842381 20.610087,2.19842381 20.6128696,2.19842381 C20.6142609,2.19980476 20.6212174,2.20670952 20.6267826,2.2219 L21.789913,5.09704286 C22.0556522,5.75851905 22.7958261,6.28328095 23.5137391,6.31780476 L26.6302609,6.47109048 C26.6483478,6.47247143 26.6553043,6.47661429 26.6566957,6.47799524 C26.658087,6.48075714 26.6608696,6.48904286 26.658087,6.50561429 L26.2156522,9.57270952 C26.114087,10.2769952 26.4925217,11.1000429 27.0935652,11.4839476 L29.7161739,13.1645667 C29.7314783,13.1728524 29.7356522,13.1811381 29.7370435,13.1839 C29.7370435,13.1866619 29.7356522,13.1963286 29.7245217,13.2073762 L27.7947826,15.6433762 C27.3523478,16.2054238 27.2646957,17.1030429 27.5930435,17.735519 L29.0177391,20.493281 C29.026087,20.5084714 29.026087,20.5167571 29.0246957,20.519519 C29.0246957,20.522281 29.0177391,20.5278048 29.0024348,20.5347095 L26.1057391,21.6864238 C25.4393043,21.9515667 24.9106087,22.6876143 24.8744348,23.3974238 L24.7213913,26.4921381 C24.72,26.5087095 24.7158261,26.5169952 24.7130435,26.5183762 C24.7116522,26.5211381 24.7033043,26.5239 24.6866087,26.5211381 L22.2156522,26.1689952 L22.6831304,27.6479952 L24.4876522,27.9048524 C24.8925217,27.9614714 25.3015652,27.8496143 25.6104348,27.598281 C25.9193043,27.3441857 26.1085217,26.9671857 26.128,26.5611857 L26.2824348,23.4678524 C26.2907826,23.2993762 26.4716522,23.0466619 26.6288696,22.9859 L29.5255652,21.8328048 C29.9053913,21.6809 30.2045217,21.3812333 30.3450435,21.0083762 C30.4855652,20.635519 30.4577391,20.2157095 30.2713043,19.8539 L28.8452174,17.097519 C28.7686957,16.9497571 28.7993043,16.6404238 28.9022609,16.5078524 L30.832,14.0718524 Z" id="Fill-1" fill="#1F3D7C" mask="url(#mask-2)"></path>
                </g>
                <path d="M72.5937723,42.0449915 C72.2595222,42.7439602 71.8376956,43.4038562 71.3370502,44.0044195 C70.8626777,44.5760399 70.3313806,45.0854333 69.7519163,45.5224697 L70.2204504,47 C71.0553459,46.4269324 71.8143419,45.7366465 72.4784633,44.9363779 C73.6300937,43.5500174 74.4270395,41.8901474 74.7817241,40.1391076 C75.0167209,38.9857368 75.0619688,37.8063174 74.9174676,36.6341337 C74.570081,33.8295757 73.1688577,31.295633 70.9663099,29.5011789 C68.6864028,27.6387093 65.8095162,26.768978 62.8698665,27.0526175 C59.9302168,27.336257 57.2751906,28.7370888 55.3981353,30.9989692 C54.1093018,32.5517508 53.2933811,34.3823833 53,36.3201042 L54.4975574,36.3201042 C54.777802,34.7210142 55.4725753,33.2174353 56.5395484,31.9309276 C58.1670109,29.9700524 60.4658928,28.7573488 63.0129081,28.5113349 C63.3281833,28.480945 63.6434586,28.4664736 63.9572742,28.4664736 C66.1700393,28.4664736 68.2966876,29.2189866 70.0277822,30.6328427 C71.9340297,32.1885186 73.1498828,34.3838305 73.450562,36.812132 C73.5746286,37.8280245 73.5366788,38.8511527 73.3337934,39.8496796 C73.179075,40.6079811 72.9294821,41.3474698 72.5937723,42.0449915" id="Fill-4" fill="#1F3D7C"></path>
                <g id="Group-8" transform="translate(31.000000, 38.000000)">
                    <mask id="mask-4" fill="white">
                        <use xlink:href="#path-3"></use>
                    </mask>
                    <g id="Clip-7"></g>
                    <path d="M28.9752633,25.2674204 L28.5853967,21.7387602 L28.0421633,16.825141 L38.4366967,16.825141 L39.5503967,20.5518605 L40.9593633,25.2674204 L28.9752633,25.2674204 Z M27.5963967,12.7969635 L27.18933,9.11393357 L27.1233967,8.51684291 L29.05553,8.51684291 L35.9555967,8.51684291 L36.12043,9.07024401 L36.5432633,10.4828731 L37.1466967,12.5027871 L37.69853,14.3537682 L37.9966633,15.3498902 L37.0649967,15.3498902 L34.0707633,15.3498902 L28.7301633,15.3498902 L27.8787633,15.3498902 L27.5963967,12.7969635 Z M26.9069633,25.2674204 L15.3098633,25.2674204 L15.9605967,16.825141 L18.1263633,16.825141 L26.5801633,16.825141 L27.1018967,21.5494388 L27.5132633,25.2674204 L26.9069633,25.2674204 Z M6.35726333,7.04159209 L7.62863,1.71729099 L14.7307967,1.71729099 L15.6710633,1.71729099 L15.4302633,4.82944401 L15.2596967,7.04159209 L6.35726333,7.04159209 Z M14.6189967,15.3498902 L4.37209667,15.3498902 L6.00466333,8.51684291 L15.1464633,8.51684291 L14.6189967,15.3498902 Z M13.8535967,25.2674204 L2.00423,25.2674204 L4.01949667,16.825141 L14.5057633,16.825141 L13.8535967,25.2674204 Z M16.5138633,9.64840253 L16.6012967,8.51684291 L20.5271967,8.51684291 L21.99493,8.51684291 L25.66283,8.51684291 L25.81333,9.86830665 L26.1759633,13.1566742 L26.4181967,15.3498902 L17.7966967,15.3498902 L16.07383,15.3498902 L16.5138633,9.64840253 Z M17.1258967,1.71729099 L17.41973,1.71729099 L19.23863,1.71729099 L22.5381633,1.71729099 L24.01163,1.71729099 L24.9117633,1.71729099 L25.2772633,5.03041599 L25.49943,7.04159209 L24.92753,7.04159209 L22.2027633,7.04159209 L20.7364633,7.04159209 L16.71453,7.04159209 L17.1258967,1.71729099 Z M33.9245633,1.71729099 L35.5155633,7.04159209 L26.9599967,7.04159209 L26.37233,1.71729099 L33.9245633,1.71729099 Z M40.7658633,19.5411753 L39.67223,15.8799902 C39.6707967,15.8741649 39.6693633,15.8683396 39.6664967,15.8625143 L38.73483,12.7416234 L38.2990967,11.2823921 L37.90063,9.94549154 L37.4734967,8.51538659 L37.18683,7.56004154 L35.1586633,0.76631489 C35.0640633,0.456119011 34.78313,0.243496484 34.4634967,0.243496484 L25.57683,0.243496484 L23.8553967,0.243496484 L22.40343,0.243496484 L20.3795633,0.243496484 L18.5319967,0.243496484 L16.4421967,0.243496484 L14.3982633,0.243496484 L7.05959667,0.243496484 C6.72419667,0.243496484 6.43179667,0.476507473 6.35296333,0.805635495 L4.72326333,7.62994484 L2.73809667,15.9411555 L0.37453,25.8310157 C0.321496667,26.0494635 0.371663333,26.2824745 0.509263333,26.4601454 C0.646863333,26.6392726 0.857563333,26.7426712 1.07973,26.7426712 L26.1816967,26.7426712 L26.1816967,36.3893262 L16.5410967,36.3893262 L16.5410967,31.5645424 C16.5410967,31.1582295 16.2142967,30.8276451 15.8143967,30.8276451 C15.4130633,30.8276451 15.08913,31.1582295 15.08913,31.5645424 L15.08913,36.3893262 L8.14033,36.3893262 C7.74043,36.3893262 7.41363,36.7184542 7.41363,37.1262234 C7.41363,37.5339926 7.74043,37.864577 8.14033,37.864577 L15.8143967,37.864577 L26.9069633,37.864577 L33.38563,37.864577 C33.78553,37.864577 34.11233,37.5339926 34.11233,37.1262234 C34.11233,36.7184542 33.78553,36.3893262 33.38563,36.3893262 L27.6336633,36.3893262 L27.6336633,26.7426712 L41.93833,26.7426712 C42.16623,26.7426712 42.3840967,26.631991 42.5216967,26.4426696 C42.6578633,26.2562608 42.6979967,26.0145119 42.6320633,25.7902388 L40.7658633,19.5411753 Z" id="Fill-6" fill="#1F3D7C" mask="url(#mask-4)"></path>
                </g>
                <path d="M37.3060902,9.41877078 C39.4575356,11.0715234 41.2480754,13.2460445 42.4846669,15.7062265 C43.7981957,18.3165263 44.4920298,21.2649553 44.4920298,24.2337887 C44.4920298,24.3649596 44.4906309,24.4975879 44.4878332,24.6273013 L44.4836366,24.7555572 C44.4822378,24.8430044 44.4794401,24.9319091 44.4752435,25.0178989 L44.4682492,25.1753039 C44.4654515,25.2525489 44.4612549,25.3312514 44.4556595,25.409954 L44.4444686,25.5731888 C44.440272,25.6489764 44.4346766,25.7233065 44.4290811,25.7961792 L44.4136937,25.9667013 C44.4080983,26.0381165 44.401104,26.1124467 44.3927108,26.1824045 L44.3759245,26.3514691 C44.3675313,26.4228843 44.3591382,26.495757 44.350745,26.5671723 C44.3437507,26.6225555 44.3367564,26.6793962 44.3297621,26.7347795 C44.3199701,26.8061947 44.3101781,26.8761525 44.3003861,26.9475677 L44.2766055,27.1166324 C44.2654146,27.1880476 44.2542237,27.2565479 44.2430329,27.3294206 C44.2332409,27.3848039 44.2234488,27.4416446 44.2150557,27.4941129 C44.202466,27.5655281 44.1898762,27.6354859 44.1772865,27.7054437 L44.1465116,27.8686785 C44.1353207,27.9328065 44.1213321,27.9969345 44.1087424,28.0610624 L44.0709732,28.2403292 C44.0555857,28.3175743 44.0374006,28.3933619 44.0206143,28.467692 L43.9898394,28.6090651 C43.9688565,28.6979697 43.9464747,28.7868744 43.924093,28.8743217 L43.8989135,28.974886 C43.8695375,29.0958546 43.8373637,29.2168233 43.8051899,29.3348771 L43.7814093,29.4179519 C43.754831,29.5097715 43.7282527,29.6030486 43.7002755,29.6977831 L43.6583097,29.8333263 C43.635928,29.9061989 43.6135462,29.9805291 43.5911645,30.0519443 L43.5436033,30.1976897 C43.5184238,30.2676475 43.4960421,30.3376053 43.4722615,30.410478 L43.466666,30.423595 C43.4638683,30.4323398 43.4610706,30.4410845 43.4582729,30.4483718 C43.0554014,31.6157923 42.5378235,32.7438615 41.9167301,33.8048879 C41.6999069,34.1750811 41.8132145,34.6589558 42.1685247,34.8848611 C42.2916243,34.9621062 42.4273137,35 42.5616041,35 C42.8147976,35 43.0623957,34.8644568 43.2050794,34.6225195 C43.8723352,33.4827906 44.4318789,32.2687316 44.8669241,31.0138638 C44.8711206,31.0036617 44.8753172,30.992002 44.8781149,30.9832573 L44.8949012,30.9337039 C44.9200807,30.8579163 44.9452602,30.7835861 44.9690408,30.7077985 L45.0207986,30.5503935 C45.045978,30.4702336 45.0711575,30.3900736 45.096337,30.3069987 L45.1089267,30.2676475 C45.1201176,30.2312111 45.1313084,30.1962323 45.1411005,30.1627108 C45.1718754,30.0621465 45.1998525,29.9615822 45.2292286,29.858103 L45.2544081,29.7721132 C45.2893795,29.6409424 45.324351,29.5097715 45.3579236,29.3815156 L45.384502,29.2692916 C45.4082826,29.1730997 45.4320632,29.0783652 45.4544449,28.9807158 L45.4894164,28.830598 C45.5076016,28.7460657 45.5271856,28.6629908 45.5439719,28.5813734 C45.5537639,28.5391073 45.5621571,28.4968411 45.5705502,28.454575 L45.58314,28.3860746 C45.5985274,28.3175743 45.612516,28.2476165 45.6265046,28.1791162 C45.6348978,28.1339351 45.641892,28.088754 45.6516841,28.0421155 L45.6586784,28.0027643 C45.672667,27.9240618 45.6866555,27.8482742 45.6992453,27.7710291 C45.7104361,27.7098161 45.7202282,27.6500605 45.7300202,27.5903048 C45.7426099,27.5159747 45.7538008,27.4401871 45.7663905,27.3600271 L45.7929688,27.1778454 C45.8027609,27.1020578 45.8139517,27.0248128 45.8251426,26.9475677 C45.8321369,26.8863547 45.8391312,26.8251416 45.8475243,26.7639285 C45.8559175,26.6866835 45.8657095,26.6094384 45.8741027,26.5307359 L45.8936867,26.3456393 C45.9020799,26.2683942 45.9076753,26.1896917 45.9160684,26.1109892 L45.9328548,25.9288075 C45.9370513,25.8486475 45.9440456,25.7670301 45.9496411,25.6854127 L45.9538376,25.6358593 C45.9566354,25.5935931 45.9594331,25.5498695 45.9622308,25.5076034 C45.9664274,25.423071 45.970624,25.3385387 45.9748205,25.2525489 L45.9832137,25.0849418 C45.9874103,24.9902073 45.990208,24.8940153 45.9916068,24.7992808 L45.9958034,24.6608227 C45.9986011,24.5179922 46,24.3766192 46,24.2337887 C46,21.0128158 45.2474138,17.8122473 43.8205774,14.9774996 C42.4790714,12.3059868 40.5346572,9.94636906 38.2013601,8.15370088 C37.8670327,7.89573156 37.3956172,7.9700617 37.1480191,8.31985061 C36.900421,8.66818207 36.970364,9.16080146 37.3060902,9.41877078" id="Fill-9" fill="#1F3D7C"></path>
                <path d="M42,23.298964 C42,20.0556333 41.1964034,16.9439201 39.6739778,14.3032588 C39.4660147,13.9430427 39.2433585,13.5883683 39.0094,13.2489339 C38.8059578,12.9524483 38.4454131,12.9164267 38.203543,13.1644216 C37.9616728,13.4151875 37.9311565,13.857145 38.1345987,14.1536306 C38.3459525,14.4611997 38.5493947,14.7840088 38.739274,15.1137451 C40.123811,17.5161096 40.8550726,20.3465771 40.8550726,23.298964 C40.8550726,23.6868891 41.1116358,24 41.4281014,24 C41.744567,24 42,23.6868891 42,23.298964" id="Fill-11" fill="#1F3D7C"></path>
                <path d="M28.8435902,25.9066704 C29.0753427,25.7096583 29.2783061,25.4786296 29.4452831,25.2164192 C29.9606087,25.7224144 30.6529874,26.4495168 31.5785581,27.4955236 C33.2656015,29.4046988 35.2952356,31.8680592 37.1190274,34.2180312 L36.8037863,34.3470104 C36.613778,34.4249648 36.465514,34.578039 36.3964201,34.7693817 L36.2049723,35.3023066 C34.0414687,33.1564335 31.7915977,30.7866184 30.0440972,28.812245 C29.5906683,28.2991631 29.2063333,27.8512794 28.883895,27.4629245 L28.8435902,25.9066704 Z M28.3728878,65.5642209 L25.1398678,65.5642209 L26.1115012,26.6366074 C26.2208999,26.6592851 26.3302986,26.6734586 26.4396973,26.6833801 C26.6944812,27.0490573 27.0197984,27.4799328 27.4372409,27.99018 L28.3728878,65.5642209 Z M20.6905068,25.5310717 C15.2133737,26.5813307 8.13268561,27.4544204 4.87087648,27.5493831 C7.9297222,26.4310912 14.8247203,24.6168787 20.3018535,23.5637851 C21.7585838,23.2845664 22.7906743,23.1258229 23.5190394,23.042199 C23.4240353,23.6672519 23.5247973,24.2951395 23.7838995,24.84649 C23.0814446,25.034998 22.0896588,25.2617746 20.6905068,25.5310717 Z M27.8230153,17.2565621 C29.6367309,12.0605442 32.4105642,5.58465611 33.9579802,2.75703591 C33.4138656,5.9234036 31.5598452,12.7111094 29.7475691,17.9071273 C29.2624721,19.2961337 28.8853344,20.255682 28.5931247,20.9204208 C28.3426592,20.7432516 28.0648441,20.604351 27.7668765,20.5023016 C27.4645906,20.4002521 27.1565468,20.3449753 26.8528214,20.3322191 C27.0385113,19.6320465 27.3393578,18.6469858 27.8230153,17.2565621 Z M26.1460481,25.1668119 C26.1446087,25.1653945 26.1431692,25.1653945 26.1402903,25.1639772 C25.9589187,25.103031 25.7948207,25.015155 25.650875,24.9088535 C25.4565483,24.7642835 25.2967686,24.5842796 25.1772937,24.3801807 C24.9556173,24.00033 24.8807656,23.5396901 24.9959221,23.0889717 C25.0045589,23.0535378 25.0160745,23.0166866 25.0261507,22.9798354 C25.0304691,22.9684966 25.0347875,22.9571578 25.0391058,22.945819 C25.0923657,22.7927448 25.165778,22.6524268 25.2535849,22.5262823 C25.4623061,22.2258034 25.7588342,22.0018615 26.0956671,21.8771344 C26.2525679,21.8190229 26.416666,21.7835891 26.5865219,21.7708329 C26.6297056,21.7665809 26.6743288,21.7651635 26.7175125,21.7651635 C26.9089602,21.7651635 27.1018474,21.7949279 27.2918557,21.8601262 C27.5236083,21.9380806 27.7323295,22.059973 27.9065038,22.2158819 C28.0547679,22.3476958 28.1800006,22.5036047 28.2750047,22.6779392 C28.2879599,22.7006168 28.2994755,22.7232945 28.3109912,22.7459721 C28.3556143,22.8366827 28.3930402,22.9302281 28.4203899,23.0251908 C28.4779682,23.2179508 28.5009995,23.4177977 28.4880444,23.6176445 C28.4779682,23.772136 28.4463001,23.9280449 28.3944797,24.0797017 C28.3757667,24.1363959 28.3527354,24.1916727 28.3268252,24.2455321 C28.1310591,24.6650687 27.7798316,24.9768865 27.3667075,25.1370474 C27.3192054,25.155473 27.2702639,25.1724813 27.2213224,25.1866548 C26.9823725,25.2575225 26.7261492,25.2787828 26.4684864,25.2419316 C26.3605272,25.2277581 26.2540074,25.2022457 26.1460481,25.1668119 Z M28.9443522,29.7533678 C30.9336815,32.0041251 33.5678874,34.7580429 35.9919327,37.1221885 C36.1301206,37.2568371 36.3158105,37.3291221 36.5058188,37.3291221 C36.5590787,37.3291221 36.613778,37.3234527 36.6670379,37.3121139 C36.9117456,37.2568371 37.1089512,37.08392 37.1910002,36.8528914 L37.6617026,35.5503435 L38.5498475,35.1889184 C38.7585687,35.1038772 38.9154695,34.9281253 38.9744872,34.714105 C39.0335049,34.5000846 38.9888818,34.2704733 38.8535728,34.0933041 C36.8728803,31.506634 34.5639915,28.6875179 32.6783031,26.5544009 C31.4734778,25.1923242 30.6040459,24.2880527 29.9433352,23.6970163 C29.9764427,23.1669261 29.8713623,22.6325838 29.6309731,22.1393448 C30.0282631,21.3456269 30.5032839,20.159302 31.1251292,18.3734366 C32.2507845,15.1503748 33.547735,10.8203599 34.4315615,7.34075708 C34.9123401,5.45000753 35.2448546,3.91926577 35.4219078,2.79530445 C35.630629,1.46015747 35.7371488,0.331944097 34.9008244,0.049890753 C34.0673789,-0.232162591 33.4455336,0.721716305 32.7776256,1.90237176 C32.214798,2.89593655 31.5238588,4.30336856 30.7220813,6.08639925 C29.9850794,7.72627723 29.1962571,9.59576648 28.4520579,11.4595863 C27.7092982,13.3234061 27.0082828,15.1787219 26.4454551,16.7902528 C25.8207309,18.5761182 25.4551089,19.7992942 25.2751768,20.6652972 C24.8519765,20.8736482 24.4748388,21.1712924 24.1783107,21.542639 L24.1768712,21.542639 C23.2757712,21.5936637 21.9730628,21.7821717 20.0225989,22.1549357 C16.6254808,22.8083357 12.167483,23.8670987 8.66672409,24.8521594 C6.76232273,25.3893364 5.25233253,25.8698192 4.17273993,26.2808517 C2.89450228,26.771256 1.84945664,27.2446521 2.01787308,28.0964815 C2.17189496,28.8689392 3.12769428,28.9851622 4.32532235,28.9851622 C4.45055509,28.9851622 4.57866675,28.9837448 4.70821786,28.9823275 C5.86554114,28.9653192 7.44894363,28.8505136 9.41812054,28.64358 C13.0383544,28.2608945 17.5740828,27.5919037 20.9712009,26.9399211 C22.6438497,26.6181818 23.8242043,26.3446326 24.6648471,26.0909263 L23.6644246,66.2643935 C23.6601062,66.4571536 23.734958,66.6456616 23.8731458,66.7831449 C24.0098942,66.9220456 24.1970236,67 24.3942292,67 L29.1199659,67 C29.315732,67 29.5043009,66.9220456 29.6410493,66.7831449 C29.7792371,66.6456616 29.8540889,66.4571536 29.848331,66.2643935 L28.9400338,29.7476983 C28.9414732,29.7491157 28.9429127,29.7519504 28.9443522,29.7533678 Z" id="Fill-13" fill="#1F3D7C"></path>
                <path d="M14.1517863,14.6385419 C13.9202546,14.9907844 13.9577653,15.5134139 14.235862,15.8066762 C14.3574485,15.9361049 14.5061979,16 14.6536538,16 C14.8425009,16 15.0274676,15.8984231 15.1581083,15.7018227 C15.4478463,15.2594716 15.7595733,14.833504 16.0842351,14.4321114 C18.5754643,11.353676 21.863473,9.65799713 25.3455026,9.65799713 C25.7063816,9.65799713 26,9.28773295 26,8.82899857 C26,8.37190252 25.7063816,8 25.3455026,8 C21.5207026,8 17.9080322,9.86278927 15.1697496,13.244317 C14.8140445,13.6850297 14.4699806,14.1535941 14.1517863,14.6385419" id="Fill-15" fill="#1F3D7C"></path>
                <path d="M8.60876957,20.9793699 C8.67041116,20.9941057 8.73205276,21 8.7922267,21 C9.15033502,21 9.47615489,20.7553864 9.561279,20.3899395 C10.4051818,16.8106231 12.2764446,13.5864386 14.9754659,11.0666234 C16.224442,9.89955111 17.6245869,8.91225512 19.1362736,8.13420693 C20.4835828,7.438679 21.9130808,6.91113875 23.3866085,6.56779551 C23.812229,6.46906591 24.0778749,6.04320242 23.9795419,5.61586534 C23.8797412,5.18852827 23.4541207,4.92181099 23.0285001,5.02054059 C21.428754,5.39335535 19.8759728,5.96362931 18.4127187,6.71957385 C16.7718781,7.56540655 15.2528531,8.63669638 13.8982056,9.90397184 C10.9687621,12.6374555 8.93605709,16.1371988 8.02170675,20.023019 C7.92043841,20.4503561 8.18314902,20.8791668 8.60876957,20.9793699" id="Fill-17" fill="#1F3D7C"></path>
                <path d="M20.4912073,37.3070308 C18.0012619,36.3543072 15.7562529,34.6270674 13.9996675,32.3069457 C13.7619777,31.9950829 13.5315345,31.6677984 13.3141354,31.3353733 C13.0663003,30.9583963 12.605414,30.8881415 12.2836632,31.1811554 C11.964811,31.4741693 11.9053886,32.0207859 12.1532237,32.3977628 C12.3938121,32.7627451 12.6459952,33.1225867 12.9054249,33.465293 C14.8359297,36.0116009 17.3026859,37.9119074 20.0404663,38.9571617 C20.1143821,38.9880053 20.1911964,39 20.2665615,39 C20.5752684,39 20.8636846,38.7669597 20.9636882,38.3985504 C21.0897798,37.9444645 20.8767286,37.4543945 20.4912073,37.3070308" id="Fill-19" fill="#1F3D7C"></path>
                <path d="M19.503463,39.5597925 C18.4206491,39.1544315 17.3740254,38.6453092 16.3896491,38.0490273 C14.9174274,37.1539127 13.5856241,36.0651103 12.4318771,34.8102898 C11.2274637,33.4973629 10.237297,32.0281022 9.49177664,30.4412453 C9.31516795,30.0649375 8.85482725,29.8961524 8.46107671,30.066321 C8.06732618,30.2351061 7.89216509,30.6764377 8.06877379,31.0513621 C8.87798904,32.7738004 9.95211734,34.3703417 11.2593112,35.7939474 C12.5114958,37.1552962 13.9547652,38.3381756 15.5514816,39.3079983 C16.6198194,39.9554691 17.7590903,40.508863 18.9345514,40.9488111 C19.0271986,40.9847817 19.1241886,41 19.2182834,41 C19.5309677,41 19.8262806,40.8215305 19.9449848,40.5268483 C20.1042221,40.143623 19.9058992,39.7105923 19.503463,39.5597925" id="Fill-21" fill="#1F3D7C"></path>
                <g id="Group-25" transform="translate(0.000000, 48.000000)">
                    <mask id="mask-6" fill="white">
                        <use xlink:href="#path-5"></use>
                    </mask>
                    <g id="Clip-24"></g>
                    <path d="M19.460742,13.0391308 C19.460742,16.9892308 19.460742,20.9393308 19.459272,24.8894308 C19.459272,24.9534 19.453392,24.9926538 19.447512,25.0115538 C19.428402,25.0188231 19.390182,25.029 19.326972,25.0333615 C18.225942,25.1191385 17.383632,25.1758385 16.592772,25.218 C13.971762,25.3561154 11.388972,25.3735615 8.913492,25.2732462 C7.524342,25.2150923 6.108732,25.1278615 4.740162,25.0449923 L4.562292,25.0333615 C4.503492,25.0304538 4.465272,25.0231846 4.443222,25.0173692 C4.438812,24.9941077 4.432932,24.9563077 4.432932,24.8967 C4.431462,24.7585846 4.431462,24.6190154 4.431462,24.4750846 L4.431462,24.2613692 L4.428522,23.2247769 L4.428522,22.9878 L4.428522,10.0834615 L19.460742,10.0834615 L19.460742,13.0391308 Z M1.320942,22.1591077 C1.316532,22.1373 1.310652,22.0980462 1.309182,22.0384385 C1.309182,21.9003231 1.309182,21.7622077 1.309182,21.6168231 L1.309182,21.4045615 L1.307712,20.3694231 L1.307712,7.20775385 L3.126102,7.20775385 L3.126102,8.25888462 L3.126102,9.24168462 C3.126102,9.27512308 3.127572,9.30856154 3.130512,9.34345385 C3.126102,9.37398462 3.123162,9.40596923 3.123162,9.43795385 L3.123162,22.3015846 L1.438542,22.1765538 C1.381212,22.1721923 1.342992,22.1649231 1.320942,22.1591077 Z M1.309182,5.4486 C1.309182,4.26371538 1.309182,3.08028462 1.310652,1.8954 C1.310652,1.84015385 1.316532,1.80671538 1.320942,1.78636154 C1.341522,1.782 1.382682,1.77182308 1.450302,1.76600769 C1.761942,1.74565385 2.073582,1.72820769 2.385222,1.71221538 C7.330302,1.45488462 11.838792,1.47233077 16.170882,1.7631 C16.256142,1.76891538 16.303182,1.782 16.323762,1.78926923 C16.329642,1.81107692 16.336992,1.85178462 16.336992,1.92883846 L16.336992,3.17333077 C12.883962,3.04393846 9.291282,3.08028462 5.438412,3.27946154 C5.119422,3.29690769 4.801902,3.3129 4.482912,3.33616154 C3.636192,3.39286154 3.129042,3.92206154 3.127572,4.7493 C3.126102,5.13893077 3.126102,5.52856154 3.126102,5.91673846 L1.309182,5.91673846 L1.309182,5.4486 Z M19.294632,4.62136154 C19.379892,4.62717692 19.423992,4.64026154 19.446042,4.64753077 C19.450452,4.66643077 19.460742,4.71004615 19.460742,4.7871 L19.460742,7.90123846 L19.460742,8.775 L4.431462,8.775 L4.431462,8.25888462 L4.431462,6.56224615 C4.431462,5.9589 4.431462,5.35555385 4.432932,4.75220769 C4.432932,4.69841538 4.438812,4.66352308 4.443222,4.64462308 C4.463802,4.63735385 4.504962,4.62863077 4.572582,4.62426923 C4.884222,4.60391538 5.195862,4.58646923 5.508972,4.57047692 C9.582342,4.35821538 13.360242,4.33204615 16.988202,4.49342308 C17.762892,4.52686154 18.531702,4.57047692 19.294632,4.62136154 Z M19.382832,3.33325385 C18.806592,3.294 18.227412,3.25910769 17.645292,3.23003077 L17.645292,1.92883846 C17.643822,1.07543077 17.126382,0.533146154 16.260552,0.474992308 C11.875542,0.178407692 7.312662,0.162415385 2.316132,0.424107692 C1.997142,0.4401 1.679622,0.456092308 1.362102,0.4779 C0.513912,0.536053846 0.006762,1.0638 0.005292,1.89249231 C0.002352,3.07737692 0.002352,4.26371538 0.003822,5.45005385 L0.003822,6.38487692 C0.003822,6.41686154 0.005292,6.4503 0.008232,6.48519231 C0.002352,6.51572308 -0.000588,6.54770769 -0.000588,6.57969231 L-0.000588,20.3708769 L0.003822,21.4060154 L0.003822,21.6139154 C0.002352,21.7636615 0.002352,21.9075923 0.003822,22.0529769 C0.012642,22.8976615 0.506562,23.4137769 1.348872,23.4646615 L3.124632,23.5969615 L3.126102,24.2642769 L3.126102,24.4721769 C3.126102,24.6219231 3.124632,24.7658538 3.126102,24.9097846 C3.136392,25.7559231 3.627372,26.2705846 4.479972,26.3229231 L4.659312,26.3331 C6.033762,26.4174231 7.455252,26.5046538 8.859102,26.5628077 C9.924852,26.6064231 11.011182,26.6282308 12.109272,26.6282308 C13.605732,26.6282308 15.128652,26.5875231 16.661862,26.5075615 C17.464482,26.4654 18.317082,26.4087 19.429872,26.3214692 C20.266302,26.2560462 20.766102,25.7210308 20.766102,24.8894308 L20.766102,13.0391308 L20.766102,9.43795385 L20.766102,9.42050769 L20.766102,7.90123846 L20.766102,4.78564615 C20.764632,3.93369231 20.247192,3.39140769 19.382832,3.33325385 Z" id="Fill-23" fill="#1F3D7C" mask="url(#mask-6)"></path>
                </g>
                <path d="M9.35480669,64.738281 L10.8731775,64.765964 C10.8303634,65.1680954 10.7630841,65.8368575 10.6973339,66.5027055 C10.6377,67.1146447 10.5902987,67.605653 10.5612463,67.9582465 C10.5459556,68.1607692 10.5306648,68.3297809 10.5260776,68.4492548 C10.513845,68.6459495 10.5000833,68.8892682 10.7661423,68.979602 C10.8058982,68.994172 10.8456541,69 10.8869391,69 C11.0062069,69 11.1239456,68.9431771 11.192754,68.8455582 C11.2707368,68.7348264 14.3334726,63.9005072 14.9481604,62.9316036 C15.0154397,62.8252427 15.0169688,62.6911989 14.9542767,62.5833811 C14.8900556,62.4741062 14.7692587,62.4056273 14.6362293,62.4056273 L13.024585,62.4056273 L13.5842262,58.391598 C13.6056332,58.2298712 13.5047143,58.0739724 13.3441615,58.0200635 C13.1805506,57.9646976 13.0016489,58.0273485 12.9129626,58.1657633 L9.05204998,64.2123048 C8.98477071,64.3186656 8.98324164,64.4497954 9.04440461,64.5576133 C9.10709665,64.6668881 9.22483537,64.735367 9.35480669,64.738281" id="Fill-26" fill="#1F3D7C"></path>
            </g>
        </g>
    </g>
</svg>