<?xml version="1.0" encoding="UTF-8"?>
<svg width="201px" height="71px" viewBox="0 0 201 71" version="1.1" xmlns="http://www.w3.org/2000/svg" xmlns:xlink="http://www.w3.org/1999/xlink">
    <!-- Generator: Sketch 51 (57462) - http://www.bohemiancoding.com/sketch -->
    <title>Page 1</title>
    <desc>Created with Sketch.</desc>
    <defs>
        <polygon id="path-1" points="0.966109091 0.394 41.1811636 0.394 41.1811636 52 0.966109091 52"></polygon>
        <polygon id="path-3" points="0 0.0667572188 38.5094509 0.0667572188 38.5094509 34.5681 0 34.5681"></polygon>
    </defs>
    <g id="Symbols" stroke="none" stroke-width="1" fill="none" fill-rule="evenodd">
        <g id="Header" transform="translate(-79.000000, -22.000000)">
            <g id="Page-1">
                <g transform="translate(79.000000, 22.000000)">
                    <g>
                        <g id="Group-3" transform="translate(43.000000, 19.000000)">
                            <mask id="mask-2" fill="white">
                                <use xlink:href="#path-1"></use>
                            </mask>
                            <g id="Clip-2"></g>
                            <path d="M18.4474909,26.314 C23.9360727,26.314 27.2275636,23.6058182 27.2275636,19.1180909 C27.2275636,14.4749091 24.2469818,11.9999091 18.6050182,11.9999091 L13.7424,11.9999091 L13.7424,26.314 L18.4474909,26.314 Z M0.966109091,0.394 L17.5064727,0.394 C26.2077818,0.394 30.0506182,1.249 33.5784,4.10854545 C37.5787636,7.36081818 40.008,12.6217273 40.008,18.1894545 C40.008,26.7803636 34.9132364,33.1212727 26.9912727,34.4385455 L41.1811636,52.0008182 L25.8968727,52.0008182 L13.7424,35.2894545 L13.7424,52.0008182 L0.966109091,52.0008182 L0.966109091,0.394 Z" id="Fill-1" fill="#004B86" mask="url(#mask-2)"></path>
                        </g>
                        <polygon id="Fill-4" fill="#004B86" points="87 19 115 19 115 30.4703504 99.3038769 30.4703504 99.3038769 38.3463612 114.473204 38.3463612 114.473204 49.8167116 99.3038769 49.8167116 99.3038769 58.5296496 115 58.5296496 115 70 87 70"></polygon>
                        <path d="M138.061425,42.4743935 C143.667546,42.4743935 146.314195,40.5619946 146.314195,36.3571429 C146.314195,32.3059299 143.58934,30.4703504 137.5181,30.4703504 L132.689921,30.4703504 L132.689921,42.4743935 L138.061425,42.4743935 Z M120,19 L136.97066,19 C145.22343,19 149.425963,19.9946092 152.92876,22.7479784 C156.74438,25.8045822 159,30.8504043 159,36.2803235 C159,41.4797844 156.978997,46.3760108 153.55029,49.5862534 C150.125699,52.7196765 145.766755,54.0215633 138.374248,54.0215633 L132.689921,54.0215633 L132.689921,70 L120,70 L120,19 Z" id="Fill-6" fill="#004B86"></path>
                        <path d="M180.061425,42.4743935 C185.667546,42.4743935 188.314195,40.5619946 188.314195,36.3571429 C188.314195,32.3059299 185.58934,30.4703504 179.5181,30.4703504 L174.689921,30.4703504 L174.689921,42.4743935 L180.061425,42.4743935 Z M162,19 L178.97066,19 C187.22343,19 191.425963,19.9946092 194.92876,22.7479784 C198.74438,25.8045822 201,30.8504043 201,36.2803235 C201,41.4797844 198.978997,46.3760108 195.55029,49.5862534 C192.125699,52.7196765 187.766755,54.0215633 180.374248,54.0215633 L174.689921,54.0215633 L174.689921,70 L162,70 L162,19 Z" id="Fill-8" fill="#004B86"></path>
                        <g id="Group-12" transform="translate(0.000000, 10.000000)">
                            <mask id="mask-4" fill="white">
                                <use xlink:href="#path-3"></use>
                            </mask>
                            <g id="Clip-11"></g>
                            <path d="M19.2543236,34.5681 C8.63828727,34.5681 -0.000803636364,25.9282852 -0.000803636364,15.3113593 C-0.000803636364,9.92654444 2.27750545,4.75069259 6.24746909,1.10991481 C7.86679636,-0.372918519 10.3821782,-0.2604 11.8648873,1.35504444 C13.3475964,2.97450741 13.2391055,5.4901 11.6197782,6.97293333 C9.28521455,9.11078519 7.94716,12.1487852 7.94716,15.3113593 C7.94716,21.5440815 13.0221236,26.6194704 19.2543236,26.6194704 C25.4865236,26.6194704 30.5614873,21.5440815 30.5614873,15.3113593 C30.5614873,12.1648593 29.2314691,9.1348963 26.9169964,6.99704444 C25.3057055,5.51019259 25.2012327,2.9946 26.6919782,1.38317407 C28.1787055,-0.23227037 30.6940873,-0.332733333 32.3093964,1.15411852 C36.2472145,4.79087778 38.5094509,9.95065556 38.5094509,15.3113593 C38.5094509,25.9282852 29.87036,34.5681 19.2543236,34.5681" id="Fill-10" fill="#2DAED8" mask="url(#mask-4)"></path>
                        </g>
                        <path d="M19.5,0 C17.0156724,0 15,1.80632008 15,4.03261978 L15,23.9673802 C15,26.1936799 17.0156724,28 19.5,28 C21.9843276,28 24,26.1936799 24,23.9673802 L24,4.03261978 C24,1.80632008 21.9843276,0 19.5,0" id="Fill-13" fill="#004B86"></path>
                    </g>
                </g>
            </g>
        </g>
    </g>
</svg>