<?xml version="1.0" encoding="utf-8"?>
<!-- Generator: Adobe Illustrator 16.0.0, SVG Export Plug-In . SVG Version: 6.00 Build 0)  -->
<!DOCTYPE svg PUBLIC "-//W3C//DTD SVG 1.1//EN" "http://www.w3.org/Graphics/SVG/1.1/DTD/svg11.dtd">
<svg version="1.1" id="Layer_1" xmlns="http://www.w3.org/2000/svg" xmlns:xlink="http://www.w3.org/1999/xlink" x="0px" y="0px"
	 width="66px" height="38px" viewBox="0 0 66 38" enable-background="new 0 0 66 38" xml:space="preserve">
<title>Page 1</title>
<desc>Created with Sketch.</desc>
<g id="Page-1_1_">
	<g id="Support-" transform="translate(-441.000000, -2387.000000)">
		<rect display="none" fill="#FFFFFF" width="1440" height="3047"/>
		<g id="Group-13" transform="translate(412.333333, 2362.000000)">
			<g id="Page-1" transform="translate(29.000000, 25.000000)">
				<path id="Fill-1" fill="#35ABE1" d="M0.896,7h0.184h0.021C1.94,6.979,2.768,6.674,2.914,6.619
					c0.124-0.045,0.902-0.335,1.772-0.873C5.703,5.118,6.756,4.257,6.8,4.221C6.809,4.212,7.803,3.4,8.717,2.833
					c0.757-0.467,1.437-0.71,1.443-0.711c0.009-0.004,0.019-0.007,0.027-0.011c0.168-0.065,0.745-0.253,1.226-0.267h0.157
					c0.473,0.014,1.043,0.197,1.222,0.267c0.008,0.004,0.02,0.007,0.029,0.011c0.007,0.001,0.686,0.244,1.443,0.711
					c0.913,0.567,1.91,1.379,1.92,1.388c0.042,0.037,1.095,0.897,2.112,1.526c0.87,0.537,1.648,0.828,1.774,0.873
					c0.146,0.055,0.974,0.36,1.813,0.381h0.021h0.183h0.021c0.839-0.021,1.667-0.326,1.813-0.381
					C24,6.592,24.333,6.467,24.785,6.247c0.271-0.131,0.583-0.3,0.909-0.5c1.018-0.629,2.069-1.489,2.112-1.526
					c0.011-0.008,1.006-0.821,1.919-1.388c0.757-0.467,1.437-0.71,1.442-0.711c0.011-0.004,0.021-0.007,0.031-0.011
					c0.165-0.065,0.745-0.253,1.222-0.267h0.159c0.476,0.014,1.042,0.197,1.223,0.267c0.009,0.004,0.021,0.007,0.028,0.011
					c0.006,0.002,0.688,0.247,1.444,0.711c0.913,0.567,1.909,1.379,1.919,1.388c0.045,0.037,1.096,0.897,2.114,1.526
					c0.327,0.2,0.639,0.369,0.909,0.5c0.451,0.221,0.785,0.345,0.863,0.373c0.146,0.055,0.973,0.36,1.813,0.381h0.022h0.184h0.021
					c0.839-0.021,1.667-0.326,1.812-0.381c0.123-0.045,0.904-0.335,1.771-0.873c1.018-0.629,2.068-1.489,2.113-1.526
					c0.01-0.008,1.005-0.821,1.919-1.388c0.756-0.467,1.435-0.71,1.44-0.711c0.011-0.004,0.02-0.007,0.031-0.011
					c0.166-0.065,0.742-0.253,1.223-0.267h0.158c0.474,0.014,1.044,0.197,1.221,0.267c0.011,0.004,0.021,0.007,0.031,0.011
					c0.006,0.002,0.688,0.247,1.441,0.711c0.916,0.567,1.911,1.379,1.922,1.388c0.043,0.037,1.096,0.897,2.113,1.526
					c0.87,0.537,1.648,0.828,1.771,0.873c0.148,0.055,0.977,0.36,1.813,0.381h0.023h0.182c0.494,0,0.896-0.412,0.896-0.922
					c0-0.508-0.402-0.925-0.896-0.925h-0.17c-0.475-0.012-1.043-0.197-1.223-0.263c-0.01-0.004-0.02-0.01-0.029-0.013
					c-0.006-0.001-0.686-0.245-1.443-0.712c-0.912-0.565-1.91-1.378-1.918-1.387c-0.047-0.037-1.098-0.896-2.116-1.525
					c-0.868-0.539-1.647-0.828-1.771-0.873C55.288,0.325,54.46,0.022,53.62,0h-0.021h-0.184h-0.022
					c-0.839,0.022-1.667,0.325-1.811,0.381c-0.126,0.045-0.903,0.334-1.773,0.873c-1.019,0.629-2.068,1.49-2.112,1.525
					c-0.008,0.009-1.006,0.823-1.918,1.387c-0.756,0.467-1.436,0.711-1.441,0.712c-0.01,0.003-0.02,0.007-0.03,0.013
					c-0.167,0.063-0.743,0.25-1.224,0.263h-0.157c-0.474-0.012-1.043-0.197-1.222-0.263c-0.008-0.004-0.019-0.01-0.029-0.013
					c-0.007-0.001-0.687-0.245-1.441-0.712c-0.916-0.564-1.912-1.378-1.922-1.387c-0.044-0.037-1.098-0.896-2.113-1.525
					c-0.87-0.539-1.648-0.828-1.772-0.873C34.278,0.325,33.45,0.022,32.612,0h-0.024h-0.181h-0.021
					c-0.839,0.022-1.667,0.325-1.813,0.381c-0.124,0.045-0.901,0.334-1.771,0.873c-1.017,0.629-2.069,1.49-2.113,1.525
					c-0.009,0.009-1.003,0.823-1.917,1.387c-0.757,0.467-1.438,0.711-1.443,0.712c-0.009,0.003-0.02,0.007-0.03,0.013
					c-0.164,0.063-0.742,0.25-1.221,0.263h-0.159c-0.476-0.012-1.043-0.197-1.222-0.263c-0.009-0.004-0.02-0.01-0.028-0.013
					c-0.008-0.001-0.689-0.245-1.444-0.712c-0.914-0.564-1.912-1.378-1.92-1.387c-0.045-0.037-1.098-0.896-2.115-1.525
					c-0.869-0.539-1.647-0.828-1.771-0.873C13.271,0.325,12.443,0.022,11.605,0h-0.022h-0.181h-0.024
					C10.539,0.022,9.71,0.325,9.564,0.381C9.44,0.426,8.661,0.715,7.791,1.253C6.775,1.882,5.724,2.744,5.68,2.778
					C5.67,2.788,4.676,3.602,3.76,4.166C3.004,4.633,2.324,4.877,2.319,4.878c-0.009,0.003-0.02,0.007-0.028,0.013
					c-0.167,0.063-0.745,0.25-1.225,0.263h-0.17C0.401,5.153,0,5.57,0,6.078C0,6.588,0.401,7,0.896,7"/>
				<g id="Group-5" transform="translate(44.000000, 5.000000)">
					<g id="Clip-4">
					</g>
					<defs>
						<filter id="Adobe_OpacityMaskFilter" filterUnits="userSpaceOnUse" x="0.292" y="0.805" width="20.408" height="6.813">
							<feColorMatrix  type="matrix" values="1 0 0 0 0  0 1 0 0 0  0 0 1 0 0  0 0 0 1 0"/>
						</filter>
					</defs>
					<mask maskUnits="userSpaceOnUse" x="0.292" y="0.805" width="20.408" height="6.813" id="mask-2">
						<g filter="url(#Adobe_OpacityMaskFilter)">
							<polygon id="path-1" fill="#FFFFFF" points="0.292,0.805 20.7,0.805 20.7,7.618 0.292,7.618 							"/>
						</g>
					</mask>
					<path id="Fill-3" mask="url(#mask-2)" fill="#35ABE1" d="M19.781,5.823h-0.177c-0.484-0.013-1.07-0.192-1.252-0.259
						c-0.011-0.002-0.021-0.008-0.03-0.012c-0.007-0.001-0.704-0.237-1.481-0.693c-0.938-0.551-1.959-1.341-1.969-1.35
						c-0.047-0.036-1.125-0.872-2.17-1.484c-0.893-0.524-1.691-0.807-1.818-0.851c-0.149-0.055-0.998-0.348-1.859-0.371H9.001H8.813
						H8.79C7.928,0.827,7.08,1.121,6.932,1.175c-0.13,0.044-0.929,0.327-1.82,0.851C4.068,2.638,2.991,3.475,2.946,3.51
						c-0.01,0.008-1.033,0.8-1.969,1.35C0.735,5.002,0.5,5.123,0.292,5.222C0.723,5.668,1.13,6.139,1.508,6.628
						c0.134-0.071,0.273-0.148,0.417-0.23C2.969,5.786,4.048,4.95,4.094,4.914c0.008-0.01,1.03-0.799,1.969-1.351
						c0.774-0.455,1.472-0.69,1.478-0.693c0.009-0.003,0.021-0.007,0.031-0.01c0.171-0.065,0.762-0.247,1.255-0.26h0.162
						c0.486,0.013,1.07,0.192,1.253,0.26c0.011,0.003,0.021,0.007,0.032,0.01c0.006,0.004,0.705,0.24,1.478,0.693
						c0.938,0.552,1.962,1.341,1.972,1.351c0.045,0.036,1.126,0.872,2.168,1.484c0.893,0.524,1.691,0.805,1.818,0.849
						c0.152,0.055,1.001,0.351,1.861,0.371h0.021h0.188c0.507,0,0.919-0.4,0.919-0.897C20.7,6.226,20.288,5.823,19.781,5.823"/>
				</g>
				<g id="Group-8" transform="translate(16.000000, 5.000000)">
					<g id="Clip-7">
					</g>
					<defs>
						<filter id="Adobe_OpacityMaskFilter_1_" filterUnits="userSpaceOnUse" x="0.231" y="0.752" width="32.248" height="32.248">
							<feColorMatrix  type="matrix" values="1 0 0 0 0  0 1 0 0 0  0 0 1 0 0  0 0 0 1 0"/>
						</filter>
					</defs>
					<mask maskUnits="userSpaceOnUse" x="0.231" y="0.752" width="32.248" height="32.248" id="mask-4">
						<g filter="url(#Adobe_OpacityMaskFilter_1_)">
							<polygon id="path-3" fill="#FFFFFF" points="0.231,0.752 32.479,0.752 32.479,33 0.231,33 							"/>
						</g>
					</mask>
					<path id="Fill-6" mask="url(#mask-4)" fill="#1F3D7C" d="M30.686,16.877c0,7.9-6.43,14.33-14.332,14.33
						c-7.901,0-14.331-6.43-14.331-14.33c0-3.574,1.315-6.843,3.485-9.355c0.809-0.938,1.738-1.77,2.764-2.474
						c0.381-0.261,0.775-0.504,1.181-0.729c2.049-1.131,4.399-1.774,6.901-1.774c0.025,0,0.05,0,0.077,0.001
						c2.473,0.012,4.798,0.654,6.824,1.773c0.407,0.225,0.802,0.467,1.182,0.729c1.026,0.704,1.955,1.535,2.766,2.474
						C29.372,10.034,30.686,13.303,30.686,16.877 M27.845,5.576c-2.901-2.95-6.931-4.793-11.38-4.822
						c-0.037-0.001-0.074-0.001-0.111-0.001c-4.496,0-8.567,1.848-11.492,4.826c-0.443,0.45-0.862,0.929-1.25,1.428
						c-2.119,2.729-3.382,6.155-3.382,9.87C0.231,25.768,7.464,33,16.355,33c8.89,0,16.125-7.232,16.125-16.123
						c0-3.715-1.266-7.141-3.384-9.87C28.708,6.505,28.289,6.029,27.845,5.576"/>
				</g>
				<path id="Fill-9" fill="#1F3D7C" d="M39.315,24.143c-1.307-1.035-2.357-1.758-3.245-2.143c-0.134,0.632-0.52,1.223-1.148,1.648
					c-0.571,0.387-1.249,0.572-1.921,0.568c0.231,0.944,0.795,2.064,1.452,3.218c1.729,3.034,5.471,4.17,6.813,3.261
					C42.607,29.785,42.2,26.429,39.315,24.143"/>
				<path id="Fill-11" fill="#1F3D7C" d="M31.579,20.316c-0.655,0.509-0.771,1.451-0.263,2.104c0.509,0.655,1.451,0.771,2.104,0.265
					c0.654-0.509,0.771-1.451,0.264-2.106C33.174,19.926,32.233,19.807,31.579,20.316"/>
				<path id="Fill-13" fill="#1F3D7C" d="M32.114,31.226c-5.702,0-10.34-4.638-10.34-10.34c0-0.489-0.398-0.886-0.888-0.886
					C20.396,20,20,20.396,20,20.886C20,27.566,25.434,33,32.114,33C32.604,33,33,32.604,33,32.114
					C33,31.624,32.604,31.226,32.114,31.226"/>
				<path id="Fill-15" fill="#1F3D7C" d="M26.69,17.895c1.257,1,2.278,1.709,3.145,2.105c0.132-0.635,0.521-1.235,1.152-1.663
					c0.598-0.407,1.31-0.595,2.013-0.574c-0.24-0.938-0.794-2.042-1.439-3.181c-1.731-3.048-5.481-4.191-6.823-3.276
					C23.392,12.221,23.8,15.597,26.69,17.895"/>
				<g id="Group-19" transform="translate(0.000000, 5.000000)">
					<g id="Clip-18">
					</g>
					<defs>
						<filter id="Adobe_OpacityMaskFilter_2_" filterUnits="userSpaceOnUse" x="0" y="0.805" width="19.902" height="6.813">
							<feColorMatrix  type="matrix" values="1 0 0 0 0  0 1 0 0 0  0 0 1 0 0  0 0 0 1 0"/>
						</filter>
					</defs>
					<mask maskUnits="userSpaceOnUse" x="0" y="0.805" width="19.902" height="6.813" id="mask-6">
						<g filter="url(#Adobe_OpacityMaskFilter_2_)">
							<polygon id="path-5" fill="#FFFFFF" points="0,0.805 19.902,0.805 19.902,7.618 0,7.618 							"/>
						</g>
					</mask>
					<path id="Fill-17" mask="url(#mask-6)" fill="#35ABE1" d="M18.714,6.629c0.371-0.489,0.767-0.96,1.188-1.408
						c-0.201-0.099-0.432-0.219-0.668-0.361c-0.915-0.549-1.912-1.341-1.921-1.351c-0.045-0.035-1.097-0.872-2.116-1.484
						c-0.87-0.524-1.648-0.805-1.772-0.849c-0.146-0.055-0.974-0.35-1.813-0.371h-0.022h-0.182h-0.024
						C10.545,0.826,9.715,1.121,9.57,1.176C9.446,1.22,8.668,1.501,7.797,2.025C6.778,2.637,5.728,3.476,5.683,3.509
						C5.673,3.519,4.678,4.311,3.762,4.86C3.006,5.314,2.326,5.552,2.321,5.553C2.31,5.556,2.301,5.56,2.292,5.565
						C2.125,5.628,1.548,5.809,1.066,5.824h-0.17C0.401,5.824,0,6.227,0,6.721c0,0.496,0.401,0.897,0.896,0.897h0.184h0.023
						c0.84-0.02,1.667-0.316,1.813-0.371C3.04,7.204,3.818,6.921,4.689,6.398c1.019-0.612,2.071-1.449,2.115-1.485
						c0.011-0.008,1.005-0.799,1.92-1.35c0.756-0.456,1.436-0.692,1.443-0.693c0.011-0.004,0.019-0.007,0.028-0.011
						c0.168-0.064,0.744-0.247,1.226-0.26h0.157c0.473,0.014,1.044,0.192,1.223,0.26c0.009,0.004,0.02,0.006,0.029,0.011
						c0.007,0.001,0.687,0.237,1.445,0.693c0.912,0.551,1.911,1.342,1.92,1.35c0.043,0.036,1.098,0.874,2.113,1.485
						C18.447,6.481,18.584,6.557,18.714,6.629"/>
				</g>
			</g>
		</g>
	</g>
</g>
</svg>
