<?xml version="1.0" encoding="utf-8"?>
<!-- Generator: Adobe Illustrator 16.0.0, SVG Export Plug-In . SVG Version: 6.00 Build 0)  -->
<!DOCTYPE svg PUBLIC "-//W3C//DTD SVG 1.1//EN" "http://www.w3.org/Graphics/SVG/1.1/DTD/svg11.dtd">
<svg version="1.1" id="Layer_1" xmlns="http://www.w3.org/2000/svg" xmlns:xlink="http://www.w3.org/1999/xlink" x="0px" y="0px"
	 width="47px" height="51px" viewBox="0 0 47 51" enable-background="new 0 0 47 51" xml:space="preserve">
<title>Page 1</title>
<desc>Created with Sketch.</desc>
<g id="Page-1_1_">
	<g id="Support-" transform="translate(-118.000000, -2382.000000)">
		<rect display="none" fill="#FFFFFF" stroke="#FFFFFF" stroke-miterlimit="10" width="1440" height="3047"/>
		<g id="Group-2" transform="translate(87.000000, 2363.000000)">
			<g id="Page-1" transform="translate(31.000000, 18.000000)">
				<g id="Group-3" transform="translate(16.000000, 0.410700)">
					<g id="Clip-2">
					</g>
					<defs>
						<filter id="Adobe_OpacityMaskFilter" filterUnits="userSpaceOnUse" x="0.151" y="0.09" width="30.603" height="28.298">
							<feColorMatrix  type="matrix" values="1 0 0 0 0  0 1 0 0 0  0 0 1 0 0  0 0 0 1 0"/>
						</filter>
					</defs>
					<mask maskUnits="userSpaceOnUse" x="0.151" y="0.09" width="30.603" height="28.298" id="mask-2">
						<g filter="url(#Adobe_OpacityMaskFilter)">
							<polygon id="path-1" fill="#FFFFFF" points="0.651,0.589 30.254,0.589 30.254,27.888 0.651,27.888 							"/>
						</g>
					</mask>
					<path id="Fill-1" mask="url(#mask-2)" fill="#FFFFFF" stroke="#FFFFFF" stroke-miterlimit="10" d="M29.607,12.259l-2.555-1.648
						c-0.138-0.09-0.264-0.366-0.24-0.53l0.43-3.008c0.058-0.395-0.051-0.794-0.301-1.095c-0.246-0.301-0.619-0.484-1.017-0.503
						l-3.036-0.151c-0.162-0.008-0.41-0.184-0.472-0.338l-1.132-2.822c-0.148-0.369-0.442-0.659-0.809-0.796
						c-0.154-0.058-0.318-0.086-0.481-0.086c-0.224,0-0.446,0.053-0.65,0.157l-2.704,1.388c-0.146,0.076-0.449,0.046-0.578-0.056
						l-2.391-1.877c-0.313-0.246-0.714-0.351-1.098-0.286c-0.385,0.064-0.729,0.292-0.945,0.627L9.98,3.789
						C9.893,3.928,9.615,4.055,9.452,4.03L6.442,3.6C6.048,3.542,5.65,3.653,5.348,3.9c-0.3,0.249-0.484,0.619-0.504,1.017
						l-0.15,3.036C4.686,8.118,4.509,8.365,4.356,8.427l-2.821,1.13C1.165,9.705,0.874,10,0.738,10.365
						c-0.137,0.366-0.111,0.778,0.072,1.132l1.382,2.696h1.406c-0.024-0.219-0.084-0.43-0.18-0.617L2.03,10.871
						c-0.008-0.014-0.008-0.023-0.006-0.026c0-0.002,0.006-0.009,0.022-0.014L4.867,9.7C5.514,9.44,6.03,8.718,6.065,8.021
						l0.149-3.036c0.001-0.017,0.005-0.024,0.008-0.026c0.001-0.001,0.01-0.004,0.026-0.001l3.008,0.43
						c0.693,0.101,1.499-0.268,1.878-0.854l1.647-2.555c0.01-0.013,0.016-0.018,0.019-0.018c0.005,0,0.013,0.001,0.024,0.011
						l2.391,1.878c0.549,0.431,1.432,0.517,2.053,0.198l2.704-1.388c0.015-0.007,0.023-0.007,0.026-0.007
						c0.001,0.001,0.008,0.007,0.014,0.022l1.131,2.822c0.26,0.648,0.981,1.163,1.68,1.197l3.035,0.15
						c0.018,0.002,0.023,0.006,0.026,0.007c0.001,0.002,0.004,0.01,0.001,0.027l-0.431,3.009c-0.101,0.692,0.269,1.498,0.854,1.876
						l2.555,1.648c0.014,0.009,0.018,0.017,0.02,0.019c0,0.003-0.002,0.012-0.012,0.023l-1.879,2.391
						c-0.432,0.55-0.516,1.431-0.197,2.052l1.389,2.705c0.008,0.016,0.008,0.023,0.006,0.026c0,0.003-0.006,0.009-0.022,0.015
						l-2.82,1.13c-0.649,0.261-1.163,0.982-1.198,1.68l-0.149,3.035c-0.001,0.017-0.005,0.025-0.009,0.026
						c0,0.003-0.01,0.005-0.025,0.003l-2.406-0.346l0.455,1.45l1.758,0.254c0.394,0.055,0.791-0.055,1.094-0.303
						c0.3-0.248,0.484-0.617,0.504-1.016l0.15-3.036c0.008-0.165,0.185-0.413,0.338-0.473l2.82-1.131
						c0.369-0.149,0.661-0.444,0.797-0.808c0.137-0.366,0.11-0.779-0.072-1.133l-1.388-2.705c-0.073-0.145-0.045-0.448,0.056-0.578
						l1.879-2.391c0.246-0.313,0.351-0.712,0.287-1.097C30.171,12.82,29.941,12.474,29.607,12.259"/>
				</g>
				<path id="Fill-4" fill="#FFFFFF" stroke="#FFFFFF" stroke-miterlimit="10" d="M39.141,19.964
					c-0.311,0.655-0.702,1.272-1.166,1.835c-0.441,0.535-0.934,1.011-1.473,1.421l0.436,1.383c0.775-0.536,1.48-1.183,2.096-1.932
					c1.07-1.299,1.809-2.851,2.139-4.492c0.218-1.079,0.26-2.184,0.125-3.28c-0.321-2.626-1.623-4.999-3.666-6.679
					c-2.117-1.743-4.787-2.558-7.517-2.292c-2.729,0.265-5.192,1.577-6.935,3.694c-1.198,1.453-1.955,3.167-2.227,4.982h1.39
					c0.261-1.496,0.905-2.905,1.896-4.11c1.51-1.835,3.645-2.971,6.008-3.2c0.293-0.029,0.586-0.043,0.877-0.043
					c2.055,0,4.028,0.705,5.637,2.028c1.769,1.456,2.898,3.512,3.176,5.786c0.116,0.951,0.08,1.908-0.107,2.844
					C39.685,18.62,39.453,19.312,39.141,19.964"/>
				<g id="Group-8" transform="translate(0.000000, 15.410700)">
					<g id="Clip-7">
					</g>
					<defs>
						<filter id="Adobe_OpacityMaskFilter_1_" filterUnits="userSpaceOnUse" x="-0.5" y="0.499" width="40.994" height="36.001">
							<feColorMatrix  type="matrix" values="1 0 0 0 0  0 1 0 0 0  0 0 1 0 0  0 0 0 1 0"/>
						</filter>
					</defs>
					<mask maskUnits="userSpaceOnUse" x="-0.5" y="0.499" width="40.994" height="36.001" id="mask-4">
						<g filter="url(#Adobe_OpacityMaskFilter_1_)">
							<polygon id="path-3" fill="#FFFFFF" points="0,0.999 39.994,0.999 39.994,35.999 0,35.999 							"/>
						</g>
					</mask>
					<path id="Fill-6" mask="url(#mask-4)" fill="#FFFFFF" stroke="#FFFFFF" stroke-miterlimit="10" d="M27.055,24.281l-0.369-3.283
						l-0.514-4.57h9.827l1.054,3.465l1.33,4.389H27.055z M14.137,24.281l0.616-7.854h2.046h7.992l0.494,4.395l0.387,3.459H25.1
						H14.137z M3.465,16.427h9.912l-0.616,7.854H1.559L3.465,16.427z M5.341,8.697h8.641l-0.498,6.357H3.799L5.341,8.697z
						 M6.877,2.371h6.714h0.888l-0.227,2.896l-0.161,2.058H5.675L6.877,2.371z M17.851,2.371h3.119h1.393h0.851l0.345,3.083
						l0.21,1.871h-0.54h-2.576h-1.386h-3.801l0.389-4.954h0.277H17.851z M31.734,2.371l1.504,4.954H25.15l-0.557-4.954H31.734z
						 M16.489,15.054H14.86l0.416-5.305l0.083-1.053h3.711h1.386h3.468l0.142,1.258l0.342,3.059l0.23,2.041H16.489z M34.209,10.526
						l0.57,1.879l0.521,1.721l0.282,0.928h-0.88h-2.831h-5.049H26.02l-0.268-2.375l-0.385-3.428l-0.063-0.555h1.826h6.523
						l0.156,0.515L34.209,10.526z M38.2,18.954l-1.034-3.407c-0.001-0.005-0.002-0.01-0.005-0.015l-0.881-2.905l-0.411-1.357
						l-0.378-1.243l-0.403-1.331l-0.271-0.889L32.9,1.485c-0.09-0.288-0.354-0.486-0.657-0.486h-8.4h-1.628h-1.372h-1.914h-1.746
						h-1.975h-1.932H6.339c-0.317,0-0.593,0.217-0.668,0.524L4.13,7.872l-1.876,7.731L0.02,24.804
						c-0.051,0.204-0.003,0.422,0.127,0.586c0.13,0.166,0.329,0.262,0.539,0.262h23.729v8.976h-9.114V30.14
						c0-0.379-0.308-0.686-0.687-0.686s-0.686,0.307-0.686,0.686v4.487H7.361c-0.379,0-0.687,0.308-0.687,0.687S6.982,36,7.361,36
						h7.253H25.1h6.125c0.377,0,0.686-0.308,0.686-0.687s-0.309-0.687-0.686-0.687h-5.438v-8.976h13.521
						c0.215,0,0.42-0.103,0.552-0.277c0.128-0.174,0.167-0.398,0.104-0.607L38.2,18.954z"/>
				</g>
			</g>
		</g>
	</g>
</g>
</svg>
