<?xml version="1.0" encoding="UTF-8"?>
<svg width="71px" height="71px" viewBox="0 0 71 71" version="1.1" xmlns="http://www.w3.org/2000/svg" xmlns:xlink="http://www.w3.org/1999/xlink">
    <!-- Generator: Sketch 51 (57462) - http://www.bohemiancoding.com/sketch -->
    <title>Page 1</title>
    <desc>Created with Sketch.</desc>
    <defs>
        <polygon id="path-1" points="0.923333333 0.317022222 29.0066667 0.317022222 29.0066667 28 0.923333333 28"></polygon>
    </defs>
    <g id="Page-1" stroke="none" stroke-width="1" fill="none" fill-rule="evenodd">
        <g id="Home" transform="translate(-1258.000000, -917.000000)">
            <rect fill="#FFFFFF" x="0" y="0" width="1440" height="2711"></rect>
            <g id="Page-1" transform="translate(1258.000000, 917.000000)">
                <path d="M62.2033696,67.9729368 C59.1312992,67.9629294 56.6776653,65.4961028 56.6877212,62.4238279 C56.697777,59.3282024 59.1212434,56.9581141 62.257001,56.976461 C65.3458312,56.99314 67.8380126,59.4599666 67.809521,62.473865 C67.7827053,65.4860954 65.2352165,67.9829442 62.2033696,67.9729368 M63.9530922,53.8424737 C62.9977839,53.6323181 61.9771124,53.1186044 61.2799049,52.4431042 C59.0826958,50.3115259 56.9055985,48.1582648 54.7335291,46 C54.0145339,47.4610819 53.1178849,48.8587835 52.0335261,50.1697542 C50.3005633,52.2679745 48.2458125,53.9475515 46,55.2034815 C47.8687171,57.0581882 49.7441382,58.9062232 51.6262631,60.7475867 C52.7357615,61.8317228 53.4916283,62.9508848 53.8536398,64.5220482 C54.8324119,68.7968802 58.7474999,71.3837958 63.2257171,70.9534771 C67.4458334,70.5448412 70.8028203,67.0289045 70.99053,62.8207885 C71.1866196,58.3808342 68.3206947,54.8065209 63.9530922,53.8424737" id="Fill-1" fill="#1F3D7C"></path>
                <path d="M51.3268812,22 C54.003719,19.2107285 56.674168,16.4198623 59.3462143,13.6305908 C59.9148027,13.0373324 60.5472775,12.6083364 61.4017573,12.4982965 C62.5932376,12.342008 63.5770873,11.796593 64.3325433,10.8173976 C65.6438104,9.1141718 67.0109781,7.45559986 68.3366197,5.76513229 C68.8237531,5.1447626 69.2773461,4.49728162 69.7181619,3.84342153 C70.0439822,3.36498731 70.1414089,2.80521928 69.7165647,2.36346502 C68.9275684,1.54534252 68.07788,0.786226894 67.2537462,0 L66.6420345,0 C66.3226028,0.204131932 65.982408,0.376368249 65.690128,0.610801015 C63.6058361,2.28213121 61.5455016,3.98535701 59.4468353,5.63754984 C58.426251,6.4429141 57.8448853,7.4603842 57.6899609,8.72823487 C57.5893399,9.54316781 57.198036,10.1842697 56.6214618,10.7376586 C56.4489687,10.9051105 56.2748784,11.0741573 56.1023853,11.2432041 C53.4015902,13.9208409 50.7007951,16.5984777 48,19.272925 C48.6021288,19.6700254 49.1898831,20.1006162 49.7616659,20.5710765 C50.3126856,21.025589 50.8349564,21.5024284 51.3268812,22" id="Fill-3" fill="#1F3D7C"></path>
                <path d="M42.1851265,52.238502 C38.5493343,53.7358454 34.3993231,53.755634 30.7140867,52.1989247 C29.4235948,51.654736 28.1907876,50.9159587 27.0552206,49.9825927 C24.2929415,47.7068946 22.4766935,44.5852306 21.8652344,41.095827 C21.7976607,40.7148949 21.7432722,40.3290157 21.7070131,39.9365402 C21.4746257,37.5322158 21.8174384,35.1608725 22.6893033,32.9824688 C23.2513183,31.5774726 24.0325357,30.2532802 25.0230666,29.0494689 C26.9118326,26.7539822 29.3461323,25.172537 31.9864492,24.3381144 C33.4516438,23.8697823 34.9811158,23.6339672 36.5122359,23.6339672 C38.9201653,23.6339672 41.3363355,24.2160842 43.5333033,25.3968087 C44.3722055,25.8486502 45.1814412,26.3878917 45.9445291,27.0161822 C46.3944707,27.388869 46.8196903,27.7796954 47.2168915,28.1952576 C49.4418777,30.5055858 50.8592763,33.4639933 51.2531812,36.6911969 C51.4476615,38.2808874 51.3866804,39.8804723 51.0718861,41.447076 C50.9647571,41.9747741 50.8312579,42.4942269 50.6664441,43.0070835 C50.0945403,44.799608 49.1814719,46.4865928 47.9766831,47.949306 C46.3730449,49.9017889 44.3705574,51.3364681 42.1851265,52.238502 M50.0104853,49.6263965 C51.1444041,48.2494342 52.0574725,46.7075664 52.720024,45.0684042 C53.1287622,44.0674269 53.4419084,43.0268722 53.6561663,41.9681779 C54.0269973,40.1245327 54.0978672,38.2413101 53.8687761,36.37128 C53.4007049,32.5355745 51.704771,29.0197859 49.0380839,26.2889483 C48.5947348,25.8305106 48.1200711,25.3918615 47.6190372,24.9812464 C46.9334118,24.4172691 46.2164718,23.9110087 45.4764579,23.4707106 C40.6985061,20.6079485 34.9217828,20.2665938 29.9427582,22.2718465 C27.3139783,23.3272427 24.9093451,25.0389634 22.9892644,27.3740275 C22.0728997,28.4854916 21.31146,29.6876538 20.701649,30.9541292 C19.3402871,33.7987518 18.7716795,36.9715366 19.0831776,40.192144 C19.1408624,40.7858043 19.2298619,41.3728685 19.3435834,41.9500383 C20.128097,45.8995287 22.231121,49.4252116 25.3823606,52.0175284 C26.8656847,53.2411284 28.4923968,54.1777925 30.1949233,54.8308189 C32.2221329,55.6157698 34.3548234,56 36.4858657,56 C39.0124611,56 41.5291676,55.4541623 43.8480977,54.3872227 C43.960171,54.3361019 44.0689481,54.2833321 44.1793734,54.2322114 C46.3681005,53.1669209 48.3639955,51.625053 50.0104853,49.6263965" id="Fill-5" fill="#1F3D7C"></path>
                <path d="M42.2724963,35.4119746 L40.1021778,35.4119746 L39.0502735,35.4119746 L40.0024132,28.8879164 L40.1669373,27.748037 C40.2089435,27.437595 40.0094142,27.1414811 39.6856167,27.0380004 C39.3600689,26.9329277 39.0030165,27.0523285 38.8262406,27.3150102 L34.3823386,33.9616532 L31.1058578,38.8586769 C30.971088,39.0624542 30.964087,39.3139918 31.0901055,39.5193611 C31.216124,39.7295065 31.4506584,39.8584593 31.7096964,39.8632354 L34.746392,39.9157717 C34.6623796,40.6831207 34.5241094,41.9615049 34.3928401,43.2319292 C34.2755729,44.4004647 34.181059,45.3365668 34.1233006,46.0115791 C34.0970467,46.3315732 34.0725431,46.611767 34.0602913,46.8266884 C34.0567908,46.8696727 34.0550405,46.9094729 34.05154,46.9476812 C34.0287867,47.3233956 34.0025328,47.7898546 34.5293601,47.9601997 C34.6116222,47.9888559 34.6903838,48 34.7743961,48 C35.0141813,48 35.2469654,47.8933353 35.3834855,47.7038861 C35.4272419,47.6465737 35.8998112,46.9413132 36.5911627,45.9033224 C37.6133126,44.3686245 39.1167832,42.1079699 40.4189743,40.1434292 C41.5233863,38.4813704 42.4860276,37.0326411 42.8955877,36.413349 C43.0321077,36.2111637 43.033858,35.9564421 42.9060892,35.7494808 C42.7800707,35.5409274 42.5385353,35.4119746 42.2724963,35.4119746" id="Fill-7" fill="#1F3D7C"></path>
                <path d="M11.4524541,21.8581143 C12.7226785,21.7971686 13.5435609,22.1500117 14.3850846,23.0385347 C15.6410189,24.3681115 16.9080676,25.6864615 18.1703531,27 C18.7578318,25.930244 19.4516919,24.8989799 20.2471699,23.9222462 C22.1540942,21.5806513 24.4674902,19.777944 27,18.5349741 C25.7694702,17.2904004 24.534177,16.052242 23.2877694,14.8269143 C22.2001398,13.7539506 21.6761722,12.7291019 21.7253934,11.0691357 C21.9333927,4.20633806 15.7728046,-1.11678071 8.78498301,0.201569287 C10.8348075,2.25287055 12.6925106,4.02991653 14.4374813,5.9112116 C14.880472,6.3859459 15.2694782,7.23597692 15.1805625,7.84062162 C14.3136344,13.7812158 14.2850544,13.7764043 8.52299924,15.0787159 C8.40074014,15.1059811 8.26419103,15.1685305 8.15463418,15.1396616 C7.44648411,14.9616362 6.54780039,14.972863 6.07146626,14.5269977 C4.15183974,12.7355172 2.36399898,10.8012957 0.215732071,8.60083804 C0.115701904,9.88390373 -0.043076138,10.6890274 0.0109083963,11.4781128 C0.43960911,17.6432435 5.35220173,22.1500117 11.4524541,21.8581143" id="Fill-9" fill="#1F3D7C"></path>
                <g id="Group-13" transform="translate(0.000000, 41.000000)">
                    <mask id="mask-2" fill="white">
                        <use xlink:href="#path-1"></use>
                    </mask>
                    <g id="Clip-12"></g>
                    <path d="M17.0116667,0.317022222 C12.3616667,4.74257778 7.70666667,9.16502222 3.055,13.5859111 C2.16166667,14.4336889 1.535,15.4308 1.2,16.5788 C1.085,16.9708 1.01333333,17.3721333 0.923333333,17.7719111 L0.923333333,19.1128 C0.945,19.1936889 0.98,19.2761333 0.993333333,19.3601333 C1.19833333,20.8036889 1.82166667,22.0745778 2.89166667,23.1323556 C3.925,24.1481333 4.97666667,25.1499111 6.05,26.1283556 C7.22833333,27.2063556 8.655,27.8348 10.3016667,27.9701333 C12.7016667,28.1708 14.68,27.3696889 16.3516667,25.7721333 C20.555,21.7494667 24.775,17.7392444 29.0066667,13.7399111 C27.3016667,13.0305778 25.67,12.0956889 24.1583333,10.9352444 C20.465,8.09946667 18.0633333,4.34435556 17.0116667,0.317022222" id="Fill-11" fill="#1F3D7C" mask="url(#mask-2)"></path>
                </g>
            </g>
        </g>
    </g>
</svg>