<?xml version="1.0" encoding="UTF-8"?>
<svg width="42px" height="42px" viewBox="0 0 42 42" version="1.1" xmlns="http://www.w3.org/2000/svg" xmlns:xlink="http://www.w3.org/1999/xlink">
    <!-- Generator: Sketch 51 (57462) - http://www.bohemiancoding.com/sketch -->
    <title>Group 12</title>
    <desc>Created with Sketch.</desc>
    <defs></defs>
    <g id="Symbols" stroke="none" stroke-width="1" fill="none" fill-rule="evenodd">
        <g id="Footer" transform="translate(-944.000000, -202.000000)">
            <g id="Group-4">
                <g transform="translate(944.000000, 202.000000)">
                    <g id="Group-12">
                        <g id="Group-10" fill="#39AAE0">
                            <rect id="Rectangle-5" x="0" y="0" width="42" height="42" rx="3"></rect>
                        </g>
                        <path d="M27.9463346,27.7571898 C27.9463346,28.3846401 27.712034,28.92238 27.2439777,29.3709313 C26.6805665,29.8111375 25.8959319,29.9696952 24.9788902,29.9582206 C23.6085042,29.9582206 21.4011746,30.1439 19.217275,29.7323802 C18.425012,29.5832108 17.3020038,28.918729 16.8519287,28.6172608 C15.1448036,27.4744982 14,25.4800096 14,23.4041559 L14,14.28709 C14.0403215,12.9028399 15.0211147,12.0297296 16.304864,12 C16.9603608,12 17.5226823,12.2247972 17.9912835,12.6728269 C18.4593398,13.1208567 18.6941853,13.6596398 18.6941853,14.28709 L18.6941853,16.5731369 L25.4834539,16.5731369 C28.7026351,16.5731369 28.9723533,21.0336145 25.4834539,21.0336145 L18.6653064,21.0336145 L18.6653064,23.4041559 C18.970442,25.2572987 20.407849,25.5186059 21.9242643,25.4382839 C23.2303539,25.5097392 24.6067337,25.4700998 24.9391136,25.4700998 C26.6206291,25.2604281 27.8744098,26.02453 27.9463346,27.7571898" id="Fill-1" fill="#FFFFFF"></path>
                    </g>
                </g>
            </g>
        </g>
    </g>
</svg>