<?xml version="1.0" encoding="utf-8"?>
<!-- Generator: Adobe Illustrator 16.0.0, SVG Export Plug-In . SVG Version: 6.00 Build 0)  -->
<!DOCTYPE svg PUBLIC "-//W3C//DTD SVG 1.1//EN" "http://www.w3.org/Graphics/SVG/1.1/DTD/svg11.dtd">
<svg version="1.1" id="Layer_1" xmlns="http://www.w3.org/2000/svg" xmlns:xlink="http://www.w3.org/1999/xlink" x="0px" y="0px"
	 width="50px" height="49px" viewBox="0 0 50 49" enable-background="new 0 0 50 49" xml:space="preserve">
<title>Page 1</title>
<desc>Created with Sketch.</desc>
<g id="Page-1_1_">
	<g id="Support-" transform="translate(-1088.000000, -2492.000000)">
		<rect display="none" fill="#FFFFFF" width="1440" height="3047"/>
		<g id="Group-20" transform="translate(1064.000000, 2474.000000)">
			<g id="Page-1" transform="translate(24.000000, 18.000000)">
				<path id="Fill-1" fill="#35ABE1" d="M36.593,13.416c-1.687-1.156-3.404-2.279-5.11-3.416c-0.01,0.008-0.022,0.018-0.031,0.026
					c-0.152,0.117-0.3,0.233-0.451,0.35c0.279,0.303,0.557,0.607,0.833,0.913c0.392,0.431,0.783,0.862,1.178,1.293
					c0.524,0.576,1.055,1.152,1.595,1.718c0.449,0.476,0.906,0.944,1.374,1.407c0.522,0.519,1.685,0.316,1.966-0.336
					C38.259,14.646,37.148,13.794,36.593,13.416"/>
				<path id="Fill-3" fill="#35ABE1" d="M28.998,16.269c-0.135-2.093-0.409-4.179-0.637-6.269c-0.148,0.001-0.297,0.003-0.445,0.005
					c-0.584,2.092-1.254,4.187-0.723,6.382C27.396,17.226,29.059,17.22,28.998,16.269"/>
				<path id="Fill-5" fill="#1F3D7C" d="M32.395,29.611h-2.686l0.93-6.936c0.037-0.279-0.129-0.547-0.399-0.642
					c-0.271-0.093-0.569,0.012-0.718,0.253l-6.435,10.442c-0.111,0.184-0.116,0.412-0.012,0.599c0.104,0.188,0.301,0.304,0.517,0.31
					l2.532,0.049c-0.072,0.693-0.186,1.849-0.294,2.998c-0.101,1.059-0.179,1.906-0.226,2.517c-0.027,0.349-0.051,0.642-0.063,0.847
					c-0.018,0.339-0.041,0.761,0.402,0.918C26.01,40.988,26.076,41,26.146,41c0.198,0,0.395-0.099,0.51-0.27
					c0.129-0.189,5.232-8.541,6.257-10.213c0.112-0.186,0.116-0.416,0.009-0.602C32.816,29.727,32.614,29.611,32.395,29.611"/>
				<path id="Fill-7" fill="#35ABE1" d="M24.614,10.002c-0.062-0.053-1.766,0.984-1.937,1.083c-0.659,0.378-1.309,0.772-1.923,1.206
					c-0.614,0.432-1.197,0.904-1.716,1.428c-0.443,0.444-1.21,1.113-1.003,1.786c0.185,0.603,1.392,0.627,1.806,0.224
					c1.784-1.749,3.451-3.591,5.16-5.399C24.872,10.221,24.744,10.11,24.614,10.002"/>
				<g id="Group-11">
					<g id="Clip-10">
					</g>
					<defs>
						<filter id="Adobe_OpacityMaskFilter" filterUnits="userSpaceOnUse" x="0" y="0.266" width="49.904" height="48.734">
							<feColorMatrix  type="matrix" values="1 0 0 0 0  0 1 0 0 0  0 0 1 0 0  0 0 0 1 0"/>
						</filter>
					</defs>
					<mask maskUnits="userSpaceOnUse" x="0" y="0.266" width="49.904" height="48.734" id="mask-2">
						<g filter="url(#Adobe_OpacityMaskFilter)">
							<polygon id="path-1" fill="#FFFFFF" points="0,0.266 49.904,0.266 49.904,49 0,49 							"/>
						</g>
					</mask>
					<path id="Fill-9" mask="url(#mask-2)" fill="#35ABE1" d="M14.41,4.465c0.033-0.029,0.122-0.061,0.25-0.061
						c0.053,0,0.109,0.005,0.172,0.017c0.327,0.061,0.663,0.157,1.021,0.262c0.176,0.05,0.36,0.104,0.549,0.154
						c0.351,0.095,0.718-0.081,0.867-0.414c0.583-1.306,0.969-1.303,1.382-1.176c0.169,0.055,0.339,0.297,0.521,0.551
						c0.11,0.158,0.225,0.32,0.363,0.475c0.319,0.357,0.834,0.663,1.605,0.391c0.178,0.501,0.435,0.956,0.678,1.317
						c-0.251,0.335-0.379,0.715-0.39,1.165c-0.001,0.056-0.001,0.11,0,0.162c-0.218,0.033-0.435,0.066-0.649,0.102
						c-1.479,0.236-2.752,0.519-3.854,0.878c0.003-0.198-0.072-0.393-0.218-0.536C16.463,7.511,16.238,7.3,16.021,7.1
						c-0.414-0.384-0.77-0.714-1.02-1.068c-0.372-0.53-0.596-1.065-0.612-1.466C14.386,4.514,14.394,4.479,14.41,4.465 M1.485,42.18
						c-0.048-0.215,0.125-0.4,0.232-0.493c1.467-1.25,1.567-2.857,1.647-4.146c0.318-5.122,0.676-10.325,1.023-15.358
						c0.111-1.615,0.224-3.231,0.333-4.845c0.01-0.16,0.043-0.333,0.071-0.481c0.99-5.02,2.605-6.466,8.235-7.37
						c0.551-0.087,1.112-0.171,1.698-0.253c-2.596,1.467-3.849,3.816-4.64,7.849c-0.043,0.216-0.09,0.476-0.11,0.75
						c-0.124,1.803-0.247,3.604-0.371,5.407C9.208,28.962,8.802,34.88,8.438,40.704c-0.059,0.945-0.135,1.716-0.417,2.374
						c-1.25-0.048-2.499-0.104-3.75-0.166c-0.704-0.037-1.52-0.092-2.24-0.287C1.738,42.546,1.529,42.376,1.485,42.18
						 M11.135,46.889c-0.8-0.039-1.719-0.104-2.536-0.322c-0.33-0.09-0.566-0.285-0.618-0.504c-0.053-0.244,0.142-0.455,0.264-0.559
						c0.336-0.287,0.61-0.592,0.831-0.906c0.169-0.236,0.307-0.48,0.422-0.726c0.112-0.242,0.204-0.487,0.275-0.73
						c0.24-0.804,0.291-1.61,0.335-2.332c0.362-5.819,0.769-11.735,1.165-17.456c0.124-1.803,0.249-3.604,0.371-5.407
						c0.012-0.181,0.048-0.375,0.08-0.542c1.12-5.682,2.949-7.321,9.318-8.341c0.368-0.06,0.737-0.115,1.117-0.172
						c0.413-0.059,0.834-0.12,1.268-0.181c0.244-0.033,0.496-0.069,0.755-0.107c0.181-0.025,0.367-0.053,0.556-0.08
						c0.278-0.039,0.514-0.217,0.632-0.466c0.017-0.032,0.031-0.067,0.042-0.1c0.101-0.302,0.02-0.633-0.205-0.857
						c-0.275-0.273-0.528-0.51-0.775-0.738c-0.084-0.077-0.167-0.153-0.246-0.23c-0.206-0.19-0.396-0.375-0.561-0.557
						c-0.129-0.139-0.245-0.278-0.345-0.42c-0.042-0.059-0.081-0.118-0.118-0.177c-0.268-0.414-0.453-0.818-0.533-1.168
						c-0.025-0.11-0.039-0.216-0.044-0.313c-0.001-0.06,0.006-0.101,0.025-0.116c0.038-0.035,0.136-0.071,0.284-0.071
						c0.057,0,0.122,0.005,0.194,0.021c0.367,0.068,0.749,0.177,1.153,0.294c0.2,0.059,0.408,0.118,0.625,0.175
						c0.01,0.004,0.02,0.006,0.029,0.007c0.277,0.065,0.561-0.02,0.757-0.206c0.079-0.074,0.146-0.163,0.191-0.267
						c0.661-1.479,1.098-1.479,1.563-1.332c0.193,0.061,0.388,0.335,0.592,0.624c0.125,0.178,0.256,0.363,0.411,0.539
						c0.467,0.525,1.313,0.951,2.679-0.02c0.831-0.59,1.441-0.827,1.863-0.72c0.316,0.081,0.65,0.391,0.998,0.927
						c-0.014,0.006-0.03,0.013-0.045,0.018c-0.837,0.324-1.784,0.69-2.486,1.282c-0.572,0.483-0.85,1.044-0.867,1.764
						c-0.021,0.901,0.273,1.605,0.836,1.981c0.459,0.308,1.046,0.363,1.562,0.414c0.148,0.015,0.287,0.029,0.39,0.047
						c1.242,0.208,2.564,0.437,3.873,0.708c0.941,0.193,1.891,0.552,2.73,0.87c1.481,0.56,3.342,1.724,3.783,4.094
						c0.748,4.002,1.252,7.655,1.547,11.165c0.311,3.723,0.486,7.526,0.658,11.205c0.072,1.508,0.144,3.066,0.225,4.599
						c0.057,1.08,0.303,2.661,1.769,3.937c0.241,0.209,0.348,0.443,0.3,0.645c-0.054,0.22-0.29,0.399-0.631,0.48
						c-0.953,0.225-1.962,0.292-3.087,0.35C33.625,47.469,22.399,47.463,11.135,46.889 M49.018,44.169
						c-0.771-0.669-1.129-1.493-1.196-2.758c-0.081-1.528-0.151-3.083-0.224-4.589c-0.172-3.693-0.35-7.512-0.662-11.267
						c-0.297-3.566-0.811-7.273-1.567-11.333c-0.458-2.447-2.177-4.35-4.841-5.356c-0.851-0.32-1.912-0.723-2.982-0.944
						c-1.335-0.274-2.674-0.505-3.93-0.717c-0.16-0.029-0.329-0.044-0.507-0.063c-0.235-0.022-0.675-0.065-0.787-0.134
						c-0.034-0.038-0.106-0.227-0.101-0.551c0.006-0.208,0.047-0.333,0.27-0.521c0.49-0.412,1.264-0.714,2.014-1.002
						c0.328-0.128,0.668-0.261,0.979-0.401c0.206-0.093,0.366-0.268,0.443-0.48c0.077-0.216,0.063-0.451-0.038-0.654
						c-0.764-1.548-1.544-2.348-2.53-2.6c-1.231-0.309-2.438,0.409-3.239,0.976c-0.271,0.195-0.413,0.25-0.472,0.265
						c-0.092-0.103-0.187-0.237-0.286-0.38c-0.322-0.458-0.724-1.026-1.457-1.255c-1.768-0.554-2.761,0.675-3.268,1.592
						c-0.421-0.123-0.819-0.235-1.246-0.314c-0.724-0.134-1.408,0.024-1.879,0.433c-0.3,0.262-0.494,0.608-0.566,1.002
						c-0.174,0.116-0.271,0.152-0.314,0.162c-0.081-0.089-0.164-0.21-0.254-0.335c-0.285-0.404-0.639-0.905-1.286-1.109
						c-1.563-0.49-2.441,0.597-2.889,1.407c-0.371-0.107-0.724-0.206-1.099-0.275c-0.642-0.121-1.246,0.02-1.661,0.381
						c-0.364,0.316-0.551,0.771-0.531,1.285c0.041,0.878,0.501,1.709,0.884,2.252c0.224,0.317,0.486,0.6,0.769,0.875
						c-0.608,0.086-1.194,0.171-1.772,0.265c-6.22,0.998-8.34,2.914-9.45,8.544c-0.037,0.193-0.078,0.426-0.094,0.665
						c-0.111,1.616-0.222,3.231-0.332,4.846c-0.347,5.037-0.707,10.242-1.026,15.368c-0.086,1.372-0.211,2.326-1.129,3.111
						c-0.604,0.518-0.874,1.245-0.715,1.947c0.165,0.742,0.764,1.323,1.601,1.549c0.863,0.235,1.768,0.297,2.55,0.336
						c0.893,0.044,1.785,0.086,2.676,0.123c-0.479,0.553-0.674,1.243-0.521,1.914c0.188,0.842,0.865,1.5,1.811,1.756
						c0.975,0.264,2.001,0.334,2.888,0.379C16.784,48.854,22.506,49,28.18,49c5.53,0,11.014-0.139,16.41-0.416
						c1.207-0.061,2.295-0.135,3.385-0.394c0.966-0.228,1.663-0.867,1.869-1.711C50.046,45.658,49.736,44.795,49.018,44.169"/>
				</g>
			</g>
		</g>
	</g>
</g>
</svg>
