<?xml version="1.0" encoding="utf-8"?>
<!-- Generator: Adobe Illustrator 16.0.0, SVG Export Plug-In . SVG Version: 6.00 Build 0)  -->
<!DOCTYPE svg PUBLIC "-//W3C//DTD SVG 1.1//EN" "http://www.w3.org/Graphics/SVG/1.1/DTD/svg11.dtd">
<svg version="1.1" id="Layer_1" xmlns="http://www.w3.org/2000/svg" xmlns:xlink="http://www.w3.org/1999/xlink" x="0px" y="0px"
	 width="39px" height="54px" viewBox="0 0 39 54" enable-background="new 0 0 39 54" xml:space="preserve">
<title>Page 1</title>
<desc>Created with Sketch.</desc>
<g id="Page-1_1_">
	<g id="Support-" transform="translate(-1097.000000, -2373.000000)">
		<rect display="none" fill="#FFFFFF" width="1440" height="3047"/>
		<g id="Group-15" transform="translate(1063.000000, 2357.000000)">
			<g id="Page-1" transform="translate(34.000000, 16.000000)">
				<g id="Group-3" transform="translate(31.000000, 7.000000)">
					<g id="Clip-2">
					</g>
					<defs>
						<filter id="Adobe_OpacityMaskFilter" filterUnits="userSpaceOnUse" x="0.105" y="0.873" width="7.749" height="23.24">
							<feColorMatrix  type="matrix" values="1 0 0 0 0  0 1 0 0 0  0 0 1 0 0  0 0 0 1 0"/>
						</filter>
					</defs>
					<mask maskUnits="userSpaceOnUse" x="0.105" y="0.873" width="7.749" height="23.24" id="mask-2">
						<g filter="url(#Adobe_OpacityMaskFilter)">
							<polygon id="path-1" fill="#FFFFFF" points="0.105,0.873 7.854,0.873 7.854,24.113 0.105,24.113 							"/>
						</g>
					</mask>
					<path id="Fill-1" mask="url(#mask-2)" fill="#1F3D7C" d="M0.369,2.094c1.853,1.423,3.395,3.294,4.459,5.412
						c1.131,2.248,1.729,4.785,1.729,7.34c0,0.114-0.002,0.227-0.004,0.339L6.55,15.295c-0.002,0.076-0.005,0.152-0.008,0.227
						l-0.005,0.133c-0.004,0.068-0.008,0.135-0.012,0.203l-0.01,0.141c-0.005,0.065-0.01,0.128-0.014,0.193l-0.013,0.146
						c-0.007,0.062-0.012,0.125-0.019,0.187c-0.004,0.049-0.01,0.097-0.016,0.145c-0.006,0.062-0.013,0.124-0.021,0.186
						C6.429,16.904,6.423,16.952,6.416,17c-0.008,0.062-0.017,0.123-0.025,0.184c-0.007,0.048-0.014,0.097-0.021,0.146
						c-0.009,0.06-0.019,0.12-0.028,0.181c-0.008,0.047-0.016,0.096-0.023,0.143c-0.012,0.061-0.023,0.123-0.033,0.183L6.26,17.976
						c-0.012,0.062-0.026,0.124-0.039,0.186l-0.025,0.132c-0.015,0.062-0.027,0.124-0.042,0.185l-0.029,0.135
						c-0.019,0.076-0.036,0.151-0.056,0.226l-0.021,0.087c-0.027,0.104-0.055,0.209-0.084,0.313l-0.02,0.067
						c-0.021,0.081-0.045,0.161-0.068,0.24l-0.043,0.138c-0.017,0.057-0.034,0.113-0.053,0.17l-0.04,0.124
						c-0.02,0.061-0.04,0.12-0.06,0.18l-0.006,0.017c-0.002,0.005-0.005,0.013-0.007,0.018c-0.348,1.005-0.793,1.977-1.328,2.889
						c-0.187,0.318-0.089,0.736,0.218,0.93c0.104,0.068,0.222,0.1,0.337,0.1c0.219,0,0.433-0.115,0.555-0.324
						c0.574-0.981,1.056-2.027,1.431-3.107c0.004-0.01,0.008-0.02,0.01-0.029l0.014-0.039c0.021-0.064,0.044-0.13,0.064-0.194
						l0.045-0.136c0.021-0.062,0.039-0.124,0.059-0.186l0.044-0.146c0.026-0.087,0.052-0.174,0.075-0.261l0.022-0.074
						c0.031-0.114,0.061-0.226,0.089-0.341l0.023-0.093c0.02-0.083,0.041-0.166,0.061-0.247l0.033-0.146
						c0.016-0.067,0.029-0.132,0.044-0.2l0.029-0.143c0.015-0.068,0.027-0.136,0.042-0.205l0.027-0.151
						c0.012-0.065,0.023-0.132,0.035-0.198c0.01-0.053,0.018-0.104,0.025-0.156c0.012-0.066,0.021-0.129,0.031-0.196
						c0.009-0.053,0.017-0.105,0.023-0.158c0.01-0.065,0.018-0.132,0.027-0.197c0.007-0.053,0.013-0.105,0.02-0.158
						c0.008-0.067,0.017-0.134,0.022-0.201c0.007-0.053,0.012-0.105,0.019-0.159c0.006-0.067,0.012-0.134,0.02-0.203l0.013-0.157
						c0.007-0.07,0.011-0.139,0.015-0.209l0.01-0.153c0.006-0.074,0.009-0.147,0.012-0.22L7.84,15.58
						c0.004-0.082,0.005-0.165,0.008-0.247l0.004-0.12c0.002-0.121,0.003-0.244,0.003-0.367c0-2.772-0.649-5.528-1.876-7.968
						C4.822,4.58,3.148,2.549,1.141,1.006C0.854,0.784,0.445,0.847,0.233,1.147C0.02,1.448,0.08,1.872,0.369,2.094"/>
				</g>
				<path id="Fill-4" fill="#1F3D7C" d="M35,21.361c0-2.948-0.805-5.775-2.326-8.176c-0.207-0.328-0.432-0.649-0.664-0.958
					c-0.203-0.27-0.564-0.304-0.807-0.076c-0.241,0.226-0.271,0.628-0.069,0.898c0.212,0.28,0.417,0.574,0.606,0.872
					c1.383,2.186,2.116,4.758,2.116,7.441c0,0.353,0.256,0.639,0.571,0.639C34.744,22,35,21.714,35,21.361"/>
				<path id="Fill-6" fill="#1F3D7C" d="M11.152,12.979c-0.231,0.264-0.195,0.656,0.084,0.876C11.357,13.953,11.506,14,11.655,14
					c0.188,0,0.373-0.076,0.503-0.223c0.29-0.331,0.602-0.651,0.928-0.952c2.49-2.308,5.778-3.58,9.26-3.58
					C22.708,9.245,23,8.966,23,8.622S22.708,8,22.346,8c-3.824,0-7.438,1.396-10.175,3.934
					C11.813,12.264,11.471,12.616,11.152,12.979"/>
				<g id="Group-10">
					<g id="Clip-9">
					</g>
					<defs>
						<filter id="Adobe_OpacityMaskFilter_1_" filterUnits="userSpaceOnUse" x="0" y="0.513" width="36.112" height="53.487">
							<feColorMatrix  type="matrix" values="1 0 0 0 0  0 1 0 0 0  0 0 1 0 0  0 0 0 1 0"/>
						</filter>
					</defs>
					<mask maskUnits="userSpaceOnUse" x="0" y="0.513" width="36.112" height="53.487" id="mask-4">
						<g filter="url(#Adobe_OpacityMaskFilter_1_)">
							<polygon id="path-3" fill="#FFFFFF" points="0,0.513 36.112,0.513 36.112,54 0,54 							"/>
						</g>
					</mask>
					<path id="Fill-8" mask="url(#mask-4)" fill="#35ABE1" d="M15.934,21.486c1.269-0.25,2.168-0.39,2.802-0.465
						c-0.083,0.557,0.003,1.114,0.23,1.604c-0.613,0.169-1.476,0.37-2.694,0.61c-4.768,0.937-10.935,1.713-13.774,1.797
						C5.162,24.037,11.165,22.421,15.934,21.486z M22.482,15.872c1.578-4.625,3.994-10.389,5.341-12.906
						c-0.474,2.82-2.087,8.86-3.666,13.485c-0.422,1.236-0.751,2.091-1.007,2.682c-0.215-0.155-0.455-0.282-0.719-0.373
						c-0.262-0.091-0.529-0.14-0.793-0.151C21.799,17.986,22.061,17.108,22.482,15.872z M25.752,24.985
						c3.189,3.688,6.94,8.675,8.434,11.108c-2.188-1.824-6.58-6.25-9.771-9.938c-0.386-0.447-0.715-0.838-0.993-1.181l-0.041-1.412
						c0.199-0.176,0.372-0.38,0.514-0.606C24.344,23.405,24.945,24.054,25.752,24.985z M20.15,52.722l0.828-28.503
						c0.1,0.021,0.201,0.035,0.301,0.044c0.225,0.332,0.515,0.721,0.887,1.186l0.793,27.273H20.15z M20.058,20.934
						c0.048-0.135,0.109-0.26,0.188-0.373c0.181-0.268,0.438-0.468,0.734-0.577c0.135-0.052,0.277-0.084,0.425-0.095
						c0.038-0.004,0.075-0.005,0.114-0.005c0.167,0,0.334,0.027,0.5,0.084c0.205,0.071,0.386,0.181,0.535,0.319
						c0.129,0.117,0.236,0.255,0.318,0.408c0.054,0.097,0.096,0.201,0.127,0.308c0.041,0.141,0.063,0.288,0.063,0.437l-0.002,0.092
						c-0.009,0.137-0.035,0.274-0.081,0.412c-0.017,0.05-0.036,0.101-0.06,0.149c-0.147,0.324-0.4,0.585-0.724,0.744
						c-0.034,0.017-0.069,0.033-0.104,0.047c-0.045,0.019-0.089,0.033-0.135,0.046c-0.213,0.065-0.434,0.081-0.654,0.049
						c-0.096-0.014-0.192-0.037-0.287-0.069c-0.157-0.054-0.299-0.132-0.426-0.228c-0.17-0.127-0.31-0.29-0.411-0.47
						c-0.193-0.339-0.259-0.749-0.159-1.149c0.008-0.032,0.017-0.064,0.027-0.097C20.051,20.955,20.055,20.945,20.058,20.934z
						 M2.023,26.31c0.11,0,0.221-0.001,0.334-0.002c1.007-0.016,2.386-0.117,4.101-0.303c1.576-0.17,3.351-0.403,5.102-0.668
						c1.751-0.264,3.477-0.558,4.956-0.848c1.45-0.284,2.475-0.526,3.206-0.75l-0.86,29.604c-0.004,0.173,0.06,0.339,0.18,0.463
						C19.16,53.93,19.325,54,19.497,54h4.114c0.172,0,0.336-0.07,0.455-0.194s0.184-0.29,0.179-0.463L23.48,27.02
						c1.978,2.285,4.717,5.184,6.988,7.393c1.238,1.205,2.264,2.14,3.049,2.773c0.689,0.557,1.313,1.019,1.826,1.019
						c0.183,0,0.352-0.057,0.503-0.19c0.579-0.507,0.119-1.403-0.494-2.436c-0.517-0.869-1.293-2.021-2.31-3.422
						c-1.869-2.579-4.355-5.723-6.334-8.01c-1.049-1.213-1.807-2.018-2.382-2.544c0.028-0.483-0.069-0.96-0.271-1.384
						c0.346-0.707,0.759-1.764,1.302-3.352c0.98-2.868,2.108-6.723,2.878-9.819c0.419-1.684,0.709-3.043,0.862-4.045
						c0.182-1.188,0.273-2.192-0.453-2.444c-0.726-0.25-1.267,0.599-1.848,1.648c-0.49,0.885-1.094,2.138-1.789,3.725
						c-0.644,1.459-1.33,3.124-1.979,4.781c-0.648,1.658-1.259,3.312-1.747,4.745c-0.544,1.589-0.862,2.678-1.019,3.449
						c-0.368,0.186-0.695,0.451-0.955,0.781c-0.785,0.044-1.92,0.211-3.618,0.544c-2.958,0.582-6.839,1.524-9.887,2.402
						c-1.658,0.476-2.974,0.904-3.912,1.271c-1.114,0.436-2.024,0.857-1.876,1.616C0.148,26.207,0.981,26.31,2.023,26.31z"/>
				</g>
				<path id="Fill-11" fill="#1F3D7C" d="M5.533,18.98C5.586,18.993,5.64,19,5.693,19c0.313,0,0.598-0.216,0.673-0.536
					c0.738-3.13,2.376-5.951,4.737-8.157c1.093-1.02,2.318-1.883,3.641-2.566c1.179-0.608,2.431-1.069,3.72-1.368
					c0.373-0.087,0.604-0.461,0.519-0.835c-0.087-0.374-0.458-0.606-0.833-0.52c-1.4,0.327-2.759,0.827-4.039,1.487
					c-1.436,0.74-2.765,1.678-3.952,2.784c-2.562,2.394-4.34,5.455-5.141,8.854C4.931,18.518,5.16,18.892,5.533,18.98"/>
				<path id="Fill-13" fill="#1F3D7C" d="M17.348,36c0.276,0,0.53-0.174,0.62-0.449c0.111-0.343-0.077-0.71-0.419-0.82
					c-2.214-0.714-4.209-2.012-5.772-3.748c-0.211-0.236-0.416-0.48-0.609-0.73c-0.22-0.283-0.629-0.336-0.915-0.116
					c-0.285,0.222-0.337,0.63-0.117,0.913c0.212,0.274,0.438,0.543,0.669,0.801c1.715,1.91,3.909,3.334,6.342,4.118
					C17.213,35.99,17.281,36,17.348,36"/>
				<path id="Fill-15" fill="#1F3D7C" d="M12.991,35.316c-1.226-0.813-2.336-1.803-3.296-2.943c-1.005-1.193-1.83-2.529-2.45-3.973
					c-0.148-0.342-0.532-0.494-0.861-0.341c-0.327,0.153-0.474,0.556-0.327,0.896c0.675,1.566,1.57,3.017,2.659,4.313
					c1.043,1.236,2.247,2.311,3.579,3.192c0.89,0.59,1.837,1.093,2.818,1.491C15.19,37.984,15.271,38,15.349,38
					c0.261,0,0.506-0.164,0.605-0.433c0.133-0.349-0.033-0.741-0.367-0.877C14.685,36.32,13.811,35.859,12.991,35.316"/>
			</g>
		</g>
	</g>
</g>
</svg>
